<?xml version="1.0" encoding="UTF-8" standalone="no"?>
<!DOCTYPE svg PUBLIC "-//W3C//DTD SVG 1.1//EN"
 "http://www.w3.org/Graphics/SVG/1.1/DTD/svg11.dtd">
<!-- Generated by graphviz version 2.40.1 (20161225.0304)
 -->
<!-- Title: dependencies Pages: 1 -->
<svg width="657pt" height="284pt"
 viewBox="0.00 0.00 657.00 284.00" xmlns="http://www.w3.org/2000/svg" xmlns:xlink="http://www.w3.org/1999/xlink">
<g id="graph0" class="graph" transform="scale(1 1) rotate(0) translate(4 280)">
<title>dependencies</title>
<polygon fill="#ffffff" stroke="transparent" points="-4,4 -4,-280 653,-280 653,4 -4,4"/>
<text text-anchor="start" x="303.5091" y="-42.4" font-family="sans-serif" font-weight="bold" font-size="14.00" fill="#000000">Legend</text>
<polygon fill="#ffffb3" stroke="transparent" points="90.5,-10 90.5,-30 110.5,-30 110.5,-10 90.5,-10"/>
<text text-anchor="start" x="114.129" y="-15.4" font-family="sans-serif" font-size="14.00" fill="#000000"> &#160;Declarations</text>
<polygon fill="#8dd3c7" stroke="transparent" points="203.5,-10 203.5,-30 223.5,-30 223.5,-10 203.5,-10"/>
<text text-anchor="start" x="227.2251" y="-15.4" font-family="sans-serif" font-size="14.00" fill="#000000"> &#160;Module</text>
<polygon fill="#80b1d3" stroke="transparent" points="289.5,-10 289.5,-30 309.5,-30 309.5,-10 289.5,-10"/>
<text text-anchor="start" x="313.2812" y="-15.4" font-family="sans-serif" font-size="14.00" fill="#000000"> &#160;Bootstrap</text>
<polygon fill="#fdb462" stroke="transparent" points="386.5,-10 386.5,-30 406.5,-30 406.5,-10 386.5,-10"/>
<text text-anchor="start" x="410.1732" y="-15.4" font-family="sans-serif" font-size="14.00" fill="#000000"> &#160;Providers</text>
<polygon fill="#fb8072" stroke="transparent" points="482.5,-10 482.5,-30 502.5,-30 502.5,-10 482.5,-10"/>
<text text-anchor="start" x="506.2258" y="-15.4" font-family="sans-serif" font-size="14.00" fill="#000000"> &#160;Exports</text>
<g id="clust1" class="cluster">
<title>cluster_FormCreatorModule</title>
<polygon fill="none" stroke="#000000" stroke-dasharray="1,5" points="8,-70 8,-268 641,-268 641,-70 8,-70"/>
</g>
<g id="clust2" class="cluster">
<title>cluster_FormCreatorModule_declarations</title>
<polygon fill="none" stroke="#000000" points="25,-78 25,-130 624,-130 624,-78 25,-78"/>
</g>
<g id="clust9" class="cluster">
<title>cluster_FormCreatorModule_exports</title>
<polygon fill="none" stroke="#000000" points="16,-208 16,-260 633,-260 633,-208 16,-208"/>
</g>
<!-- CheckboxInline -->
<g id="node1" class="node">
<title>CheckboxInline</title>
<polygon fill="#ffffb3" stroke="#000000" points="615.923,-122 510.077,-122 510.077,-86 615.923,-86 615.923,-122"/>
<text text-anchor="middle" x="563" y="-99.8" font-family="Times,serif" font-size="14.00" fill="#000000">CheckboxInline</text>
</g>
<!-- FormCreatorModule -->
<g id="node6" class="node">
<title>FormCreatorModule</title>
<polygon fill="#8dd3c7" stroke="#000000" points="406.8613,-187 403.8613,-191 382.8613,-191 379.8613,-187 275.1387,-187 275.1387,-151 406.8613,-151 406.8613,-187"/>
<text text-anchor="middle" x="341" y="-164.8" font-family="Times,serif" font-size="14.00" fill="#000000">FormCreatorModule</text>
</g>
<!-- CheckboxInline&#45;&gt;FormCreatorModule -->
<g id="edge1" class="edge">
<title>CheckboxInline&#45;&gt;FormCreatorModule</title>
<path fill="none" stroke="#000000" d="M582.6537,-122.0225C582.6537,-139.3734 582.6537,-163 582.6537,-163 582.6537,-163 417.0329,-163 417.0329,-163"/>
<polygon fill="#000000" stroke="#000000" points="417.033,-159.5001 407.0329,-163 417.0329,-166.5001 417.033,-159.5001"/>
</g>
<!-- NormalBox1 -->
<g id="node2" class="node">
<title>NormalBox1</title>
<polygon fill="#ffffb3" stroke="#000000" points="492.5997,-122 403.4003,-122 403.4003,-86 492.5997,-86 492.5997,-122"/>
<text text-anchor="middle" x="448" y="-99.8" font-family="Times,serif" font-size="14.00" fill="#000000">NormalBox1</text>
</g>
<!-- NormalBox1&#45;&gt;FormCreatorModule -->
<g id="edge2" class="edge">
<title>NormalBox1&#45;&gt;FormCreatorModule</title>
<path fill="none" stroke="#000000" d="M403.3344,-104C398.056,-104 394.5,-104 394.5,-104 394.5,-104 394.5,-140.8939 394.5,-140.8939"/>
<polygon fill="#000000" stroke="#000000" points="391.0001,-140.8938 394.5,-150.8939 398.0001,-140.8939 391.0001,-140.8938"/>
</g>
<!-- NormalBox2 -->
<g id="node3" class="node">
<title>NormalBox2</title>
<polygon fill="#ffffb3" stroke="#000000" points="385.5997,-122 296.4003,-122 296.4003,-86 385.5997,-86 385.5997,-122"/>
<text text-anchor="middle" x="341" y="-99.8" font-family="Times,serif" font-size="14.00" fill="#000000">NormalBox2</text>
</g>
<!-- NormalBox2&#45;&gt;FormCreatorModule -->
<g id="edge3" class="edge">
<title>NormalBox2&#45;&gt;FormCreatorModule</title>
<path fill="none" stroke="#000000" d="M341,-122.1061C341,-122.1061 341,-140.991 341,-140.991"/>
<polygon fill="#000000" stroke="#000000" points="337.5001,-140.9909 341,-150.991 344.5001,-140.991 337.5001,-140.9909"/>
</g>
<!-- ScratchPadUpdate -->
<g id="node4" class="node">
<title>ScratchPadUpdate</title>
<polygon fill="#ffffb3" stroke="#000000" points="278.9019,-122 159.0981,-122 159.0981,-86 278.9019,-86 278.9019,-122"/>
<text text-anchor="middle" x="219" y="-99.8" font-family="Times,serif" font-size="14.00" fill="#000000">ScratchPadUpdate</text>
</g>
<!-- ScratchPadUpdate&#45;&gt;FormCreatorModule -->
<g id="edge4" class="edge">
<title>ScratchPadUpdate&#45;&gt;FormCreatorModule</title>
<path fill="none" stroke="#000000" d="M278.8903,-104C284.1757,-104 287.5754,-104 287.5754,-104 287.5754,-104 287.5754,-140.8939 287.5754,-140.8939"/>
<polygon fill="#000000" stroke="#000000" points="284.0755,-140.8938 287.5754,-150.8939 291.0755,-140.8939 284.0755,-140.8938"/>
</g>
<!-- SelectListSingle -->
<g id="node5" class="node">
<title>SelectListSingle</title>
<polygon fill="#ffffb3" stroke="#000000" points="140.7647,-122 33.2353,-122 33.2353,-86 140.7647,-86 140.7647,-122"/>
<text text-anchor="middle" x="87" y="-99.8" font-family="Times,serif" font-size="14.00" fill="#000000">SelectListSingle</text>
</g>
<!-- SelectListSingle&#45;&gt;FormCreatorModule -->
<g id="edge5" class="edge">
<title>SelectListSingle&#45;&gt;FormCreatorModule</title>
<path fill="none" stroke="#000000" d="M101.4607,-122.0225C101.4607,-139.3734 101.4607,-163 101.4607,-163 101.4607,-163 264.9107,-163 264.9107,-163"/>
<polygon fill="#000000" stroke="#000000" points="264.9108,-166.5001 274.9107,-163 264.9107,-159.5001 264.9108,-166.5001"/>
</g>
<!-- CheckboxInline  -->
<g id="node7" class="node">
<title>CheckboxInline </title>
<polygon fill="#fb8072" stroke="#000000" points="625.4222,-252 516.5778,-252 516.5778,-216 625.4222,-216 625.4222,-252"/>
<text text-anchor="middle" x="571" y="-229.8" font-family="Times,serif" font-size="14.00" fill="#000000">CheckboxInline </text>
</g>
<!-- FormCreatorModule&#45;&gt;CheckboxInline  -->
<g id="edge6" class="edge">
<title>FormCreatorModule&#45;&gt;CheckboxInline </title>
<path fill="none" stroke="#000000" stroke-dasharray="5,2" d="M407.0012,-175C468.1134,-175 549.5963,-175 549.5963,-175 549.5963,-175 549.5963,-205.9775 549.5963,-205.9775"/>
<polygon fill="#000000" stroke="#000000" points="546.0964,-205.9774 549.5963,-215.9775 553.0964,-205.9775 546.0964,-205.9774"/>
</g>
<!-- NormalBox1  -->
<g id="node8" class="node">
<title>NormalBox1 </title>
<polygon fill="#fb8072" stroke="#000000" points="498.1005,-252 405.8995,-252 405.8995,-216 498.1005,-216 498.1005,-252"/>
<text text-anchor="middle" x="452" y="-229.8" font-family="Times,serif" font-size="14.00" fill="#000000">NormalBox1 </text>
</g>
<!-- FormCreatorModule&#45;&gt;NormalBox1  -->
<g id="edge7" class="edge">
<title>FormCreatorModule&#45;&gt;NormalBox1 </title>
<path fill="none" stroke="#000000" stroke-dasharray="5,2" d="M396.5,-187.1061C396.5,-206.3391 396.5,-234 396.5,-234 396.5,-234 397.4165,-234 397.4165,-234"/>
<polygon fill="#000000" stroke="#000000" points="395.6647,-237.5001 405.6647,-234 395.6647,-230.5001 395.6647,-237.5001"/>
</g>
<!-- NormalBox2  -->
<g id="node9" class="node">
<title>NormalBox2 </title>
<polygon fill="#fb8072" stroke="#000000" points="387.1005,-252 294.8995,-252 294.8995,-216 387.1005,-216 387.1005,-252"/>
<text text-anchor="middle" x="341" y="-229.8" font-family="Times,serif" font-size="14.00" fill="#000000">NormalBox2 </text>
</g>
<!-- FormCreatorModule&#45;&gt;NormalBox2  -->
<g id="edge8" class="edge">
<title>FormCreatorModule&#45;&gt;NormalBox2 </title>
<path fill="none" stroke="#000000" stroke-dasharray="5,2" d="M341,-187.1061C341,-187.1061 341,-205.991 341,-205.991"/>
<polygon fill="#000000" stroke="#000000" points="337.5001,-205.9909 341,-215.991 344.5001,-205.991 337.5001,-205.9909"/>
</g>
<!-- ScratchPadUpdate  -->
<g id="node10" class="node">
<title>ScratchPadUpdate </title>
<polygon fill="#fb8072" stroke="#000000" points="276.4012,-252 153.5988,-252 153.5988,-216 276.4012,-216 276.4012,-252"/>
<text text-anchor="middle" x="215" y="-229.8" font-family="Times,serif" font-size="14.00" fill="#000000">ScratchPadUpdate </text>
</g>
<!-- FormCreatorModule&#45;&gt;ScratchPadUpdate  -->
<g id="edge9" class="edge">
<title>FormCreatorModule&#45;&gt;ScratchPadUpdate </title>
<path fill="none" stroke="#000000" stroke-dasharray="5,2" d="M285.5754,-187.1061C285.5754,-206.3391 285.5754,-234 285.5754,-234 285.5754,-234 284.6816,-234 284.6816,-234"/>
<polygon fill="#000000" stroke="#000000" points="286.637,-230.5001 276.637,-234 286.6369,-237.5001 286.637,-230.5001"/>
</g>
<!-- SelectListSingle  -->
<g id="node11" class="node">
<title>SelectListSingle </title>
<polygon fill="#fb8072" stroke="#000000" points="135.7647,-252 24.2353,-252 24.2353,-216 135.7647,-216 135.7647,-252"/>
<text text-anchor="middle" x="80" y="-229.8" font-family="Times,serif" font-size="14.00" fill="#000000">SelectListSingle </text>
</g>
<!-- FormCreatorModule&#45;&gt;SelectListSingle  -->
<g id="edge10" class="edge">
<title>FormCreatorModule&#45;&gt;SelectListSingle </title>
<path fill="none" stroke="#000000" stroke-dasharray="5,2" d="M275.0911,-175C194.1004,-175 67.2893,-175 67.2893,-175 67.2893,-175 67.2893,-205.9775 67.2893,-205.9775"/>
<polygon fill="#000000" stroke="#000000" points="63.7894,-205.9774 67.2893,-215.9775 70.7894,-205.9775 63.7894,-205.9774"/>
</g>
</g>
</svg>
