<?xml version="1.0" encoding="UTF-8" standalone="no"?>
<!DOCTYPE svg PUBLIC "-//W3C//DTD SVG 1.1//EN"
 "http://www.w3.org/Graphics/SVG/1.1/DTD/svg11.dtd">
<!-- Generated by graphviz version 2.40.1 (20161225.0304)
 -->
<!-- Title: dependencies Pages: 1 -->
<svg width="7417pt" height="290pt"
 viewBox="0.00 0.00 7417.00 290.00" xmlns="http://www.w3.org/2000/svg" xmlns:xlink="http://www.w3.org/1999/xlink">
<g id="graph0" class="graph" transform="scale(1 1) rotate(0) translate(4 286)">
<title>dependencies</title>
<polygon fill="#ffffff" stroke="transparent" points="-4,4 -4,-286 7413,-286 7413,4 -4,4"/>
<text text-anchor="start" x="3683.5091" y="-42.4" font-family="sans-serif" font-weight="bold" font-size="14.00" fill="#000000">Legend</text>
<polygon fill="#ffffb3" stroke="transparent" points="3470.5,-10 3470.5,-30 3490.5,-30 3490.5,-10 3470.5,-10"/>
<text text-anchor="start" x="3494.129" y="-15.4" font-family="sans-serif" font-size="14.00" fill="#000000"> &#160;Declarations</text>
<polygon fill="#8dd3c7" stroke="transparent" points="3583.5,-10 3583.5,-30 3603.5,-30 3603.5,-10 3583.5,-10"/>
<text text-anchor="start" x="3607.2251" y="-15.4" font-family="sans-serif" font-size="14.00" fill="#000000"> &#160;Module</text>
<polygon fill="#80b1d3" stroke="transparent" points="3669.5,-10 3669.5,-30 3689.5,-30 3689.5,-10 3669.5,-10"/>
<text text-anchor="start" x="3693.2812" y="-15.4" font-family="sans-serif" font-size="14.00" fill="#000000"> &#160;Bootstrap</text>
<polygon fill="#fdb462" stroke="transparent" points="3766.5,-10 3766.5,-30 3786.5,-30 3786.5,-10 3766.5,-10"/>
<text text-anchor="start" x="3790.1732" y="-15.4" font-family="sans-serif" font-size="14.00" fill="#000000"> &#160;Providers</text>
<polygon fill="#fb8072" stroke="transparent" points="3862.5,-10 3862.5,-30 3882.5,-30 3882.5,-10 3862.5,-10"/>
<text text-anchor="start" x="3886.2258" y="-15.4" font-family="sans-serif" font-size="14.00" fill="#000000"> &#160;Exports</text>
<g id="clust1" class="cluster">
<title>cluster_AppModule</title>
<polygon fill="none" stroke="#000000" stroke-dasharray="1,5" points="8,-70 8,-274 6153,-274 6153,-70 8,-70"/>
</g>
<g id="clust2" class="cluster">
<title>cluster_AppModule_declarations</title>
<polygon fill="none" stroke="#000000" points="2210,-78 2210,-130 5989,-130 5989,-78 2210,-78"/>
</g>
<g id="clust27" class="cluster">
<title>cluster_AppModule_imports</title>
<polygon fill="none" stroke="#000000" points="5997,-78 5997,-130 6145,-130 6145,-78 5997,-78"/>
</g>
<g id="clust29" class="cluster">
<title>cluster_AppModule_bootstrap</title>
<polygon fill="none" stroke="#000000" points="3077,-214 3077,-266 3201,-266 3201,-214 3077,-214"/>
</g>
<g id="clust30" class="cluster">
<title>cluster_AppModule_providers</title>
<polygon fill="none" stroke="#000000" points="16,-78 16,-130 2202,-130 2202,-78 16,-78"/>
</g>
<g id="clust31" class="cluster">
<title>cluster_FormCreatorModule</title>
<polygon fill="none" stroke="#000000" stroke-dasharray="1,5" points="6161,-138 6161,-206 7401,-206 7401,-138 6161,-138"/>
</g>
<g id="clust32" class="cluster">
<title>cluster_FormCreatorModule_declarations</title>
<polygon fill="none" stroke="#000000" points="6794,-146 6794,-198 7393,-198 7393,-146 6794,-146"/>
</g>
<g id="clust39" class="cluster">
<title>cluster_FormCreatorModule_exports</title>
<polygon fill="none" stroke="#000000" points="6169,-146 6169,-198 6786,-198 6786,-146 6169,-146"/>
</g>
<!-- AccordionRecursion -->
<g id="node1" class="node">
<title>AccordionRecursion</title>
<polygon fill="#ffffb3" stroke="#000000" points="5980.8487,-122 5849.1513,-122 5849.1513,-86 5980.8487,-86 5980.8487,-122"/>
<text text-anchor="middle" x="5915" y="-99.8" font-family="Times,serif" font-size="14.00" fill="#000000">AccordionRecursion</text>
</g>
<!-- AppModule -->
<g id="node25" class="node">
<title>AppModule</title>
<polygon fill="#8dd3c7" stroke="#000000" points="3180.6571,-190 3177.6571,-194 3156.6571,-194 3153.6571,-190 3097.3429,-190 3097.3429,-154 3180.6571,-154 3180.6571,-190"/>
<text text-anchor="middle" x="3139" y="-167.8" font-family="Times,serif" font-size="14.00" fill="#000000">AppModule</text>
</g>
<!-- AccordionRecursion&#45;&gt;AppModule -->
<g id="edge1" class="edge">
<title>AccordionRecursion&#45;&gt;AppModule</title>
<path fill="none" stroke="#000000" d="M5915,-122.0098C5915,-146.4207 5915,-187 5915,-187 5915,-187 3190.6692,-187 3190.6692,-187"/>
<polygon fill="#000000" stroke="#000000" points="3190.6693,-183.5001 3180.6692,-187 3190.6692,-190.5001 3190.6693,-183.5001"/>
</g>
<!-- AccountComponent -->
<g id="node2" class="node">
<title>AccountComponent</title>
<polygon fill="#ffffb3" stroke="#000000" points="5831.259,-122 5702.741,-122 5702.741,-86 5831.259,-86 5831.259,-122"/>
<text text-anchor="middle" x="5767" y="-99.8" font-family="Times,serif" font-size="14.00" fill="#000000">AccountComponent</text>
</g>
<!-- AccountComponent&#45;&gt;AppModule -->
<g id="edge2" class="edge">
<title>AccountComponent&#45;&gt;AppModule</title>
<path fill="none" stroke="#000000" d="M5767,-122.3802C5767,-146.2785 5767,-185 5767,-185 5767,-185 3190.8102,-185 3190.8102,-185"/>
<polygon fill="#000000" stroke="#000000" points="3190.8103,-181.5001 3180.8102,-185 3190.8102,-188.5001 3190.8103,-181.5001"/>
</g>
<!-- AppComponent -->
<g id="node3" class="node">
<title>AppComponent</title>
<polygon fill="#ffffb3" stroke="#000000" points="5684.9399,-122 5579.0601,-122 5579.0601,-86 5684.9399,-86 5684.9399,-122"/>
<text text-anchor="middle" x="5632" y="-99.8" font-family="Times,serif" font-size="14.00" fill="#000000">AppComponent</text>
</g>
<!-- AppComponent&#45;&gt;AppModule -->
<g id="edge3" class="edge">
<title>AppComponent&#45;&gt;AppModule</title>
<path fill="none" stroke="#000000" d="M5632,-122.3228C5632,-145.6602 5632,-183 5632,-183 5632,-183 3190.7062,-183 3190.7062,-183"/>
<polygon fill="#000000" stroke="#000000" points="3190.7062,-179.5001 3180.7062,-183 3190.7061,-186.5001 3190.7062,-179.5001"/>
</g>
<!-- CarePlanDisplay -->
<g id="node4" class="node">
<title>CarePlanDisplay</title>
<polygon fill="#ffffb3" stroke="#000000" points="5561.3613,-122 5450.6387,-122 5450.6387,-86 5561.3613,-86 5561.3613,-122"/>
<text text-anchor="middle" x="5506" y="-99.8" font-family="Times,serif" font-size="14.00" fill="#000000">CarePlanDisplay</text>
</g>
<!-- CarePlanDisplay&#45;&gt;AppModule -->
<g id="edge4" class="edge">
<title>CarePlanDisplay&#45;&gt;AppModule</title>
<path fill="none" stroke="#000000" d="M5506,-122.2479C5506,-145.0179 5506,-181 5506,-181 5506,-181 3190.8361,-181 3190.8361,-181"/>
<polygon fill="#000000" stroke="#000000" points="3190.8361,-177.5001 3180.8361,-181 3190.8361,-184.5001 3190.8361,-177.5001"/>
</g>
<!-- CarePlansComponent -->
<g id="node5" class="node">
<title>CarePlansComponent</title>
<polygon fill="#ffffb3" stroke="#000000" points="5433.0912,-122 5294.9088,-122 5294.9088,-86 5433.0912,-86 5433.0912,-122"/>
<text text-anchor="middle" x="5364" y="-99.8" font-family="Times,serif" font-size="14.00" fill="#000000">CarePlansComponent</text>
</g>
<!-- CarePlansComponent&#45;&gt;AppModule -->
<g id="edge5" class="edge">
<title>CarePlansComponent&#45;&gt;AppModule</title>
<path fill="none" stroke="#000000" d="M5364,-122.1554C5364,-144.3519 5364,-179 5364,-179 5364,-179 3190.971,-179 3190.971,-179"/>
<polygon fill="#000000" stroke="#000000" points="3190.971,-175.5001 3180.971,-179 3190.971,-182.5001 3190.971,-175.5001"/>
</g>
<!-- ColumnStateSwitcherComponent -->
<g id="node6" class="node">
<title>ColumnStateSwitcherComponent</title>
<polygon fill="#ffffb3" stroke="#000000" points="5277.2035,-122 5072.7965,-122 5072.7965,-86 5277.2035,-86 5277.2035,-122"/>
<text text-anchor="middle" x="5175" y="-99.8" font-family="Times,serif" font-size="14.00" fill="#000000">ColumnStateSwitcherComponent</text>
</g>
<!-- ColumnStateSwitcherComponent&#45;&gt;AppModule -->
<g id="edge6" class="edge">
<title>ColumnStateSwitcherComponent&#45;&gt;AppModule</title>
<path fill="none" stroke="#000000" d="M5175,-122.0449C5175,-143.6623 5175,-177 5175,-177 5175,-177 3191.0574,-177 3191.0574,-177"/>
<polygon fill="#000000" stroke="#000000" points="3191.0574,-173.5001 3181.0574,-177 3191.0574,-180.5001 3191.0574,-173.5001"/>
</g>
<!-- ConditionsChartComponent -->
<g id="node7" class="node">
<title>ConditionsChartComponent</title>
<polygon fill="#ffffb3" stroke="#000000" points="5054.8878,-122 4881.1122,-122 4881.1122,-86 5054.8878,-86 5054.8878,-122"/>
<text text-anchor="middle" x="4968" y="-99.8" font-family="Times,serif" font-size="14.00" fill="#000000">ConditionsChartComponent</text>
</g>
<!-- ConditionsChartComponent&#45;&gt;AppModule -->
<g id="edge7" class="edge">
<title>ConditionsChartComponent&#45;&gt;AppModule</title>
<path fill="none" stroke="#000000" d="M4968,-122.2843C4968,-143.3211 4968,-175 4968,-175 4968,-175 3191.0769,-175 3191.0769,-175"/>
<polygon fill="#000000" stroke="#000000" points="3191.077,-171.5001 3181.0769,-175 3191.0769,-178.5001 3191.077,-171.5001"/>
</g>
<!-- ConditionsComponent -->
<g id="node8" class="node">
<title>ConditionsComponent</title>
<polygon fill="#ffffb3" stroke="#000000" points="4863.2856,-122 4720.7144,-122 4720.7144,-86 4863.2856,-86 4863.2856,-122"/>
<text text-anchor="middle" x="4792" y="-99.8" font-family="Times,serif" font-size="14.00" fill="#000000">ConditionsComponent</text>
</g>
<!-- ConditionsComponent&#45;&gt;AppModule -->
<g id="edge8" class="edge">
<title>ConditionsComponent&#45;&gt;AppModule</title>
<path fill="none" stroke="#000000" d="M4792,-122.1289C4792,-142.5724 4792,-173 4792,-173 4792,-173 3190.6876,-173 3190.6876,-173"/>
<polygon fill="#000000" stroke="#000000" points="3190.6877,-169.5001 3180.6876,-173 3190.6876,-176.5001 3190.6877,-169.5001"/>
</g>
<!-- ConditionsDisplay -->
<g id="node9" class="node">
<title>ConditionsDisplay</title>
<polygon fill="#ffffb3" stroke="#000000" points="4702.5,-122 4581.5,-122 4581.5,-86 4702.5,-86 4702.5,-122"/>
<text text-anchor="middle" x="4642" y="-99.8" font-family="Times,serif" font-size="14.00" fill="#000000">ConditionsDisplay</text>
</g>
<!-- ConditionsDisplay&#45;&gt;AppModule -->
<g id="edge9" class="edge">
<title>ConditionsDisplay&#45;&gt;AppModule</title>
<path fill="none" stroke="#000000" d="M4642,-122.2228C4642,-142.3652 4642,-172 4642,-172 4642,-172 3190.7675,-172 3190.7675,-172"/>
<polygon fill="#000000" stroke="#000000" points="3190.7675,-168.5001 3180.7675,-172 3190.7675,-175.5001 3190.7675,-168.5001"/>
</g>
<!-- ContextMenuComponent -->
<g id="node10" class="node">
<title>ContextMenuComponent</title>
<polygon fill="#ffffb3" stroke="#000000" points="4563.3243,-122 4404.6757,-122 4404.6757,-86 4563.3243,-86 4563.3243,-122"/>
<text text-anchor="middle" x="4484" y="-99.8" font-family="Times,serif" font-size="14.00" fill="#000000">ContextMenuComponent</text>
</g>
<!-- ContextMenuComponent&#45;&gt;AppModule -->
<g id="edge10" class="edge">
<title>ContextMenuComponent&#45;&gt;AppModule</title>
<path fill="none" stroke="#000000" d="M4484,-122.0348C4484,-141.5762 4484,-170 4484,-170 4484,-170 3190.7281,-170 3190.7281,-170"/>
<polygon fill="#000000" stroke="#000000" points="3190.7281,-166.5001 3180.7281,-170 3190.728,-173.5001 3190.7281,-166.5001"/>
</g>
<!-- FormBuilder -->
<g id="node11" class="node">
<title>FormBuilder</title>
<polygon fill="#ffffb3" stroke="#000000" points="4387.3274,-122 4298.6726,-122 4298.6726,-86 4387.3274,-86 4387.3274,-122"/>
<text text-anchor="middle" x="4343" y="-99.8" font-family="Times,serif" font-size="14.00" fill="#000000">FormBuilder</text>
</g>
<!-- FormBuilder&#45;&gt;AppModule -->
<g id="edge11" class="edge">
<title>FormBuilder&#45;&gt;AppModule</title>
<path fill="none" stroke="#000000" d="M4343,-122.1686C4343,-141.0898 4343,-168 4343,-168 4343,-168 3190.794,-168 3190.794,-168"/>
<polygon fill="#000000" stroke="#000000" points="3190.7941,-164.5001 3180.794,-168 3190.794,-171.5001 3190.7941,-164.5001"/>
</g>
<!-- HistoricalTrendsComponent -->
<g id="node12" class="node">
<title>HistoricalTrendsComponent</title>
<polygon fill="#ffffb3" stroke="#000000" points="4280.9087,-122 4105.0913,-122 4105.0913,-86 4280.9087,-86 4280.9087,-122"/>
<text text-anchor="middle" x="4193" y="-99.8" font-family="Times,serif" font-size="14.00" fill="#000000">HistoricalTrendsComponent</text>
</g>
<!-- HistoricalTrendsComponent&#45;&gt;AppModule -->
<g id="edge12" class="edge">
<title>HistoricalTrendsComponent&#45;&gt;AppModule</title>
<path fill="none" stroke="#000000" d="M4193,-122.2667C4193,-140.5552 4193,-166 4193,-166 4193,-166 3190.9685,-166 3190.9685,-166"/>
<polygon fill="#000000" stroke="#000000" points="3190.9685,-162.5001 3180.9685,-166 3190.9684,-169.5001 3190.9685,-162.5001"/>
</g>
<!-- HomeComponent -->
<g id="node13" class="node">
<title>HomeComponent</title>
<polygon fill="#ffffb3" stroke="#000000" points="4087.5451,-122 3972.4549,-122 3972.4549,-86 4087.5451,-86 4087.5451,-122"/>
<text text-anchor="middle" x="4030" y="-99.8" font-family="Times,serif" font-size="14.00" fill="#000000">HomeComponent</text>
</g>
<!-- HomeComponent&#45;&gt;AppModule -->
<g id="edge13" class="edge">
<title>HomeComponent&#45;&gt;AppModule</title>
<path fill="none" stroke="#000000" d="M4030,-122.002C4030,-139.6754 4030,-164 4030,-164 4030,-164 3190.7797,-164 3190.7797,-164"/>
<polygon fill="#000000" stroke="#000000" points="3190.7797,-160.5001 3180.7797,-164 3190.7797,-167.5001 3190.7797,-160.5001"/>
</g>
<!-- HoverBoxComponent -->
<g id="node14" class="node">
<title>HoverBoxComponent</title>
<polygon fill="#ffffb3" stroke="#000000" points="3953.6512,-122 3814.3488,-122 3814.3488,-86 3953.6512,-86 3953.6512,-122"/>
<text text-anchor="middle" x="3884" y="-99.8" font-family="Times,serif" font-size="14.00" fill="#000000">HoverBoxComponent</text>
</g>
<!-- HoverBoxComponent&#45;&gt;AppModule -->
<g id="edge14" class="edge">
<title>HoverBoxComponent&#45;&gt;AppModule</title>
<path fill="none" stroke="#000000" d="M3884,-122.0336C3884,-139.0597 3884,-162 3884,-162 3884,-162 3190.9195,-162 3190.9195,-162"/>
<polygon fill="#000000" stroke="#000000" points="3190.9196,-158.5001 3180.9195,-162 3190.9195,-165.5001 3190.9196,-158.5001"/>
</g>
<!-- LoadingAnimation -->
<g id="node15" class="node">
<title>LoadingAnimation</title>
<polygon fill="#ffffb3" stroke="#000000" points="3796.0423,-122 3673.9577,-122 3673.9577,-86 3796.0423,-86 3796.0423,-122"/>
<text text-anchor="middle" x="3735" y="-99.8" font-family="Times,serif" font-size="14.00" fill="#000000">LoadingAnimation</text>
</g>
<!-- LoadingAnimation&#45;&gt;AppModule -->
<g id="edge15" class="edge">
<title>LoadingAnimation&#45;&gt;AppModule</title>
<path fill="none" stroke="#000000" d="M3735,-122.027C3735,-138.3976 3735,-160 3735,-160 3735,-160 3190.9096,-160 3190.9096,-160"/>
<polygon fill="#000000" stroke="#000000" points="3190.9096,-156.5001 3180.9096,-160 3190.9095,-163.5001 3190.9096,-156.5001"/>
</g>
<!-- MedicationsComponent -->
<g id="node16" class="node">
<title>MedicationsComponent</title>
<polygon fill="#ffffb3" stroke="#000000" points="3655.0379,-122 3504.9621,-122 3504.9621,-86 3655.0379,-86 3655.0379,-122"/>
<text text-anchor="middle" x="3580" y="-99.8" font-family="Times,serif" font-size="14.00" fill="#000000">MedicationsComponent</text>
</g>
<!-- MedicationsComponent&#45;&gt;AppModule -->
<g id="edge16" class="edge">
<title>MedicationsComponent&#45;&gt;AppModule</title>
<path fill="none" stroke="#000000" d="M3580,-122.2819C3580,-137.9478 3580,-158 3580,-158 3580,-158 3190.8858,-158 3190.8858,-158"/>
<polygon fill="#000000" stroke="#000000" points="3190.8858,-154.5001 3180.8858,-158 3190.8858,-161.5001 3190.8858,-154.5001"/>
</g>
<!-- ObservationRecursiveChart -->
<g id="node17" class="node">
<title>ObservationRecursiveChart</title>
<polygon fill="#ffffb3" stroke="#000000" points="3486.5015,-122 3315.4985,-122 3315.4985,-86 3486.5015,-86 3486.5015,-122"/>
<text text-anchor="middle" x="3401" y="-99.8" font-family="Times,serif" font-size="14.00" fill="#000000">ObservationRecursiveChart</text>
</g>
<!-- ObservationRecursiveChart&#45;&gt;AppModule -->
<g id="edge17" class="edge">
<title>ObservationRecursiveChart&#45;&gt;AppModule</title>
<path fill="none" stroke="#000000" d="M3401,-122.1871C3401,-137.1824 3401,-156 3401,-156 3401,-156 3190.8044,-156 3190.8044,-156"/>
<polygon fill="#000000" stroke="#000000" points="3190.8044,-152.5001 3180.8044,-156 3190.8044,-159.5001 3190.8044,-152.5001"/>
</g>
<!-- ObservationsComponent -->
<g id="node18" class="node">
<title>ObservationsComponent</title>
<polygon fill="#ffffb3" stroke="#000000" points="3297.6993,-122 3142.3007,-122 3142.3007,-86 3297.6993,-86 3297.6993,-122"/>
<text text-anchor="middle" x="3220" y="-99.8" font-family="Times,serif" font-size="14.00" fill="#000000">ObservationsComponent</text>
</g>
<!-- ObservationsComponent&#45;&gt;AppModule -->
<g id="edge18" class="edge">
<title>ObservationsComponent&#45;&gt;AppModule</title>
<path fill="none" stroke="#000000" d="M3161.6143,-122.2228C3161.6143,-122.2228 3161.6143,-143.7269 3161.6143,-143.7269"/>
<polygon fill="#000000" stroke="#000000" points="3158.1144,-143.7269 3161.6143,-153.7269 3165.1144,-143.727 3158.1144,-143.7269"/>
</g>
<!-- ObservationsDisplay -->
<g id="node19" class="node">
<title>ObservationsDisplay</title>
<polygon fill="#ffffb3" stroke="#000000" points="3124.9144,-122 2991.0856,-122 2991.0856,-86 3124.9144,-86 3124.9144,-122"/>
<text text-anchor="middle" x="3058" y="-99.8" font-family="Times,serif" font-size="14.00" fill="#000000">ObservationsDisplay</text>
</g>
<!-- ObservationsDisplay&#45;&gt;AppModule -->
<g id="edge19" class="edge">
<title>ObservationsDisplay&#45;&gt;AppModule</title>
<path fill="none" stroke="#000000" d="M3110.9394,-122.2228C3110.9394,-122.2228 3110.9394,-143.7269 3110.9394,-143.7269"/>
<polygon fill="#000000" stroke="#000000" points="3107.4394,-143.7269 3110.9394,-153.7269 3114.4394,-143.727 3107.4394,-143.7269"/>
</g>
<!-- PatientComponent -->
<g id="node20" class="node">
<title>PatientComponent</title>
<polygon fill="#ffffb3" stroke="#000000" points="2973.2162,-122 2852.7838,-122 2852.7838,-86 2973.2162,-86 2973.2162,-122"/>
<text text-anchor="middle" x="2913" y="-99.8" font-family="Times,serif" font-size="14.00" fill="#000000">PatientComponent</text>
</g>
<!-- PatientComponent&#45;&gt;AppModule -->
<g id="edge20" class="edge">
<title>PatientComponent&#45;&gt;AppModule</title>
<path fill="none" stroke="#000000" d="M2913,-122.1871C2913,-137.1824 2913,-156 2913,-156 2913,-156 3087.2847,-156 3087.2847,-156"/>
<polygon fill="#000000" stroke="#000000" points="3087.2848,-159.5001 3097.2847,-156 3087.2847,-152.5001 3087.2848,-159.5001"/>
</g>
<!-- TimelineComponent -->
<g id="node21" class="node">
<title>TimelineComponent</title>
<polygon fill="#ffffb3" stroke="#000000" points="2834.8767,-122 2703.1233,-122 2703.1233,-86 2834.8767,-86 2834.8767,-122"/>
<text text-anchor="middle" x="2769" y="-99.8" font-family="Times,serif" font-size="14.00" fill="#000000">TimelineComponent</text>
</g>
<!-- TimelineComponent&#45;&gt;AppModule -->
<g id="edge21" class="edge">
<title>TimelineComponent&#45;&gt;AppModule</title>
<path fill="none" stroke="#000000" d="M2769,-122.2819C2769,-137.9478 2769,-158 2769,-158 2769,-158 3087.2755,-158 3087.2755,-158"/>
<polygon fill="#000000" stroke="#000000" points="3087.2756,-161.5001 3097.2755,-158 3087.2755,-154.5001 3087.2756,-161.5001"/>
</g>
<!-- TimelinePopupComponent -->
<g id="node22" class="node">
<title>TimelinePopupComponent</title>
<polygon fill="#ffffb3" stroke="#000000" points="2684.6595,-122 2517.3405,-122 2517.3405,-86 2684.6595,-86 2684.6595,-122"/>
<text text-anchor="middle" x="2601" y="-99.8" font-family="Times,serif" font-size="14.00" fill="#000000">TimelinePopupComponent</text>
</g>
<!-- TimelinePopupComponent&#45;&gt;AppModule -->
<g id="edge22" class="edge">
<title>TimelinePopupComponent&#45;&gt;AppModule</title>
<path fill="none" stroke="#000000" d="M2601,-122.027C2601,-138.3976 2601,-160 2601,-160 2601,-160 3087.2317,-160 3087.2317,-160"/>
<polygon fill="#000000" stroke="#000000" points="3087.2318,-163.5001 3097.2317,-160 3087.2317,-156.5001 3087.2318,-163.5001"/>
</g>
<!-- ToolbarComponent -->
<g id="node23" class="node">
<title>ToolbarComponent</title>
<polygon fill="#ffffb3" stroke="#000000" points="2498.6513,-122 2373.3487,-122 2373.3487,-86 2498.6513,-86 2498.6513,-122"/>
<text text-anchor="middle" x="2436" y="-99.8" font-family="Times,serif" font-size="14.00" fill="#000000">ToolbarComponent</text>
</g>
<!-- ToolbarComponent&#45;&gt;AppModule -->
<g id="edge23" class="edge">
<title>ToolbarComponent&#45;&gt;AppModule</title>
<path fill="none" stroke="#000000" d="M2436,-122.0336C2436,-139.0597 2436,-162 2436,-162 2436,-162 3087.1294,-162 3087.1294,-162"/>
<polygon fill="#000000" stroke="#000000" points="3087.1295,-165.5001 3097.1294,-162 3087.1294,-158.5001 3087.1295,-165.5001"/>
</g>
<!-- TripleListComponent -->
<g id="node24" class="node">
<title>TripleListComponent</title>
<polygon fill="#ffffb3" stroke="#000000" points="2355.8202,-122 2218.1798,-122 2218.1798,-86 2355.8202,-86 2355.8202,-122"/>
<text text-anchor="middle" x="2287" y="-99.8" font-family="Times,serif" font-size="14.00" fill="#000000">TripleListComponent</text>
</g>
<!-- TripleListComponent&#45;&gt;AppModule -->
<g id="edge24" class="edge">
<title>TripleListComponent&#45;&gt;AppModule</title>
<path fill="none" stroke="#000000" d="M2287,-122.002C2287,-139.6754 2287,-164 2287,-164 2287,-164 3087.3295,-164 3087.3295,-164"/>
<polygon fill="#000000" stroke="#000000" points="3087.3295,-167.5001 3097.3295,-164 3087.3295,-160.5001 3087.3295,-167.5001"/>
</g>
<!-- AppComponent  -->
<g id="node27" class="node">
<title>AppComponent </title>
<polygon fill="#80b1d3" stroke="#000000" points="3193.439,-258 3084.561,-258 3084.561,-222 3193.439,-222 3193.439,-258"/>
<text text-anchor="middle" x="3139" y="-235.8" font-family="Times,serif" font-size="14.00" fill="#000000">AppComponent </text>
</g>
<!-- AppModule&#45;&gt;AppComponent  -->
<g id="edge26" class="edge">
<title>AppModule&#45;&gt;AppComponent </title>
<path fill="none" stroke="#000000" stroke-dasharray="1,5" d="M3139,-190.2228C3139,-190.2228 3139,-211.7269 3139,-211.7269"/>
<polygon fill="#000000" stroke="#000000" points="3135.5001,-211.7269 3139,-221.7269 3142.5001,-211.727 3135.5001,-211.7269"/>
</g>
<!-- FormCreatorModule -->
<g id="node26" class="node">
<title>FormCreatorModule</title>
<polygon fill="#8dd3c7" stroke="#000000" points="6136.8613,-122 6133.8613,-126 6112.8613,-126 6109.8613,-122 6005.1387,-122 6005.1387,-86 6136.8613,-86 6136.8613,-122"/>
<text text-anchor="middle" x="6071" y="-99.8" font-family="Times,serif" font-size="14.00" fill="#000000">FormCreatorModule</text>
</g>
<!-- FormCreatorModule&#45;&gt;AppModule -->
<g id="edge25" class="edge">
<title>FormCreatorModule&#45;&gt;AppModule</title>
<path fill="none" stroke="#000000" d="M6071,-122.0263C6071,-146.9773 6071,-189 6071,-189 6071,-189 3190.7289,-189 3190.7289,-189"/>
<polygon fill="#000000" stroke="#000000" points="3190.7289,-185.5001 3180.7289,-189 3190.7288,-192.5001 3190.7289,-185.5001"/>
</g>
<!-- CheckboxInline  -->
<g id="node46" class="node">
<title>CheckboxInline </title>
<polygon fill="#fb8072" stroke="#000000" points="6778.4222,-190 6669.5778,-190 6669.5778,-154 6778.4222,-154 6778.4222,-190"/>
<text text-anchor="middle" x="6724" y="-167.8" font-family="Times,serif" font-size="14.00" fill="#000000">CheckboxInline </text>
</g>
<!-- FormCreatorModule&#45;&gt;CheckboxInline  -->
<g id="edge45" class="edge">
<title>FormCreatorModule&#45;&gt;CheckboxInline </title>
<path fill="none" stroke="#000000" stroke-dasharray="5,2" d="M6136.904,-106C6302.7062,-106 6724,-106 6724,-106 6724,-106 6724,-143.9652 6724,-143.9652"/>
<polygon fill="#000000" stroke="#000000" points="6720.5001,-143.9652 6724,-153.9652 6727.5001,-143.9652 6720.5001,-143.9652"/>
</g>
<!-- NormalBox1  -->
<g id="node47" class="node">
<title>NormalBox1 </title>
<polygon fill="#fb8072" stroke="#000000" points="6651.1005,-190 6558.8995,-190 6558.8995,-154 6651.1005,-154 6651.1005,-190"/>
<text text-anchor="middle" x="6605" y="-167.8" font-family="Times,serif" font-size="14.00" fill="#000000">NormalBox1 </text>
</g>
<!-- FormCreatorModule&#45;&gt;NormalBox1  -->
<g id="edge46" class="edge">
<title>FormCreatorModule&#45;&gt;NormalBox1 </title>
<path fill="none" stroke="#000000" stroke-dasharray="5,2" d="M6137.0145,-109C6279.8866,-109 6605,-109 6605,-109 6605,-109 6605,-143.7778 6605,-143.7778"/>
<polygon fill="#000000" stroke="#000000" points="6601.5001,-143.7778 6605,-153.7778 6608.5001,-143.7778 6601.5001,-143.7778"/>
</g>
<!-- NormalBox2  -->
<g id="node48" class="node">
<title>NormalBox2 </title>
<polygon fill="#fb8072" stroke="#000000" points="6540.1005,-190 6447.8995,-190 6447.8995,-154 6540.1005,-154 6540.1005,-190"/>
<text text-anchor="middle" x="6494" y="-167.8" font-family="Times,serif" font-size="14.00" fill="#000000">NormalBox2 </text>
</g>
<!-- FormCreatorModule&#45;&gt;NormalBox2  -->
<g id="edge47" class="edge">
<title>FormCreatorModule&#45;&gt;NormalBox2 </title>
<path fill="none" stroke="#000000" stroke-dasharray="5,2" d="M6137.0938,-113C6256.0625,-113 6494,-113 6494,-113 6494,-113 6494,-143.9775 6494,-143.9775"/>
<polygon fill="#000000" stroke="#000000" points="6490.5001,-143.9774 6494,-153.9775 6497.5001,-143.9775 6490.5001,-143.9774"/>
</g>
<!-- ScratchPadUpdate  -->
<g id="node49" class="node">
<title>ScratchPadUpdate </title>
<polygon fill="#fb8072" stroke="#000000" points="6429.4012,-190 6306.5988,-190 6306.5988,-154 6429.4012,-154 6429.4012,-190"/>
<text text-anchor="middle" x="6368" y="-167.8" font-family="Times,serif" font-size="14.00" fill="#000000">ScratchPadUpdate </text>
</g>
<!-- FormCreatorModule&#45;&gt;ScratchPadUpdate  -->
<g id="edge48" class="edge">
<title>FormCreatorModule&#45;&gt;ScratchPadUpdate </title>
<path fill="none" stroke="#000000" stroke-dasharray="5,2" d="M6136.9139,-116C6224.4125,-116 6368,-116 6368,-116 6368,-116 6368,-143.973 6368,-143.973"/>
<polygon fill="#000000" stroke="#000000" points="6364.5001,-143.973 6368,-153.973 6371.5001,-143.973 6364.5001,-143.973"/>
</g>
<!-- SelectListSingle  -->
<g id="node50" class="node">
<title>SelectListSingle </title>
<polygon fill="#fb8072" stroke="#000000" points="6288.7647,-190 6177.2353,-190 6177.2353,-154 6288.7647,-154 6288.7647,-190"/>
<text text-anchor="middle" x="6233" y="-167.8" font-family="Times,serif" font-size="14.00" fill="#000000">SelectListSingle </text>
</g>
<!-- FormCreatorModule&#45;&gt;SelectListSingle  -->
<g id="edge49" class="edge">
<title>FormCreatorModule&#45;&gt;SelectListSingle </title>
<path fill="none" stroke="#000000" stroke-dasharray="5,2" d="M6136.8916,-119C6181.7422,-119 6233,-119 6233,-119 6233,-119 6233,-143.7604 6233,-143.7604"/>
<polygon fill="#000000" stroke="#000000" points="6229.5001,-143.7604 6233,-153.7604 6236.5001,-143.7604 6229.5001,-143.7604"/>
</g>
<!-- AssociationService -->
<g id="node28" class="node">
<title>AssociationService</title>
<ellipse fill="#fdb462" stroke="#000000" cx="2108" cy="-104" rx="85.6686" ry="18"/>
<text text-anchor="middle" x="2108" y="-99.8" font-family="Times,serif" font-size="14.00" fill="#000000">AssociationService</text>
</g>
<!-- AssociationService&#45;&gt;AppModule -->
<g id="edge27" class="edge">
<title>AssociationService&#45;&gt;AppModule</title>
<path fill="none" stroke="#000000" d="M2108,-122.2667C2108,-140.5552 2108,-166 2108,-166 2108,-166 3087.3066,-166 3087.3066,-166"/>
<polygon fill="#000000" stroke="#000000" points="3087.3067,-169.5001 3097.3066,-166 3087.3066,-162.5001 3087.3067,-169.5001"/>
</g>
<!-- CarePlanService -->
<g id="node29" class="node">
<title>CarePlanService</title>
<ellipse fill="#fdb462" stroke="#000000" cx="1929" cy="-104" rx="75.2751" ry="18"/>
<text text-anchor="middle" x="1929" y="-99.8" font-family="Times,serif" font-size="14.00" fill="#000000">CarePlanService</text>
</g>
<!-- CarePlanService&#45;&gt;AppModule -->
<g id="edge28" class="edge">
<title>CarePlanService&#45;&gt;AppModule</title>
<path fill="none" stroke="#000000" d="M1929,-122.1686C1929,-141.0898 1929,-168 1929,-168 1929,-168 3086.9977,-168 3086.9977,-168"/>
<polygon fill="#000000" stroke="#000000" points="3086.9977,-171.5001 3096.9977,-168 3086.9976,-164.5001 3086.9977,-171.5001"/>
</g>
<!-- ConditionService -->
<g id="node30" class="node">
<title>ConditionService</title>
<ellipse fill="#fdb462" stroke="#000000" cx="1757" cy="-104" rx="78.7511" ry="18"/>
<text text-anchor="middle" x="1757" y="-99.8" font-family="Times,serif" font-size="14.00" fill="#000000">ConditionService</text>
</g>
<!-- ConditionService&#45;&gt;AppModule -->
<g id="edge29" class="edge">
<title>ConditionService&#45;&gt;AppModule</title>
<path fill="none" stroke="#000000" d="M1757,-122.0348C1757,-141.5762 1757,-170 1757,-170 1757,-170 3087.263,-170 3087.263,-170"/>
<polygon fill="#000000" stroke="#000000" points="3087.263,-173.5001 3097.263,-170 3087.2629,-166.5001 3087.263,-173.5001"/>
</g>
<!-- DoctorService -->
<g id="node31" class="node">
<title>DoctorService</title>
<ellipse fill="#fdb462" stroke="#000000" cx="1594" cy="-104" rx="66.6113" ry="18"/>
<text text-anchor="middle" x="1594" y="-99.8" font-family="Times,serif" font-size="14.00" fill="#000000">DoctorService</text>
</g>
<!-- DoctorService&#45;&gt;AppModule -->
<g id="edge30" class="edge">
<title>DoctorService&#45;&gt;AppModule</title>
<path fill="none" stroke="#000000" d="M1594,-122.2228C1594,-142.3652 1594,-172 1594,-172 1594,-172 3087.2752,-172 3087.2752,-172"/>
<polygon fill="#000000" stroke="#000000" points="3087.2753,-175.5001 3097.2752,-172 3087.2752,-168.5001 3087.2753,-175.5001"/>
</g>
<!-- EncounterService -->
<g id="node32" class="node">
<title>EncounterService</title>
<ellipse fill="#fdb462" stroke="#000000" cx="1430" cy="-104" rx="79.8546" ry="18"/>
<text text-anchor="middle" x="1430" y="-99.8" font-family="Times,serif" font-size="14.00" fill="#000000">EncounterService</text>
</g>
<!-- EncounterService&#45;&gt;AppModule -->
<g id="edge31" class="edge">
<title>EncounterService&#45;&gt;AppModule</title>
<path fill="none" stroke="#000000" d="M1430,-122.1289C1430,-142.5724 1430,-173 1430,-173 1430,-173 3087.1792,-173 3087.1792,-173"/>
<polygon fill="#000000" stroke="#000000" points="3087.1792,-176.5001 3097.1792,-173 3087.1792,-169.5001 3087.1792,-176.5001"/>
</g>
<!-- FhirService -->
<g id="node33" class="node">
<title>FhirService</title>
<ellipse fill="#fdb462" stroke="#000000" cx="1276" cy="-104" rx="56.1744" ry="18"/>
<text text-anchor="middle" x="1276" y="-99.8" font-family="Times,serif" font-size="14.00" fill="#000000">FhirService</text>
</g>
<!-- FhirService&#45;&gt;AppModule -->
<g id="edge32" class="edge">
<title>FhirService&#45;&gt;AppModule</title>
<path fill="none" stroke="#000000" d="M1276,-122.2843C1276,-143.3211 1276,-175 1276,-175 1276,-175 3087.0335,-175 3087.0335,-175"/>
<polygon fill="#000000" stroke="#000000" points="3087.0335,-178.5001 3097.0335,-175 3087.0335,-171.5001 3087.0335,-178.5001"/>
</g>
<!-- HistoricalTrendsService -->
<g id="node34" class="node">
<title>HistoricalTrendsService</title>
<ellipse fill="#fdb462" stroke="#000000" cx="1097" cy="-104" rx="104.7675" ry="18"/>
<text text-anchor="middle" x="1097" y="-99.8" font-family="Times,serif" font-size="14.00" fill="#000000">HistoricalTrendsService</text>
</g>
<!-- HistoricalTrendsService&#45;&gt;AppModule -->
<g id="edge33" class="edge">
<title>HistoricalTrendsService&#45;&gt;AppModule</title>
<path fill="none" stroke="#000000" d="M1097,-122.0449C1097,-143.6623 1097,-177 1097,-177 1097,-177 3087.285,-177 3087.285,-177"/>
<polygon fill="#000000" stroke="#000000" points="3087.285,-180.5001 3097.285,-177 3087.2849,-173.5001 3087.285,-180.5001"/>
</g>
<!-- MapService -->
<g id="node35" class="node">
<title>MapService</title>
<ellipse fill="#fdb462" stroke="#000000" cx="916" cy="-104" rx="57.8829" ry="18"/>
<text text-anchor="middle" x="916" y="-99.8" font-family="Times,serif" font-size="14.00" fill="#000000">MapService</text>
</g>
<!-- MapService&#45;&gt;AppModule -->
<g id="edge34" class="edge">
<title>MapService&#45;&gt;AppModule</title>
<path fill="none" stroke="#000000" d="M916,-122.1554C916,-144.3519 916,-179 916,-179 916,-179 3087.0667,-179 3087.0667,-179"/>
<polygon fill="#000000" stroke="#000000" points="3087.0668,-182.5001 3097.0667,-179 3087.0667,-175.5001 3087.0668,-182.5001"/>
</g>
<!-- ObservationService -->
<g id="node36" class="node">
<title>ObservationService</title>
<ellipse fill="#fdb462" stroke="#000000" cx="753" cy="-104" rx="87.377" ry="18"/>
<text text-anchor="middle" x="753" y="-99.8" font-family="Times,serif" font-size="14.00" fill="#000000">ObservationService</text>
</g>
<!-- ObservationService&#45;&gt;AppModule -->
<g id="edge35" class="edge">
<title>ObservationService&#45;&gt;AppModule</title>
<path fill="none" stroke="#000000" d="M753,-122.2479C753,-145.0179 753,-181 753,-181 753,-181 3087.3344,-181 3087.3344,-181"/>
<polygon fill="#000000" stroke="#000000" points="3087.3345,-184.5001 3097.3344,-181 3087.3344,-177.5001 3087.3345,-184.5001"/>
</g>
<!-- PatientService -->
<g id="node37" class="node">
<title>PatientService</title>
<ellipse fill="#fdb462" stroke="#000000" cx="581" cy="-104" rx="66.6267" ry="18"/>
<text text-anchor="middle" x="581" y="-99.8" font-family="Times,serif" font-size="14.00" fill="#000000">PatientService</text>
</g>
<!-- PatientService&#45;&gt;AppModule -->
<g id="edge36" class="edge">
<title>PatientService&#45;&gt;AppModule</title>
<path fill="none" stroke="#000000" d="M581,-122.3228C581,-145.6602 581,-183 581,-183 581,-183 3087.2611,-183 3087.2611,-183"/>
<polygon fill="#000000" stroke="#000000" points="3087.2612,-186.5001 3097.2611,-183 3087.2611,-179.5001 3087.2612,-186.5001"/>
</g>
<!-- ScratchPadService -->
<g id="node38" class="node">
<title>ScratchPadService</title>
<ellipse fill="#fdb462" stroke="#000000" cx="413" cy="-104" rx="83.3616" ry="18"/>
<text text-anchor="middle" x="413" y="-99.8" font-family="Times,serif" font-size="14.00" fill="#000000">ScratchPadService</text>
</g>
<!-- ScratchPadService&#45;&gt;AppModule -->
<g id="edge37" class="edge">
<title>ScratchPadService&#45;&gt;AppModule</title>
<path fill="none" stroke="#000000" d="M413,-122.3802C413,-146.2785 413,-185 413,-185 413,-185 3087.2719,-185 3087.2719,-185"/>
<polygon fill="#000000" stroke="#000000" points="3087.2719,-188.5001 3097.2719,-185 3087.2719,-181.5001 3087.2719,-188.5001"/>
</g>
<!-- SmartService -->
<g id="node39" class="node">
<title>SmartService</title>
<ellipse fill="#fdb462" stroke="#000000" cx="249" cy="-104" rx="63.1151" ry="18"/>
<text text-anchor="middle" x="249" y="-99.8" font-family="Times,serif" font-size="14.00" fill="#000000">SmartService</text>
</g>
<!-- SmartService&#45;&gt;AppModule -->
<g id="edge38" class="edge">
<title>SmartService&#45;&gt;AppModule</title>
<path fill="none" stroke="#000000" d="M249,-122.0098C249,-146.4207 249,-187 249,-187 249,-187 3087.3119,-187 3087.3119,-187"/>
<polygon fill="#000000" stroke="#000000" points="3087.3119,-190.5001 3097.3119,-187 3087.3118,-183.5001 3087.3119,-190.5001"/>
</g>
<!-- ToolBarService -->
<g id="node40" class="node">
<title>ToolBarService</title>
<ellipse fill="#fdb462" stroke="#000000" cx="96" cy="-104" rx="72.3477" ry="18"/>
<text text-anchor="middle" x="96" y="-99.8" font-family="Times,serif" font-size="14.00" fill="#000000">ToolBarService</text>
</g>
<!-- ToolBarService&#45;&gt;AppModule -->
<g id="edge39" class="edge">
<title>ToolBarService&#45;&gt;AppModule</title>
<path fill="none" stroke="#000000" d="M96,-122.0263C96,-146.9773 96,-189 96,-189 96,-189 3087.1412,-189 3087.1412,-189"/>
<polygon fill="#000000" stroke="#000000" points="3087.1413,-192.5001 3097.1412,-189 3087.1412,-185.5001 3087.1413,-192.5001"/>
</g>
<!-- CheckboxInline -->
<g id="node41" class="node">
<title>CheckboxInline</title>
<polygon fill="#ffffb3" stroke="#000000" points="7384.923,-190 7279.077,-190 7279.077,-154 7384.923,-154 7384.923,-190"/>
<text text-anchor="middle" x="7332" y="-167.8" font-family="Times,serif" font-size="14.00" fill="#000000">CheckboxInline</text>
</g>
<!-- CheckboxInline&#45;&gt;FormCreatorModule -->
<g id="edge40" class="edge">
<title>CheckboxInline&#45;&gt;FormCreatorModule</title>
<path fill="none" stroke="#000000" d="M7332,-153.8015C7332,-129.6437 7332,-90 7332,-90 7332,-90 6147.0214,-90 6147.0214,-90"/>
<polygon fill="#000000" stroke="#000000" points="6147.0214,-86.5001 6137.0214,-90 6147.0214,-93.5001 6147.0214,-86.5001"/>
</g>
<!-- NormalBox1 -->
<g id="node42" class="node">
<title>NormalBox1</title>
<polygon fill="#ffffb3" stroke="#000000" points="7261.5997,-190 7172.4003,-190 7172.4003,-154 7261.5997,-154 7261.5997,-190"/>
<text text-anchor="middle" x="7217" y="-167.8" font-family="Times,serif" font-size="14.00" fill="#000000">NormalBox1</text>
</g>
<!-- NormalBox1&#45;&gt;FormCreatorModule -->
<g id="edge41" class="edge">
<title>NormalBox1&#45;&gt;FormCreatorModule</title>
<path fill="none" stroke="#000000" d="M7217,-153.6772C7217,-130.3398 7217,-93 7217,-93 7217,-93 6147.148,-93 6147.148,-93"/>
<polygon fill="#000000" stroke="#000000" points="6147.1481,-89.5001 6137.148,-93 6147.148,-96.5001 6147.1481,-89.5001"/>
</g>
<!-- NormalBox2 -->
<g id="node43" class="node">
<title>NormalBox2</title>
<polygon fill="#ffffb3" stroke="#000000" points="7154.5997,-190 7065.4003,-190 7065.4003,-154 7154.5997,-154 7154.5997,-190"/>
<text text-anchor="middle" x="7110" y="-167.8" font-family="Times,serif" font-size="14.00" fill="#000000">NormalBox2</text>
</g>
<!-- NormalBox2&#45;&gt;FormCreatorModule -->
<g id="edge42" class="edge">
<title>NormalBox2&#45;&gt;FormCreatorModule</title>
<path fill="none" stroke="#000000" d="M7110,-153.9891C7110,-131.5148 7110,-96 7110,-96 7110,-96 6147.178,-96 6147.178,-96"/>
<polygon fill="#000000" stroke="#000000" points="6147.178,-92.5001 6137.178,-96 6147.178,-99.5001 6147.178,-92.5001"/>
</g>
<!-- ScratchPadUpdate -->
<g id="node44" class="node">
<title>ScratchPadUpdate</title>
<polygon fill="#ffffb3" stroke="#000000" points="7047.9019,-190 6928.0981,-190 6928.0981,-154 7047.9019,-154 7047.9019,-190"/>
<text text-anchor="middle" x="6988" y="-167.8" font-family="Times,serif" font-size="14.00" fill="#000000">ScratchPadUpdate</text>
</g>
<!-- ScratchPadUpdate&#45;&gt;FormCreatorModule -->
<g id="edge43" class="edge">
<title>ScratchPadUpdate&#45;&gt;FormCreatorModule</title>
<path fill="none" stroke="#000000" d="M6988,-153.8314C6988,-132.502 6988,-100 6988,-100 6988,-100 6146.9484,-100 6146.9484,-100"/>
<polygon fill="#000000" stroke="#000000" points="6146.9484,-96.5001 6136.9484,-100 6146.9483,-103.5001 6146.9484,-96.5001"/>
</g>
<!-- SelectListSingle -->
<g id="node45" class="node">
<title>SelectListSingle</title>
<polygon fill="#ffffb3" stroke="#000000" points="6909.7647,-190 6802.2353,-190 6802.2353,-154 6909.7647,-154 6909.7647,-190"/>
<text text-anchor="middle" x="6856" y="-167.8" font-family="Times,serif" font-size="14.00" fill="#000000">SelectListSingle</text>
</g>
<!-- SelectListSingle&#45;&gt;FormCreatorModule -->
<g id="edge44" class="edge">
<title>SelectListSingle&#45;&gt;FormCreatorModule</title>
<path fill="none" stroke="#000000" d="M6856,-153.8711C6856,-133.4276 6856,-103 6856,-103 6856,-103 6146.9149,-103 6146.9149,-103"/>
<polygon fill="#000000" stroke="#000000" points="6146.915,-99.5001 6136.9149,-103 6146.9149,-106.5001 6146.915,-99.5001"/>
</g>
</g>
</svg>
