<?xml version="1.0" encoding="UTF-8" standalone="no"?>
<!DOCTYPE svg PUBLIC "-//W3C//DTD SVG 1.1//EN"
 "http://www.w3.org/Graphics/SVG/1.1/DTD/svg11.dtd">
<!-- Generated by graphviz version 2.40.1 (20161225.0304)
 -->
<!-- Title: dependencies Pages: 1 -->
<svg width="7881pt" height="290pt"
 viewBox="0.00 0.00 7881.00 290.00" xmlns="http://www.w3.org/2000/svg" xmlns:xlink="http://www.w3.org/1999/xlink">
<g id="graph0" class="graph" transform="scale(1 1) rotate(0) translate(4 286)">
<title>dependencies</title>
<polygon fill="#ffffff" stroke="transparent" points="-4,4 -4,-286 7877,-286 7877,4 -4,4"/>
<text text-anchor="start" x="3915.5091" y="-42.4" font-family="sans-serif" font-weight="bold" font-size="14.00" fill="#000000">Legend</text>
<polygon fill="#ffffb3" stroke="transparent" points="3702.5,-10 3702.5,-30 3722.5,-30 3722.5,-10 3702.5,-10"/>
<text text-anchor="start" x="3726.129" y="-15.4" font-family="sans-serif" font-size="14.00" fill="#000000"> &#160;Declarations</text>
<polygon fill="#8dd3c7" stroke="transparent" points="3815.5,-10 3815.5,-30 3835.5,-30 3835.5,-10 3815.5,-10"/>
<text text-anchor="start" x="3839.2251" y="-15.4" font-family="sans-serif" font-size="14.00" fill="#000000"> &#160;Module</text>
<polygon fill="#80b1d3" stroke="transparent" points="3901.5,-10 3901.5,-30 3921.5,-30 3921.5,-10 3901.5,-10"/>
<text text-anchor="start" x="3925.2812" y="-15.4" font-family="sans-serif" font-size="14.00" fill="#000000"> &#160;Bootstrap</text>
<polygon fill="#fdb462" stroke="transparent" points="3998.5,-10 3998.5,-30 4018.5,-30 4018.5,-10 3998.5,-10"/>
<text text-anchor="start" x="4022.1732" y="-15.4" font-family="sans-serif" font-size="14.00" fill="#000000"> &#160;Providers</text>
<polygon fill="#fb8072" stroke="transparent" points="4094.5,-10 4094.5,-30 4114.5,-30 4114.5,-10 4094.5,-10"/>
<text text-anchor="start" x="4118.2258" y="-15.4" font-family="sans-serif" font-size="14.00" fill="#000000"> &#160;Exports</text>
<g id="clust1" class="cluster">
<title>cluster_AppModule</title>
<polygon fill="none" stroke="#000000" stroke-dasharray="1,5" points="8,-70 8,-274 6617,-274 6617,-70 8,-70"/>
</g>
<g id="clust2" class="cluster">
<title>cluster_AppModule_declarations</title>
<polygon fill="none" stroke="#000000" points="2210,-78 2210,-130 6453,-130 6453,-78 2210,-78"/>
</g>
<g id="clust30" class="cluster">
<title>cluster_AppModule_imports</title>
<polygon fill="none" stroke="#000000" points="6461,-78 6461,-130 6609,-130 6609,-78 6461,-78"/>
</g>
<g id="clust32" class="cluster">
<title>cluster_AppModule_bootstrap</title>
<polygon fill="none" stroke="#000000" points="3339,-214 3339,-266 3463,-266 3463,-214 3339,-214"/>
</g>
<g id="clust33" class="cluster">
<title>cluster_AppModule_providers</title>
<polygon fill="none" stroke="#000000" points="16,-78 16,-130 2202,-130 2202,-78 16,-78"/>
</g>
<g id="clust34" class="cluster">
<title>cluster_FormCreatorModule</title>
<polygon fill="none" stroke="#000000" stroke-dasharray="1,5" points="6625,-138 6625,-206 7865,-206 7865,-138 6625,-138"/>
</g>
<g id="clust35" class="cluster">
<title>cluster_FormCreatorModule_declarations</title>
<polygon fill="none" stroke="#000000" points="7258,-146 7258,-198 7857,-198 7857,-146 7258,-146"/>
</g>
<g id="clust42" class="cluster">
<title>cluster_FormCreatorModule_exports</title>
<polygon fill="none" stroke="#000000" points="6633,-146 6633,-198 7250,-198 7250,-146 6633,-146"/>
</g>
<!-- AccordionRecursion -->
<g id="node1" class="node">
<title>AccordionRecursion</title>
<polygon fill="#ffffb3" stroke="#000000" points="6444.8487,-122 6313.1513,-122 6313.1513,-86 6444.8487,-86 6444.8487,-122"/>
<text text-anchor="middle" x="6379" y="-99.8" font-family="Times,serif" font-size="14.00" fill="#000000">AccordionRecursion</text>
</g>
<!-- AppModule -->
<g id="node28" class="node">
<title>AppModule</title>
<polygon fill="#8dd3c7" stroke="#000000" points="3442.6571,-190 3439.6571,-194 3418.6571,-194 3415.6571,-190 3359.3429,-190 3359.3429,-154 3442.6571,-154 3442.6571,-190"/>
<text text-anchor="middle" x="3401" y="-167.8" font-family="Times,serif" font-size="14.00" fill="#000000">AppModule</text>
</g>
<!-- AccordionRecursion&#45;&gt;AppModule -->
<g id="edge1" class="edge">
<title>AccordionRecursion&#45;&gt;AppModule</title>
<path fill="none" stroke="#000000" d="M6379,-122.0098C6379,-146.4207 6379,-187 6379,-187 6379,-187 3452.8132,-187 3452.8132,-187"/>
<polygon fill="#000000" stroke="#000000" points="3452.8133,-183.5001 3442.8132,-187 3452.8132,-190.5001 3452.8133,-183.5001"/>
</g>
<!-- AccountComponent -->
<g id="node2" class="node">
<title>AccountComponent</title>
<polygon fill="#ffffb3" stroke="#000000" points="6295.259,-122 6166.741,-122 6166.741,-86 6295.259,-86 6295.259,-122"/>
<text text-anchor="middle" x="6231" y="-99.8" font-family="Times,serif" font-size="14.00" fill="#000000">AccountComponent</text>
</g>
<!-- AccountComponent&#45;&gt;AppModule -->
<g id="edge2" class="edge">
<title>AccountComponent&#45;&gt;AppModule</title>
<path fill="none" stroke="#000000" d="M6231,-122.3802C6231,-146.2785 6231,-185 6231,-185 6231,-185 3452.924,-185 3452.924,-185"/>
<polygon fill="#000000" stroke="#000000" points="3452.924,-181.5001 3442.924,-185 3452.9239,-188.5001 3452.924,-181.5001"/>
</g>
<!-- AppComponent -->
<g id="node3" class="node">
<title>AppComponent</title>
<polygon fill="#ffffb3" stroke="#000000" points="6148.9399,-122 6043.0601,-122 6043.0601,-86 6148.9399,-86 6148.9399,-122"/>
<text text-anchor="middle" x="6096" y="-99.8" font-family="Times,serif" font-size="14.00" fill="#000000">AppComponent</text>
</g>
<!-- AppComponent&#45;&gt;AppModule -->
<g id="edge3" class="edge">
<title>AppComponent&#45;&gt;AppModule</title>
<path fill="none" stroke="#000000" d="M6096,-122.1532C6096,-145.7566 6096,-184 6096,-184 6096,-184 3452.7912,-184 3452.7912,-184"/>
<polygon fill="#000000" stroke="#000000" points="3452.7912,-180.5001 3442.7912,-184 3452.7911,-187.5001 3452.7912,-180.5001"/>
</g>
<!-- CarePlanDisplay -->
<g id="node4" class="node">
<title>CarePlanDisplay</title>
<polygon fill="#ffffb3" stroke="#000000" points="6025.3613,-122 5914.6387,-122 5914.6387,-86 6025.3613,-86 6025.3613,-122"/>
<text text-anchor="middle" x="5970" y="-99.8" font-family="Times,serif" font-size="14.00" fill="#000000">CarePlanDisplay</text>
</g>
<!-- CarePlanDisplay&#45;&gt;AppModule -->
<g id="edge4" class="edge">
<title>CarePlanDisplay&#45;&gt;AppModule</title>
<path fill="none" stroke="#000000" d="M5970,-122.0908C5970,-145.1328 5970,-182 5970,-182 5970,-182 3452.9183,-182 3452.9183,-182"/>
<polygon fill="#000000" stroke="#000000" points="3452.9184,-178.5001 3442.9183,-182 3452.9183,-185.5001 3452.9184,-178.5001"/>
</g>
<!-- CarePlansComponent -->
<g id="node5" class="node">
<title>CarePlansComponent</title>
<polygon fill="#ffffb3" stroke="#000000" points="5897.0912,-122 5758.9088,-122 5758.9088,-86 5897.0912,-86 5897.0912,-122"/>
<text text-anchor="middle" x="5828" y="-99.8" font-family="Times,serif" font-size="14.00" fill="#000000">CarePlansComponent</text>
</g>
<!-- CarePlansComponent&#45;&gt;AppModule -->
<g id="edge5" class="edge">
<title>CarePlansComponent&#45;&gt;AppModule</title>
<path fill="none" stroke="#000000" d="M5828,-122.0109C5828,-144.4852 5828,-180 5828,-180 5828,-180 3452.8694,-180 3452.8694,-180"/>
<polygon fill="#000000" stroke="#000000" points="3452.8695,-176.5001 3442.8694,-180 3452.8694,-183.5001 3452.8695,-176.5001"/>
</g>
<!-- ColumnStateSwitcherComponent -->
<g id="node6" class="node">
<title>ColumnStateSwitcherComponent</title>
<polygon fill="#ffffb3" stroke="#000000" points="5741.2035,-122 5536.7965,-122 5536.7965,-86 5741.2035,-86 5741.2035,-122"/>
<text text-anchor="middle" x="5639" y="-99.8" font-family="Times,serif" font-size="14.00" fill="#000000">ColumnStateSwitcherComponent</text>
</g>
<!-- ColumnStateSwitcherComponent&#45;&gt;AppModule -->
<g id="edge6" class="edge">
<title>ColumnStateSwitcherComponent&#45;&gt;AppModule</title>
<path fill="none" stroke="#000000" d="M5639,-122.2921C5639,-144.2057 5639,-178 5639,-178 5639,-178 3452.7265,-178 3452.7265,-178"/>
<polygon fill="#000000" stroke="#000000" points="3452.7265,-174.5001 3442.7265,-178 3452.7265,-181.5001 3452.7265,-174.5001"/>
</g>
<!-- ConditionsChartComponent -->
<g id="node7" class="node">
<title>ConditionsChartComponent</title>
<polygon fill="#ffffb3" stroke="#000000" points="5518.8878,-122 5345.1122,-122 5345.1122,-86 5518.8878,-86 5518.8878,-122"/>
<text text-anchor="middle" x="5432" y="-99.8" font-family="Times,serif" font-size="14.00" fill="#000000">ConditionsChartComponent</text>
</g>
<!-- ConditionsChartComponent&#45;&gt;AppModule -->
<g id="edge7" class="edge">
<title>ConditionsChartComponent&#45;&gt;AppModule</title>
<path fill="none" stroke="#000000" d="M5432,-122.0449C5432,-143.6623 5432,-177 5432,-177 5432,-177 3452.9541,-177 3452.9541,-177"/>
<polygon fill="#000000" stroke="#000000" points="3452.9542,-173.5001 3442.9541,-177 3452.9541,-180.5001 3452.9542,-173.5001"/>
</g>
<!-- ConditionsComponent -->
<g id="node8" class="node">
<title>ConditionsComponent</title>
<polygon fill="#ffffb3" stroke="#000000" points="5327.2856,-122 5184.7144,-122 5184.7144,-86 5327.2856,-86 5327.2856,-122"/>
<text text-anchor="middle" x="5256" y="-99.8" font-family="Times,serif" font-size="14.00" fill="#000000">ConditionsComponent</text>
</g>
<!-- ConditionsComponent&#45;&gt;AppModule -->
<g id="edge8" class="edge">
<title>ConditionsComponent&#45;&gt;AppModule</title>
<path fill="none" stroke="#000000" d="M5256,-122.2843C5256,-143.3211 5256,-175 5256,-175 5256,-175 3452.7863,-175 3452.7863,-175"/>
<polygon fill="#000000" stroke="#000000" points="3452.7863,-171.5001 3442.7863,-175 3452.7863,-178.5001 3452.7863,-171.5001"/>
</g>
<!-- ConditionsDisplay -->
<g id="node9" class="node">
<title>ConditionsDisplay</title>
<polygon fill="#ffffb3" stroke="#000000" points="5166.5,-122 5045.5,-122 5045.5,-86 5166.5,-86 5166.5,-122"/>
<text text-anchor="middle" x="5106" y="-99.8" font-family="Times,serif" font-size="14.00" fill="#000000">ConditionsDisplay</text>
</g>
<!-- ConditionsDisplay&#45;&gt;AppModule -->
<g id="edge9" class="edge">
<title>ConditionsDisplay&#45;&gt;AppModule</title>
<path fill="none" stroke="#000000" d="M5106,-122.1289C5106,-142.5724 5106,-173 5106,-173 5106,-173 3452.7229,-173 3452.7229,-173"/>
<polygon fill="#000000" stroke="#000000" points="3452.7229,-169.5001 3442.7229,-173 3452.7229,-176.5001 3452.7229,-169.5001"/>
</g>
<!-- ContextMenuComponent -->
<g id="node10" class="node">
<title>ContextMenuComponent</title>
<polygon fill="#ffffb3" stroke="#000000" points="5027.3243,-122 4868.6757,-122 4868.6757,-86 5027.3243,-86 5027.3243,-122"/>
<text text-anchor="middle" x="4948" y="-99.8" font-family="Times,serif" font-size="14.00" fill="#000000">ContextMenuComponent</text>
</g>
<!-- ContextMenuComponent&#45;&gt;AppModule -->
<g id="edge10" class="edge">
<title>ContextMenuComponent&#45;&gt;AppModule</title>
<path fill="none" stroke="#000000" d="M4948,-122.2228C4948,-142.3652 4948,-172 4948,-172 4948,-172 3452.7788,-172 3452.7788,-172"/>
<polygon fill="#000000" stroke="#000000" points="3452.7788,-168.5001 3442.7788,-172 3452.7787,-175.5001 3452.7788,-168.5001"/>
</g>
<!-- FormBuilder -->
<g id="node11" class="node">
<title>FormBuilder</title>
<polygon fill="#ffffb3" stroke="#000000" points="4851.3274,-122 4762.6726,-122 4762.6726,-86 4851.3274,-86 4851.3274,-122"/>
<text text-anchor="middle" x="4807" y="-99.8" font-family="Times,serif" font-size="14.00" fill="#000000">FormBuilder</text>
</g>
<!-- FormBuilder&#45;&gt;AppModule -->
<g id="edge11" class="edge">
<title>FormBuilder&#45;&gt;AppModule</title>
<path fill="none" stroke="#000000" d="M4807,-122.0348C4807,-141.5762 4807,-170 4807,-170 4807,-170 3452.6973,-170 3452.6973,-170"/>
<polygon fill="#000000" stroke="#000000" points="3452.6974,-166.5001 3442.6973,-170 3452.6973,-173.5001 3452.6974,-166.5001"/>
</g>
<!-- HistoricalTrendsComponent -->
<g id="node12" class="node">
<title>HistoricalTrendsComponent</title>
<polygon fill="#ffffb3" stroke="#000000" points="4744.9087,-122 4569.0913,-122 4569.0913,-86 4744.9087,-86 4744.9087,-122"/>
<text text-anchor="middle" x="4657" y="-99.8" font-family="Times,serif" font-size="14.00" fill="#000000">HistoricalTrendsComponent</text>
</g>
<!-- HistoricalTrendsComponent&#45;&gt;AppModule -->
<g id="edge12" class="edge">
<title>HistoricalTrendsComponent&#45;&gt;AppModule</title>
<path fill="none" stroke="#000000" d="M4657,-122.1686C4657,-141.0898 4657,-168 4657,-168 4657,-168 3452.7894,-168 3452.7894,-168"/>
<polygon fill="#000000" stroke="#000000" points="3452.7894,-164.5001 3442.7894,-168 3452.7893,-171.5001 3452.7894,-164.5001"/>
</g>
<!-- HomeComponent -->
<g id="node13" class="node">
<title>HomeComponent</title>
<polygon fill="#ffffb3" stroke="#000000" points="4551.5451,-122 4436.4549,-122 4436.4549,-86 4551.5451,-86 4551.5451,-122"/>
<text text-anchor="middle" x="4494" y="-99.8" font-family="Times,serif" font-size="14.00" fill="#000000">HomeComponent</text>
</g>
<!-- HomeComponent&#45;&gt;AppModule -->
<g id="edge13" class="edge">
<title>HomeComponent&#45;&gt;AppModule</title>
<path fill="none" stroke="#000000" d="M4494,-122.2667C4494,-140.5552 4494,-166 4494,-166 4494,-166 3452.8441,-166 3452.8441,-166"/>
<polygon fill="#000000" stroke="#000000" points="3452.8441,-162.5001 3442.8441,-166 3452.8441,-169.5001 3452.8441,-162.5001"/>
</g>
<!-- HoverBoxComponent -->
<g id="node14" class="node">
<title>HoverBoxComponent</title>
<polygon fill="#ffffb3" stroke="#000000" points="4417.6512,-122 4278.3488,-122 4278.3488,-86 4417.6512,-86 4417.6512,-122"/>
<text text-anchor="middle" x="4348" y="-99.8" font-family="Times,serif" font-size="14.00" fill="#000000">HoverBoxComponent</text>
</g>
<!-- HoverBoxComponent&#45;&gt;AppModule -->
<g id="edge14" class="edge">
<title>HoverBoxComponent&#45;&gt;AppModule</title>
<path fill="none" stroke="#000000" d="M4348,-122.302C4348,-140.2699 4348,-165 4348,-165 4348,-165 3452.9133,-165 3452.9133,-165"/>
<polygon fill="#000000" stroke="#000000" points="3452.9134,-161.5001 3442.9133,-165 3452.9133,-168.5001 3452.9134,-161.5001"/>
</g>
<!-- LoadingAnimation -->
<g id="node15" class="node">
<title>LoadingAnimation</title>
<polygon fill="#ffffb3" stroke="#000000" points="4260.0423,-122 4137.9577,-122 4137.9577,-86 4260.0423,-86 4260.0423,-122"/>
<text text-anchor="middle" x="4199" y="-99.8" font-family="Times,serif" font-size="14.00" fill="#000000">LoadingAnimation</text>
</g>
<!-- LoadingAnimation&#45;&gt;AppModule -->
<g id="edge15" class="edge">
<title>LoadingAnimation&#45;&gt;AppModule</title>
<path fill="none" stroke="#000000" d="M4199,-122.0225C4199,-139.3734 4199,-163 4199,-163 4199,-163 3452.7804,-163 3452.7804,-163"/>
<polygon fill="#000000" stroke="#000000" points="3452.7804,-159.5001 3442.7804,-163 3452.7804,-166.5001 3452.7804,-159.5001"/>
</g>
<!-- MedicationsComponent -->
<g id="node16" class="node">
<title>MedicationsComponent</title>
<polygon fill="#ffffb3" stroke="#000000" points="4119.0379,-122 3968.9621,-122 3968.9621,-86 4119.0379,-86 4119.0379,-122"/>
<text text-anchor="middle" x="4044" y="-99.8" font-family="Times,serif" font-size="14.00" fill="#000000">MedicationsComponent</text>
</g>
<!-- MedicationsComponent&#45;&gt;AppModule -->
<g id="edge16" class="edge">
<title>MedicationsComponent&#45;&gt;AppModule</title>
<path fill="none" stroke="#000000" d="M4044,-122.0352C4044,-138.7344 4044,-161 4044,-161 4044,-161 3452.6936,-161 3452.6936,-161"/>
<polygon fill="#000000" stroke="#000000" points="3452.6936,-157.5001 3442.6936,-161 3452.6936,-164.5001 3452.6936,-157.5001"/>
</g>
<!-- NewCondition -->
<g id="node17" class="node">
<title>NewCondition</title>
<polygon fill="#ffffb3" stroke="#000000" points="3951.4372,-122 3852.5628,-122 3852.5628,-86 3951.4372,-86 3951.4372,-122"/>
<text text-anchor="middle" x="3902" y="-99.8" font-family="Times,serif" font-size="14.00" fill="#000000">NewCondition</text>
</g>
<!-- NewCondition&#45;&gt;AppModule -->
<g id="edge17" class="edge">
<title>NewCondition&#45;&gt;AppModule</title>
<path fill="none" stroke="#000000" d="M3902,-122.027C3902,-138.3976 3902,-160 3902,-160 3902,-160 3452.8533,-160 3452.8533,-160"/>
<polygon fill="#000000" stroke="#000000" points="3452.8533,-156.5001 3442.8533,-160 3452.8532,-163.5001 3452.8533,-156.5001"/>
</g>
<!-- NoteNavigationComponent -->
<g id="node18" class="node">
<title>NoteNavigationComponent</title>
<polygon fill="#ffffb3" stroke="#000000" points="3834.252,-122 3663.748,-122 3663.748,-86 3834.252,-86 3834.252,-122"/>
<text text-anchor="middle" x="3749" y="-99.8" font-family="Times,serif" font-size="14.00" fill="#000000">NoteNavigationComponent</text>
</g>
<!-- NoteNavigationComponent&#45;&gt;AppModule -->
<g id="edge18" class="edge">
<title>NoteNavigationComponent&#45;&gt;AppModule</title>
<path fill="none" stroke="#000000" d="M3749,-122.2819C3749,-137.9478 3749,-158 3749,-158 3749,-158 3452.9769,-158 3452.9769,-158"/>
<polygon fill="#000000" stroke="#000000" points="3452.977,-154.5001 3442.9769,-158 3452.9769,-161.5001 3452.977,-154.5001"/>
</g>
<!-- ObservationRecursive -->
<g id="node19" class="node">
<title>ObservationRecursive</title>
<polygon fill="#ffffb3" stroke="#000000" points="3645.399,-122 3504.601,-122 3504.601,-86 3645.399,-86 3645.399,-122"/>
<text text-anchor="middle" x="3575" y="-99.8" font-family="Times,serif" font-size="14.00" fill="#000000">ObservationRecursive</text>
</g>
<!-- ObservationRecursive&#45;&gt;AppModule -->
<g id="edge19" class="edge">
<title>ObservationRecursive&#45;&gt;AppModule</title>
<path fill="none" stroke="#000000" d="M3575,-122.1871C3575,-137.1824 3575,-156 3575,-156 3575,-156 3452.6773,-156 3452.6773,-156"/>
<polygon fill="#000000" stroke="#000000" points="3452.6774,-152.5001 3442.6773,-156 3452.6773,-159.5001 3452.6774,-152.5001"/>
</g>
<!-- ObservationRecursiveChart -->
<g id="node20" class="node">
<title>ObservationRecursiveChart</title>
<polygon fill="#ffffb3" stroke="#000000" points="3486.5015,-122 3315.4985,-122 3315.4985,-86 3486.5015,-86 3486.5015,-122"/>
<text text-anchor="middle" x="3401" y="-99.8" font-family="Times,serif" font-size="14.00" fill="#000000">ObservationRecursiveChart</text>
</g>
<!-- ObservationRecursiveChart&#45;&gt;AppModule -->
<g id="edge20" class="edge">
<title>ObservationRecursiveChart&#45;&gt;AppModule</title>
<path fill="none" stroke="#000000" d="M3401,-122.2228C3401,-122.2228 3401,-143.7269 3401,-143.7269"/>
<polygon fill="#000000" stroke="#000000" points="3397.5001,-143.7269 3401,-153.7269 3404.5001,-143.727 3397.5001,-143.7269"/>
</g>
<!-- ObservationsComponent -->
<g id="node21" class="node">
<title>ObservationsComponent</title>
<polygon fill="#ffffb3" stroke="#000000" points="3297.6993,-122 3142.3007,-122 3142.3007,-86 3297.6993,-86 3297.6993,-122"/>
<text text-anchor="middle" x="3220" y="-99.8" font-family="Times,serif" font-size="14.00" fill="#000000">ObservationsComponent</text>
</g>
<!-- ObservationsComponent&#45;&gt;AppModule -->
<g id="edge21" class="edge">
<title>ObservationsComponent&#45;&gt;AppModule</title>
<path fill="none" stroke="#000000" d="M3220,-122.1871C3220,-137.1824 3220,-156 3220,-156 3220,-156 3349.02,-156 3349.02,-156"/>
<polygon fill="#000000" stroke="#000000" points="3349.0201,-159.5001 3359.02,-156 3349.02,-152.5001 3349.0201,-159.5001"/>
</g>
<!-- ObservationsDisplay -->
<g id="node22" class="node">
<title>ObservationsDisplay</title>
<polygon fill="#ffffb3" stroke="#000000" points="3124.9144,-122 2991.0856,-122 2991.0856,-86 3124.9144,-86 3124.9144,-122"/>
<text text-anchor="middle" x="3058" y="-99.8" font-family="Times,serif" font-size="14.00" fill="#000000">ObservationsDisplay</text>
</g>
<!-- ObservationsDisplay&#45;&gt;AppModule -->
<g id="edge22" class="edge">
<title>ObservationsDisplay&#45;&gt;AppModule</title>
<path fill="none" stroke="#000000" d="M3058,-122.2819C3058,-137.9478 3058,-158 3058,-158 3058,-158 3349.2844,-158 3349.2844,-158"/>
<polygon fill="#000000" stroke="#000000" points="3349.2844,-161.5001 3359.2844,-158 3349.2843,-154.5001 3349.2844,-161.5001"/>
</g>
<!-- PatientComponent -->
<g id="node23" class="node">
<title>PatientComponent</title>
<polygon fill="#ffffb3" stroke="#000000" points="2973.2162,-122 2852.7838,-122 2852.7838,-86 2973.2162,-86 2973.2162,-122"/>
<text text-anchor="middle" x="2913" y="-99.8" font-family="Times,serif" font-size="14.00" fill="#000000">PatientComponent</text>
</g>
<!-- PatientComponent&#45;&gt;AppModule -->
<g id="edge23" class="edge">
<title>PatientComponent&#45;&gt;AppModule</title>
<path fill="none" stroke="#000000" d="M2913,-122.027C2913,-138.3976 2913,-160 2913,-160 2913,-160 3348.971,-160 3348.971,-160"/>
<polygon fill="#000000" stroke="#000000" points="3348.9711,-163.5001 3358.971,-160 3348.971,-156.5001 3348.9711,-163.5001"/>
</g>
<!-- TimelineComponent -->
<g id="node24" class="node">
<title>TimelineComponent</title>
<polygon fill="#ffffb3" stroke="#000000" points="2834.8767,-122 2703.1233,-122 2703.1233,-86 2834.8767,-86 2834.8767,-122"/>
<text text-anchor="middle" x="2769" y="-99.8" font-family="Times,serif" font-size="14.00" fill="#000000">TimelineComponent</text>
</g>
<!-- TimelineComponent&#45;&gt;AppModule -->
<g id="edge24" class="edge">
<title>TimelineComponent&#45;&gt;AppModule</title>
<path fill="none" stroke="#000000" d="M2769,-122.0352C2769,-138.7344 2769,-161 2769,-161 2769,-161 3349.0433,-161 3349.0433,-161"/>
<polygon fill="#000000" stroke="#000000" points="3349.0433,-164.5001 3359.0433,-161 3349.0432,-157.5001 3349.0433,-164.5001"/>
</g>
<!-- TimelinePopupComponent -->
<g id="node25" class="node">
<title>TimelinePopupComponent</title>
<polygon fill="#ffffb3" stroke="#000000" points="2684.6595,-122 2517.3405,-122 2517.3405,-86 2684.6595,-86 2684.6595,-122"/>
<text text-anchor="middle" x="2601" y="-99.8" font-family="Times,serif" font-size="14.00" fill="#000000">TimelinePopupComponent</text>
</g>
<!-- TimelinePopupComponent&#45;&gt;AppModule -->
<g id="edge25" class="edge">
<title>TimelinePopupComponent&#45;&gt;AppModule</title>
<path fill="none" stroke="#000000" d="M2601,-122.0225C2601,-139.3734 2601,-163 2601,-163 2601,-163 3349.1149,-163 3349.1149,-163"/>
<polygon fill="#000000" stroke="#000000" points="3349.1149,-166.5001 3359.1149,-163 3349.1149,-159.5001 3349.1149,-166.5001"/>
</g>
<!-- ToolbarComponent -->
<g id="node26" class="node">
<title>ToolbarComponent</title>
<polygon fill="#ffffb3" stroke="#000000" points="2498.6513,-122 2373.3487,-122 2373.3487,-86 2498.6513,-86 2498.6513,-122"/>
<text text-anchor="middle" x="2436" y="-99.8" font-family="Times,serif" font-size="14.00" fill="#000000">ToolbarComponent</text>
</g>
<!-- ToolbarComponent&#45;&gt;AppModule -->
<g id="edge26" class="edge">
<title>ToolbarComponent&#45;&gt;AppModule</title>
<path fill="none" stroke="#000000" d="M2436,-122.302C2436,-140.2699 2436,-165 2436,-165 2436,-165 3349.2254,-165 3349.2254,-165"/>
<polygon fill="#000000" stroke="#000000" points="3349.2255,-168.5001 3359.2254,-165 3349.2254,-161.5001 3349.2255,-168.5001"/>
</g>
<!-- TripleListComponent -->
<g id="node27" class="node">
<title>TripleListComponent</title>
<polygon fill="#ffffb3" stroke="#000000" points="2355.8202,-122 2218.1798,-122 2218.1798,-86 2355.8202,-86 2355.8202,-122"/>
<text text-anchor="middle" x="2287" y="-99.8" font-family="Times,serif" font-size="14.00" fill="#000000">TripleListComponent</text>
</g>
<!-- TripleListComponent&#45;&gt;AppModule -->
<g id="edge27" class="edge">
<title>TripleListComponent&#45;&gt;AppModule</title>
<path fill="none" stroke="#000000" d="M2287,-122.2667C2287,-140.5552 2287,-166 2287,-166 2287,-166 3349.0272,-166 3349.0272,-166"/>
<polygon fill="#000000" stroke="#000000" points="3349.0273,-169.5001 3359.0272,-166 3349.0272,-162.5001 3349.0273,-169.5001"/>
</g>
<!-- AppComponent  -->
<g id="node30" class="node">
<title>AppComponent </title>
<polygon fill="#80b1d3" stroke="#000000" points="3455.439,-258 3346.561,-258 3346.561,-222 3455.439,-222 3455.439,-258"/>
<text text-anchor="middle" x="3401" y="-235.8" font-family="Times,serif" font-size="14.00" fill="#000000">AppComponent </text>
</g>
<!-- AppModule&#45;&gt;AppComponent  -->
<g id="edge29" class="edge">
<title>AppModule&#45;&gt;AppComponent </title>
<path fill="none" stroke="#000000" stroke-dasharray="1,5" d="M3401,-190.2228C3401,-190.2228 3401,-211.7269 3401,-211.7269"/>
<polygon fill="#000000" stroke="#000000" points="3397.5001,-211.7269 3401,-221.7269 3404.5001,-211.727 3397.5001,-211.7269"/>
</g>
<!-- FormCreatorModule -->
<g id="node29" class="node">
<title>FormCreatorModule</title>
<polygon fill="#8dd3c7" stroke="#000000" points="6600.8613,-122 6597.8613,-126 6576.8613,-126 6573.8613,-122 6469.1387,-122 6469.1387,-86 6600.8613,-86 6600.8613,-122"/>
<text text-anchor="middle" x="6535" y="-99.8" font-family="Times,serif" font-size="14.00" fill="#000000">FormCreatorModule</text>
</g>
<!-- FormCreatorModule&#45;&gt;AppModule -->
<g id="edge28" class="edge">
<title>FormCreatorModule&#45;&gt;AppModule</title>
<path fill="none" stroke="#000000" d="M6535,-122.0263C6535,-146.9773 6535,-189 6535,-189 6535,-189 3452.9333,-189 3452.9333,-189"/>
<polygon fill="#000000" stroke="#000000" points="3452.9333,-185.5001 3442.9333,-189 3452.9333,-192.5001 3452.9333,-185.5001"/>
</g>
<!-- CheckboxInline  -->
<g id="node49" class="node">
<title>CheckboxInline </title>
<polygon fill="#fb8072" stroke="#000000" points="7242.4222,-190 7133.5778,-190 7133.5778,-154 7242.4222,-154 7242.4222,-190"/>
<text text-anchor="middle" x="7188" y="-167.8" font-family="Times,serif" font-size="14.00" fill="#000000">CheckboxInline </text>
</g>
<!-- FormCreatorModule&#45;&gt;CheckboxInline  -->
<g id="edge48" class="edge">
<title>FormCreatorModule&#45;&gt;CheckboxInline </title>
<path fill="none" stroke="#000000" stroke-dasharray="5,2" d="M6600.904,-106C6766.7062,-106 7188,-106 7188,-106 7188,-106 7188,-143.9652 7188,-143.9652"/>
<polygon fill="#000000" stroke="#000000" points="7184.5001,-143.9652 7188,-153.9652 7191.5001,-143.9652 7184.5001,-143.9652"/>
</g>
<!-- NormalBox1  -->
<g id="node50" class="node">
<title>NormalBox1 </title>
<polygon fill="#fb8072" stroke="#000000" points="7115.1005,-190 7022.8995,-190 7022.8995,-154 7115.1005,-154 7115.1005,-190"/>
<text text-anchor="middle" x="7069" y="-167.8" font-family="Times,serif" font-size="14.00" fill="#000000">NormalBox1 </text>
</g>
<!-- FormCreatorModule&#45;&gt;NormalBox1  -->
<g id="edge49" class="edge">
<title>FormCreatorModule&#45;&gt;NormalBox1 </title>
<path fill="none" stroke="#000000" stroke-dasharray="5,2" d="M6601.0145,-109C6743.8866,-109 7069,-109 7069,-109 7069,-109 7069,-143.7778 7069,-143.7778"/>
<polygon fill="#000000" stroke="#000000" points="7065.5001,-143.7778 7069,-153.7778 7072.5001,-143.7778 7065.5001,-143.7778"/>
</g>
<!-- NormalBox2  -->
<g id="node51" class="node">
<title>NormalBox2 </title>
<polygon fill="#fb8072" stroke="#000000" points="7004.1005,-190 6911.8995,-190 6911.8995,-154 7004.1005,-154 7004.1005,-190"/>
<text text-anchor="middle" x="6958" y="-167.8" font-family="Times,serif" font-size="14.00" fill="#000000">NormalBox2 </text>
</g>
<!-- FormCreatorModule&#45;&gt;NormalBox2  -->
<g id="edge50" class="edge">
<title>FormCreatorModule&#45;&gt;NormalBox2 </title>
<path fill="none" stroke="#000000" stroke-dasharray="5,2" d="M6601.0938,-113C6720.0625,-113 6958,-113 6958,-113 6958,-113 6958,-143.9775 6958,-143.9775"/>
<polygon fill="#000000" stroke="#000000" points="6954.5001,-143.9774 6958,-153.9775 6961.5001,-143.9775 6954.5001,-143.9774"/>
</g>
<!-- ScratchPadUpdate  -->
<g id="node52" class="node">
<title>ScratchPadUpdate </title>
<polygon fill="#fb8072" stroke="#000000" points="6893.4012,-190 6770.5988,-190 6770.5988,-154 6893.4012,-154 6893.4012,-190"/>
<text text-anchor="middle" x="6832" y="-167.8" font-family="Times,serif" font-size="14.00" fill="#000000">ScratchPadUpdate </text>
</g>
<!-- FormCreatorModule&#45;&gt;ScratchPadUpdate  -->
<g id="edge51" class="edge">
<title>FormCreatorModule&#45;&gt;ScratchPadUpdate </title>
<path fill="none" stroke="#000000" stroke-dasharray="5,2" d="M6600.9139,-116C6688.4125,-116 6832,-116 6832,-116 6832,-116 6832,-143.973 6832,-143.973"/>
<polygon fill="#000000" stroke="#000000" points="6828.5001,-143.973 6832,-153.973 6835.5001,-143.973 6828.5001,-143.973"/>
</g>
<!-- SelectListSingle  -->
<g id="node53" class="node">
<title>SelectListSingle </title>
<polygon fill="#fb8072" stroke="#000000" points="6752.7647,-190 6641.2353,-190 6641.2353,-154 6752.7647,-154 6752.7647,-190"/>
<text text-anchor="middle" x="6697" y="-167.8" font-family="Times,serif" font-size="14.00" fill="#000000">SelectListSingle </text>
</g>
<!-- FormCreatorModule&#45;&gt;SelectListSingle  -->
<g id="edge52" class="edge">
<title>FormCreatorModule&#45;&gt;SelectListSingle </title>
<path fill="none" stroke="#000000" stroke-dasharray="5,2" d="M6600.8916,-119C6645.7422,-119 6697,-119 6697,-119 6697,-119 6697,-143.7604 6697,-143.7604"/>
<polygon fill="#000000" stroke="#000000" points="6693.5001,-143.7604 6697,-153.7604 6700.5001,-143.7604 6693.5001,-143.7604"/>
</g>
<!-- AssociationService -->
<g id="node31" class="node">
<title>AssociationService</title>
<ellipse fill="#fdb462" stroke="#000000" cx="2108" cy="-104" rx="85.6686" ry="18"/>
<text text-anchor="middle" x="2108" y="-99.8" font-family="Times,serif" font-size="14.00" fill="#000000">AssociationService</text>
</g>
<!-- AssociationService&#45;&gt;AppModule -->
<g id="edge30" class="edge">
<title>AssociationService&#45;&gt;AppModule</title>
<path fill="none" stroke="#000000" d="M2108,-122.1686C2108,-141.0898 2108,-168 2108,-168 2108,-168 3349.0801,-168 3349.0801,-168"/>
<polygon fill="#000000" stroke="#000000" points="3349.0801,-171.5001 3359.0801,-168 3349.08,-164.5001 3349.0801,-171.5001"/>
</g>
<!-- CarePlanService -->
<g id="node32" class="node">
<title>CarePlanService</title>
<ellipse fill="#fdb462" stroke="#000000" cx="1929" cy="-104" rx="75.2751" ry="18"/>
<text text-anchor="middle" x="1929" y="-99.8" font-family="Times,serif" font-size="14.00" fill="#000000">CarePlanService</text>
</g>
<!-- CarePlanService&#45;&gt;AppModule -->
<g id="edge31" class="edge">
<title>CarePlanService&#45;&gt;AppModule</title>
<path fill="none" stroke="#000000" d="M1929,-122.0348C1929,-141.5762 1929,-170 1929,-170 1929,-170 3349.317,-170 3349.317,-170"/>
<polygon fill="#000000" stroke="#000000" points="3349.3171,-173.5001 3359.317,-170 3349.317,-166.5001 3349.3171,-173.5001"/>
</g>
<!-- ConditionService -->
<g id="node33" class="node">
<title>ConditionService</title>
<ellipse fill="#fdb462" stroke="#000000" cx="1757" cy="-104" rx="78.7511" ry="18"/>
<text text-anchor="middle" x="1757" y="-99.8" font-family="Times,serif" font-size="14.00" fill="#000000">ConditionService</text>
</g>
<!-- ConditionService&#45;&gt;AppModule -->
<g id="edge32" class="edge">
<title>ConditionService&#45;&gt;AppModule</title>
<path fill="none" stroke="#000000" d="M1757,-122.2228C1757,-142.3652 1757,-172 1757,-172 1757,-172 3349.1254,-172 3349.1254,-172"/>
<polygon fill="#000000" stroke="#000000" points="3349.1254,-175.5001 3359.1254,-172 3349.1253,-168.5001 3349.1254,-175.5001"/>
</g>
<!-- DoctorService -->
<g id="node34" class="node">
<title>DoctorService</title>
<ellipse fill="#fdb462" stroke="#000000" cx="1594" cy="-104" rx="66.6113" ry="18"/>
<text text-anchor="middle" x="1594" y="-99.8" font-family="Times,serif" font-size="14.00" fill="#000000">DoctorService</text>
</g>
<!-- DoctorService&#45;&gt;AppModule -->
<g id="edge33" class="edge">
<title>DoctorService&#45;&gt;AppModule</title>
<path fill="none" stroke="#000000" d="M1594,-122.1289C1594,-142.5724 1594,-173 1594,-173 1594,-173 3348.9931,-173 3348.9931,-173"/>
<polygon fill="#000000" stroke="#000000" points="3348.9931,-176.5001 3358.9931,-173 3348.9931,-169.5001 3348.9931,-176.5001"/>
</g>
<!-- EncounterService -->
<g id="node35" class="node">
<title>EncounterService</title>
<ellipse fill="#fdb462" stroke="#000000" cx="1430" cy="-104" rx="79.8546" ry="18"/>
<text text-anchor="middle" x="1430" y="-99.8" font-family="Times,serif" font-size="14.00" fill="#000000">EncounterService</text>
</g>
<!-- EncounterService&#45;&gt;AppModule -->
<g id="edge34" class="edge">
<title>EncounterService&#45;&gt;AppModule</title>
<path fill="none" stroke="#000000" d="M1430,-122.2843C1430,-143.3211 1430,-175 1430,-175 1430,-175 3348.921,-175 3348.921,-175"/>
<polygon fill="#000000" stroke="#000000" points="3348.921,-178.5001 3358.921,-175 3348.921,-171.5001 3348.921,-178.5001"/>
</g>
<!-- FhirService -->
<g id="node36" class="node">
<title>FhirService</title>
<ellipse fill="#fdb462" stroke="#000000" cx="1276" cy="-104" rx="56.1744" ry="18"/>
<text text-anchor="middle" x="1276" y="-99.8" font-family="Times,serif" font-size="14.00" fill="#000000">FhirService</text>
</g>
<!-- FhirService&#45;&gt;AppModule -->
<g id="edge35" class="edge">
<title>FhirService&#45;&gt;AppModule</title>
<path fill="none" stroke="#000000" d="M1276,-122.0449C1276,-143.6623 1276,-177 1276,-177 1276,-177 3349.03,-177 3349.03,-177"/>
<polygon fill="#000000" stroke="#000000" points="3349.03,-180.5001 3359.03,-177 3349.03,-173.5001 3349.03,-180.5001"/>
</g>
<!-- HistoricalTrendsService -->
<g id="node37" class="node">
<title>HistoricalTrendsService</title>
<ellipse fill="#fdb462" stroke="#000000" cx="1097" cy="-104" rx="104.7675" ry="18"/>
<text text-anchor="middle" x="1097" y="-99.8" font-family="Times,serif" font-size="14.00" fill="#000000">HistoricalTrendsService</text>
</g>
<!-- HistoricalTrendsService&#45;&gt;AppModule -->
<g id="edge36" class="edge">
<title>HistoricalTrendsService&#45;&gt;AppModule</title>
<path fill="none" stroke="#000000" d="M1097,-122.2921C1097,-144.2057 1097,-178 1097,-178 1097,-178 3349.043,-178 3349.043,-178"/>
<polygon fill="#000000" stroke="#000000" points="3349.043,-181.5001 3359.043,-178 3349.0429,-174.5001 3349.043,-181.5001"/>
</g>
<!-- MapService -->
<g id="node38" class="node">
<title>MapService</title>
<ellipse fill="#fdb462" stroke="#000000" cx="916" cy="-104" rx="57.8829" ry="18"/>
<text text-anchor="middle" x="916" y="-99.8" font-family="Times,serif" font-size="14.00" fill="#000000">MapService</text>
</g>
<!-- MapService&#45;&gt;AppModule -->
<g id="edge37" class="edge">
<title>MapService&#45;&gt;AppModule</title>
<path fill="none" stroke="#000000" d="M916,-122.0109C916,-144.4852 916,-180 916,-180 916,-180 3349.1696,-180 3349.1696,-180"/>
<polygon fill="#000000" stroke="#000000" points="3349.1697,-183.5001 3359.1696,-180 3349.1696,-176.5001 3349.1697,-183.5001"/>
</g>
<!-- ObservationService -->
<g id="node39" class="node">
<title>ObservationService</title>
<ellipse fill="#fdb462" stroke="#000000" cx="753" cy="-104" rx="87.377" ry="18"/>
<text text-anchor="middle" x="753" y="-99.8" font-family="Times,serif" font-size="14.00" fill="#000000">ObservationService</text>
</g>
<!-- ObservationService&#45;&gt;AppModule -->
<g id="edge38" class="edge">
<title>ObservationService&#45;&gt;AppModule</title>
<path fill="none" stroke="#000000" d="M753,-122.0908C753,-145.1328 753,-182 753,-182 753,-182 3349.1393,-182 3349.1393,-182"/>
<polygon fill="#000000" stroke="#000000" points="3349.1394,-185.5001 3359.1393,-182 3349.1393,-178.5001 3349.1394,-185.5001"/>
</g>
<!-- PatientService -->
<g id="node40" class="node">
<title>PatientService</title>
<ellipse fill="#fdb462" stroke="#000000" cx="581" cy="-104" rx="66.6267" ry="18"/>
<text text-anchor="middle" x="581" y="-99.8" font-family="Times,serif" font-size="14.00" fill="#000000">PatientService</text>
</g>
<!-- PatientService&#45;&gt;AppModule -->
<g id="edge39" class="edge">
<title>PatientService&#45;&gt;AppModule</title>
<path fill="none" stroke="#000000" d="M581,-122.1532C581,-145.7566 581,-184 581,-184 581,-184 3349.2242,-184 3349.2242,-184"/>
<polygon fill="#000000" stroke="#000000" points="3349.2242,-187.5001 3359.2242,-184 3349.2242,-180.5001 3349.2242,-187.5001"/>
</g>
<!-- ScratchPadService -->
<g id="node41" class="node">
<title>ScratchPadService</title>
<ellipse fill="#fdb462" stroke="#000000" cx="413" cy="-104" rx="83.3616" ry="18"/>
<text text-anchor="middle" x="413" y="-99.8" font-family="Times,serif" font-size="14.00" fill="#000000">ScratchPadService</text>
</g>
<!-- ScratchPadService&#45;&gt;AppModule -->
<g id="edge40" class="edge">
<title>ScratchPadService&#45;&gt;AppModule</title>
<path fill="none" stroke="#000000" d="M413,-122.3802C413,-146.2785 413,-185 413,-185 413,-185 3349.3311,-185 3349.3311,-185"/>
<polygon fill="#000000" stroke="#000000" points="3349.3311,-188.5001 3359.3311,-185 3349.3311,-181.5001 3349.3311,-188.5001"/>
</g>
<!-- SmartService -->
<g id="node42" class="node">
<title>SmartService</title>
<ellipse fill="#fdb462" stroke="#000000" cx="249" cy="-104" rx="63.1151" ry="18"/>
<text text-anchor="middle" x="249" y="-99.8" font-family="Times,serif" font-size="14.00" fill="#000000">SmartService</text>
</g>
<!-- SmartService&#45;&gt;AppModule -->
<g id="edge41" class="edge">
<title>SmartService&#45;&gt;AppModule</title>
<path fill="none" stroke="#000000" d="M249,-122.0098C249,-146.4207 249,-187 249,-187 249,-187 3349.1194,-187 3349.1194,-187"/>
<polygon fill="#000000" stroke="#000000" points="3349.1194,-190.5001 3359.1194,-187 3349.1194,-183.5001 3349.1194,-190.5001"/>
</g>
<!-- ToolBarService -->
<g id="node43" class="node">
<title>ToolBarService</title>
<ellipse fill="#fdb462" stroke="#000000" cx="96" cy="-104" rx="72.3477" ry="18"/>
<text text-anchor="middle" x="96" y="-99.8" font-family="Times,serif" font-size="14.00" fill="#000000">ToolBarService</text>
</g>
<!-- ToolBarService&#45;&gt;AppModule -->
<g id="edge42" class="edge">
<title>ToolBarService&#45;&gt;AppModule</title>
<path fill="none" stroke="#000000" d="M96,-122.0263C96,-146.9773 96,-189 96,-189 96,-189 3349.2126,-189 3349.2126,-189"/>
<polygon fill="#000000" stroke="#000000" points="3349.2126,-192.5001 3359.2126,-189 3349.2126,-185.5001 3349.2126,-192.5001"/>
</g>
<!-- CheckboxInline -->
<g id="node44" class="node">
<title>CheckboxInline</title>
<polygon fill="#ffffb3" stroke="#000000" points="7848.923,-190 7743.077,-190 7743.077,-154 7848.923,-154 7848.923,-190"/>
<text text-anchor="middle" x="7796" y="-167.8" font-family="Times,serif" font-size="14.00" fill="#000000">CheckboxInline</text>
</g>
<!-- CheckboxInline&#45;&gt;FormCreatorModule -->
<g id="edge43" class="edge">
<title>CheckboxInline&#45;&gt;FormCreatorModule</title>
<path fill="none" stroke="#000000" d="M7796,-153.8015C7796,-129.6437 7796,-90 7796,-90 7796,-90 6611.0214,-90 6611.0214,-90"/>
<polygon fill="#000000" stroke="#000000" points="6611.0214,-86.5001 6601.0214,-90 6611.0214,-93.5001 6611.0214,-86.5001"/>
</g>
<!-- NormalBox1 -->
<g id="node45" class="node">
<title>NormalBox1</title>
<polygon fill="#ffffb3" stroke="#000000" points="7725.5997,-190 7636.4003,-190 7636.4003,-154 7725.5997,-154 7725.5997,-190"/>
<text text-anchor="middle" x="7681" y="-167.8" font-family="Times,serif" font-size="14.00" fill="#000000">NormalBox1</text>
</g>
<!-- NormalBox1&#45;&gt;FormCreatorModule -->
<g id="edge44" class="edge">
<title>NormalBox1&#45;&gt;FormCreatorModule</title>
<path fill="none" stroke="#000000" d="M7681,-153.6772C7681,-130.3398 7681,-93 7681,-93 7681,-93 6611.148,-93 6611.148,-93"/>
<polygon fill="#000000" stroke="#000000" points="6611.1481,-89.5001 6601.148,-93 6611.148,-96.5001 6611.1481,-89.5001"/>
</g>
<!-- NormalBox2 -->
<g id="node46" class="node">
<title>NormalBox2</title>
<polygon fill="#ffffb3" stroke="#000000" points="7618.5997,-190 7529.4003,-190 7529.4003,-154 7618.5997,-154 7618.5997,-190"/>
<text text-anchor="middle" x="7574" y="-167.8" font-family="Times,serif" font-size="14.00" fill="#000000">NormalBox2</text>
</g>
<!-- NormalBox2&#45;&gt;FormCreatorModule -->
<g id="edge45" class="edge">
<title>NormalBox2&#45;&gt;FormCreatorModule</title>
<path fill="none" stroke="#000000" d="M7574,-153.9891C7574,-131.5148 7574,-96 7574,-96 7574,-96 6611.178,-96 6611.178,-96"/>
<polygon fill="#000000" stroke="#000000" points="6611.178,-92.5001 6601.178,-96 6611.178,-99.5001 6611.178,-92.5001"/>
</g>
<!-- ScratchPadUpdate -->
<g id="node47" class="node">
<title>ScratchPadUpdate</title>
<polygon fill="#ffffb3" stroke="#000000" points="7511.9019,-190 7392.0981,-190 7392.0981,-154 7511.9019,-154 7511.9019,-190"/>
<text text-anchor="middle" x="7452" y="-167.8" font-family="Times,serif" font-size="14.00" fill="#000000">ScratchPadUpdate</text>
</g>
<!-- ScratchPadUpdate&#45;&gt;FormCreatorModule -->
<g id="edge46" class="edge">
<title>ScratchPadUpdate&#45;&gt;FormCreatorModule</title>
<path fill="none" stroke="#000000" d="M7452,-153.8314C7452,-132.502 7452,-100 7452,-100 7452,-100 6610.9484,-100 6610.9484,-100"/>
<polygon fill="#000000" stroke="#000000" points="6610.9484,-96.5001 6600.9484,-100 6610.9483,-103.5001 6610.9484,-96.5001"/>
</g>
<!-- SelectListSingle -->
<g id="node48" class="node">
<title>SelectListSingle</title>
<polygon fill="#ffffb3" stroke="#000000" points="7373.7647,-190 7266.2353,-190 7266.2353,-154 7373.7647,-154 7373.7647,-190"/>
<text text-anchor="middle" x="7320" y="-167.8" font-family="Times,serif" font-size="14.00" fill="#000000">SelectListSingle</text>
</g>
<!-- SelectListSingle&#45;&gt;FormCreatorModule -->
<g id="edge47" class="edge">
<title>SelectListSingle&#45;&gt;FormCreatorModule</title>
<path fill="none" stroke="#000000" d="M7320,-153.8711C7320,-133.4276 7320,-103 7320,-103 7320,-103 6610.9149,-103 6610.9149,-103"/>
<polygon fill="#000000" stroke="#000000" points="6610.915,-99.5001 6600.9149,-103 6610.9149,-106.5001 6610.915,-99.5001"/>
</g>
</g>
</svg>
