<?xml version="1.0" encoding="UTF-8" standalone="no"?>
<!DOCTYPE svg PUBLIC "-//W3C//DTD SVG 1.1//EN"
 "http://www.w3.org/Graphics/SVG/1.1/DTD/svg11.dtd">
<!-- Generated by graphviz version 2.40.1 (20161225.0304)
 -->
<!-- Title: dependencies Pages: 1 -->
<svg width="8008pt" height="290pt"
 viewBox="0.00 0.00 8008.00 290.00" xmlns="http://www.w3.org/2000/svg" xmlns:xlink="http://www.w3.org/1999/xlink">
<g id="graph0" class="graph" transform="scale(1 1) rotate(0) translate(4 286)">
<title>dependencies</title>
<polygon fill="#ffffff" stroke="transparent" points="-4,4 -4,-286 8004,-286 8004,4 -4,4"/>
<text text-anchor="start" x="3979.0091" y="-42.4" font-family="sans-serif" font-weight="bold" font-size="14.00" fill="#000000">Legend</text>
<polygon fill="#ffffb3" stroke="transparent" points="3766,-10 3766,-30 3786,-30 3786,-10 3766,-10"/>
<text text-anchor="start" x="3789.629" y="-15.4" font-family="sans-serif" font-size="14.00" fill="#000000"> &#160;Declarations</text>
<polygon fill="#8dd3c7" stroke="transparent" points="3879,-10 3879,-30 3899,-30 3899,-10 3879,-10"/>
<text text-anchor="start" x="3902.7251" y="-15.4" font-family="sans-serif" font-size="14.00" fill="#000000"> &#160;Module</text>
<polygon fill="#80b1d3" stroke="transparent" points="3965,-10 3965,-30 3985,-30 3985,-10 3965,-10"/>
<text text-anchor="start" x="3988.7812" y="-15.4" font-family="sans-serif" font-size="14.00" fill="#000000"> &#160;Bootstrap</text>
<polygon fill="#fdb462" stroke="transparent" points="4062,-10 4062,-30 4082,-30 4082,-10 4062,-10"/>
<text text-anchor="start" x="4085.6732" y="-15.4" font-family="sans-serif" font-size="14.00" fill="#000000"> &#160;Providers</text>
<polygon fill="#fb8072" stroke="transparent" points="4158,-10 4158,-30 4178,-30 4178,-10 4158,-10"/>
<text text-anchor="start" x="4181.7258" y="-15.4" font-family="sans-serif" font-size="14.00" fill="#000000"> &#160;Exports</text>
<g id="clust1" class="cluster">
<title>cluster_AppModule</title>
<polygon fill="none" stroke="#000000" stroke-dasharray="1,5" points="8,-70 8,-274 6744,-274 6744,-70 8,-70"/>
</g>
<g id="clust2" class="cluster">
<title>cluster_AppModule_declarations</title>
<polygon fill="none" stroke="#000000" points="2210,-78 2210,-130 6580,-130 6580,-78 2210,-78"/>
</g>
<g id="clust31" class="cluster">
<title>cluster_AppModule_imports</title>
<polygon fill="none" stroke="#000000" points="6588,-78 6588,-130 6736,-130 6736,-78 6588,-78"/>
</g>
<g id="clust33" class="cluster">
<title>cluster_AppModule_bootstrap</title>
<polygon fill="none" stroke="#000000" points="3426,-214 3426,-266 3550,-266 3550,-214 3426,-214"/>
</g>
<g id="clust34" class="cluster">
<title>cluster_AppModule_providers</title>
<polygon fill="none" stroke="#000000" points="16,-78 16,-130 2202,-130 2202,-78 16,-78"/>
</g>
<g id="clust35" class="cluster">
<title>cluster_FormCreatorModule</title>
<polygon fill="none" stroke="#000000" stroke-dasharray="1,5" points="6752,-138 6752,-206 7992,-206 7992,-138 6752,-138"/>
</g>
<g id="clust36" class="cluster">
<title>cluster_FormCreatorModule_declarations</title>
<polygon fill="none" stroke="#000000" points="7385,-146 7385,-198 7984,-198 7984,-146 7385,-146"/>
</g>
<g id="clust43" class="cluster">
<title>cluster_FormCreatorModule_exports</title>
<polygon fill="none" stroke="#000000" points="6760,-146 6760,-198 7377,-198 7377,-146 6760,-146"/>
</g>
<!-- AccordionRecursion -->
<g id="node1" class="node">
<title>AccordionRecursion</title>
<polygon fill="#ffffb3" stroke="#000000" points="6571.8487,-122 6440.1513,-122 6440.1513,-86 6571.8487,-86 6571.8487,-122"/>
<text text-anchor="middle" x="6506" y="-99.8" font-family="Times,serif" font-size="14.00" fill="#000000">AccordionRecursion</text>
</g>
<!-- AppModule -->
<g id="node29" class="node">
<title>AppModule</title>
<polygon fill="#8dd3c7" stroke="#000000" points="3529.6571,-190 3526.6571,-194 3505.6571,-194 3502.6571,-190 3446.3429,-190 3446.3429,-154 3529.6571,-154 3529.6571,-190"/>
<text text-anchor="middle" x="3488" y="-167.8" font-family="Times,serif" font-size="14.00" fill="#000000">AppModule</text>
</g>
<!-- AccordionRecursion&#45;&gt;AppModule -->
<g id="edge1" class="edge">
<title>AccordionRecursion&#45;&gt;AppModule</title>
<path fill="none" stroke="#000000" d="M6506,-122.0098C6506,-146.4207 6506,-187 6506,-187 6506,-187 3539.8006,-187 3539.8006,-187"/>
<polygon fill="#000000" stroke="#000000" points="3539.8006,-183.5001 3529.8006,-187 3539.8006,-190.5001 3539.8006,-183.5001"/>
</g>
<!-- AccountComponent -->
<g id="node2" class="node">
<title>AccountComponent</title>
<polygon fill="#ffffb3" stroke="#000000" points="6422.259,-122 6293.741,-122 6293.741,-86 6422.259,-86 6422.259,-122"/>
<text text-anchor="middle" x="6358" y="-99.8" font-family="Times,serif" font-size="14.00" fill="#000000">AccountComponent</text>
</g>
<!-- AccountComponent&#45;&gt;AppModule -->
<g id="edge2" class="edge">
<title>AccountComponent&#45;&gt;AppModule</title>
<path fill="none" stroke="#000000" d="M6358,-122.3802C6358,-146.2785 6358,-185 6358,-185 6358,-185 3539.6775,-185 3539.6775,-185"/>
<polygon fill="#000000" stroke="#000000" points="3539.6776,-181.5001 3529.6775,-185 3539.6775,-188.5001 3539.6776,-181.5001"/>
</g>
<!-- AddObservation -->
<g id="node3" class="node">
<title>AddObservation</title>
<polygon fill="#ffffb3" stroke="#000000" points="6275.0298,-122 6166.9702,-122 6166.9702,-86 6275.0298,-86 6275.0298,-122"/>
<text text-anchor="middle" x="6221" y="-99.8" font-family="Times,serif" font-size="14.00" fill="#000000">AddObservation</text>
</g>
<!-- AddObservation&#45;&gt;AppModule -->
<g id="edge3" class="edge">
<title>AddObservation&#45;&gt;AppModule</title>
<path fill="none" stroke="#000000" d="M6221,-122.1532C6221,-145.7566 6221,-184 6221,-184 6221,-184 3539.8353,-184 3539.8353,-184"/>
<polygon fill="#000000" stroke="#000000" points="3539.8353,-180.5001 3529.8353,-184 3539.8352,-187.5001 3539.8353,-180.5001"/>
</g>
<!-- AppComponent -->
<g id="node4" class="node">
<title>AppComponent</title>
<polygon fill="#ffffb3" stroke="#000000" points="6148.9399,-122 6043.0601,-122 6043.0601,-86 6148.9399,-86 6148.9399,-122"/>
<text text-anchor="middle" x="6096" y="-99.8" font-family="Times,serif" font-size="14.00" fill="#000000">AppComponent</text>
</g>
<!-- AppComponent&#45;&gt;AppModule -->
<g id="edge4" class="edge">
<title>AppComponent&#45;&gt;AppModule</title>
<path fill="none" stroke="#000000" d="M6096,-122.0908C6096,-145.1328 6096,-182 6096,-182 6096,-182 3539.7565,-182 3539.7565,-182"/>
<polygon fill="#000000" stroke="#000000" points="3539.7565,-178.5001 3529.7565,-182 3539.7565,-185.5001 3539.7565,-178.5001"/>
</g>
<!-- CarePlanDisplay -->
<g id="node5" class="node">
<title>CarePlanDisplay</title>
<polygon fill="#ffffb3" stroke="#000000" points="6025.3613,-122 5914.6387,-122 5914.6387,-86 6025.3613,-86 6025.3613,-122"/>
<text text-anchor="middle" x="5970" y="-99.8" font-family="Times,serif" font-size="14.00" fill="#000000">CarePlanDisplay</text>
</g>
<!-- CarePlanDisplay&#45;&gt;AppModule -->
<g id="edge5" class="edge">
<title>CarePlanDisplay&#45;&gt;AppModule</title>
<path fill="none" stroke="#000000" d="M5970,-122.0109C5970,-144.4852 5970,-180 5970,-180 5970,-180 3539.7799,-180 3539.7799,-180"/>
<polygon fill="#000000" stroke="#000000" points="3539.7799,-176.5001 3529.7799,-180 3539.7798,-183.5001 3539.7799,-176.5001"/>
</g>
<!-- CarePlansComponent -->
<g id="node6" class="node">
<title>CarePlansComponent</title>
<polygon fill="#ffffb3" stroke="#000000" points="5897.0912,-122 5758.9088,-122 5758.9088,-86 5897.0912,-86 5897.0912,-122"/>
<text text-anchor="middle" x="5828" y="-99.8" font-family="Times,serif" font-size="14.00" fill="#000000">CarePlansComponent</text>
</g>
<!-- CarePlansComponent&#45;&gt;AppModule -->
<g id="edge6" class="edge">
<title>CarePlansComponent&#45;&gt;AppModule</title>
<path fill="none" stroke="#000000" d="M5828,-122.2921C5828,-144.2057 5828,-178 5828,-178 5828,-178 3539.8583,-178 3539.8583,-178"/>
<polygon fill="#000000" stroke="#000000" points="3539.8583,-174.5001 3529.8583,-178 3539.8582,-181.5001 3539.8583,-174.5001"/>
</g>
<!-- ColumnStateSwitcherComponent -->
<g id="node7" class="node">
<title>ColumnStateSwitcherComponent</title>
<polygon fill="#ffffb3" stroke="#000000" points="5741.2035,-122 5536.7965,-122 5536.7965,-86 5741.2035,-86 5741.2035,-122"/>
<text text-anchor="middle" x="5639" y="-99.8" font-family="Times,serif" font-size="14.00" fill="#000000">ColumnStateSwitcherComponent</text>
</g>
<!-- ColumnStateSwitcherComponent&#45;&gt;AppModule -->
<g id="edge7" class="edge">
<title>ColumnStateSwitcherComponent&#45;&gt;AppModule</title>
<path fill="none" stroke="#000000" d="M5639,-122.0449C5639,-143.6623 5639,-177 5639,-177 5639,-177 3540.0026,-177 3540.0026,-177"/>
<polygon fill="#000000" stroke="#000000" points="3540.0026,-173.5001 3530.0026,-177 3540.0025,-180.5001 3540.0026,-173.5001"/>
</g>
<!-- ConditionsChartComponent -->
<g id="node8" class="node">
<title>ConditionsChartComponent</title>
<polygon fill="#ffffb3" stroke="#000000" points="5518.8878,-122 5345.1122,-122 5345.1122,-86 5518.8878,-86 5518.8878,-122"/>
<text text-anchor="middle" x="5432" y="-99.8" font-family="Times,serif" font-size="14.00" fill="#000000">ConditionsChartComponent</text>
</g>
<!-- ConditionsChartComponent&#45;&gt;AppModule -->
<g id="edge8" class="edge">
<title>ConditionsChartComponent&#45;&gt;AppModule</title>
<path fill="none" stroke="#000000" d="M5432,-122.2843C5432,-143.3211 5432,-175 5432,-175 5432,-175 3539.9557,-175 3539.9557,-175"/>
<polygon fill="#000000" stroke="#000000" points="3539.9557,-171.5001 3529.9557,-175 3539.9557,-178.5001 3539.9557,-171.5001"/>
</g>
<!-- ConditionsComponent -->
<g id="node9" class="node">
<title>ConditionsComponent</title>
<polygon fill="#ffffb3" stroke="#000000" points="5327.2856,-122 5184.7144,-122 5184.7144,-86 5327.2856,-86 5327.2856,-122"/>
<text text-anchor="middle" x="5256" y="-99.8" font-family="Times,serif" font-size="14.00" fill="#000000">ConditionsComponent</text>
</g>
<!-- ConditionsComponent&#45;&gt;AppModule -->
<g id="edge9" class="edge">
<title>ConditionsComponent&#45;&gt;AppModule</title>
<path fill="none" stroke="#000000" d="M5256,-122.1289C5256,-142.5724 5256,-173 5256,-173 5256,-173 3539.9598,-173 3539.9598,-173"/>
<polygon fill="#000000" stroke="#000000" points="3539.9598,-169.5001 3529.9598,-173 3539.9598,-176.5001 3539.9598,-169.5001"/>
</g>
<!-- ConditionsDisplay -->
<g id="node10" class="node">
<title>ConditionsDisplay</title>
<polygon fill="#ffffb3" stroke="#000000" points="5166.5,-122 5045.5,-122 5045.5,-86 5166.5,-86 5166.5,-122"/>
<text text-anchor="middle" x="5106" y="-99.8" font-family="Times,serif" font-size="14.00" fill="#000000">ConditionsDisplay</text>
</g>
<!-- ConditionsDisplay&#45;&gt;AppModule -->
<g id="edge10" class="edge">
<title>ConditionsDisplay&#45;&gt;AppModule</title>
<path fill="none" stroke="#000000" d="M5106,-122.2228C5106,-142.3652 5106,-172 5106,-172 5106,-172 3540.0329,-172 3540.0329,-172"/>
<polygon fill="#000000" stroke="#000000" points="3540.0329,-168.5001 3530.0329,-172 3540.0328,-175.5001 3540.0329,-168.5001"/>
</g>
<!-- ContextMenuComponent -->
<g id="node11" class="node">
<title>ContextMenuComponent</title>
<polygon fill="#ffffb3" stroke="#000000" points="5027.3243,-122 4868.6757,-122 4868.6757,-86 5027.3243,-86 5027.3243,-122"/>
<text text-anchor="middle" x="4948" y="-99.8" font-family="Times,serif" font-size="14.00" fill="#000000">ContextMenuComponent</text>
</g>
<!-- ContextMenuComponent&#45;&gt;AppModule -->
<g id="edge11" class="edge">
<title>ContextMenuComponent&#45;&gt;AppModule</title>
<path fill="none" stroke="#000000" d="M4948,-122.0348C4948,-141.5762 4948,-170 4948,-170 4948,-170 3539.731,-170 3539.731,-170"/>
<polygon fill="#000000" stroke="#000000" points="3539.731,-166.5001 3529.731,-170 3539.7309,-173.5001 3539.731,-166.5001"/>
</g>
<!-- FormBuilder -->
<g id="node12" class="node">
<title>FormBuilder</title>
<polygon fill="#ffffb3" stroke="#000000" points="4851.3274,-122 4762.6726,-122 4762.6726,-86 4851.3274,-86 4851.3274,-122"/>
<text text-anchor="middle" x="4807" y="-99.8" font-family="Times,serif" font-size="14.00" fill="#000000">FormBuilder</text>
</g>
<!-- FormBuilder&#45;&gt;AppModule -->
<g id="edge12" class="edge">
<title>FormBuilder&#45;&gt;AppModule</title>
<path fill="none" stroke="#000000" d="M4807,-122.1686C4807,-141.0898 4807,-168 4807,-168 4807,-168 3540.0218,-168 3540.0218,-168"/>
<polygon fill="#000000" stroke="#000000" points="3540.0219,-164.5001 3530.0218,-168 3540.0218,-171.5001 3540.0219,-164.5001"/>
</g>
<!-- HistoricalTrendsComponent -->
<g id="node13" class="node">
<title>HistoricalTrendsComponent</title>
<polygon fill="#ffffb3" stroke="#000000" points="4744.9087,-122 4569.0913,-122 4569.0913,-86 4744.9087,-86 4744.9087,-122"/>
<text text-anchor="middle" x="4657" y="-99.8" font-family="Times,serif" font-size="14.00" fill="#000000">HistoricalTrendsComponent</text>
</g>
<!-- HistoricalTrendsComponent&#45;&gt;AppModule -->
<g id="edge13" class="edge">
<title>HistoricalTrendsComponent&#45;&gt;AppModule</title>
<path fill="none" stroke="#000000" d="M4657,-122.2667C4657,-140.5552 4657,-166 4657,-166 4657,-166 3539.95,-166 3539.95,-166"/>
<polygon fill="#000000" stroke="#000000" points="3539.95,-162.5001 3529.95,-166 3539.95,-169.5001 3539.95,-162.5001"/>
</g>
<!-- HomeComponent -->
<g id="node14" class="node">
<title>HomeComponent</title>
<polygon fill="#ffffb3" stroke="#000000" points="4551.5451,-122 4436.4549,-122 4436.4549,-86 4551.5451,-86 4551.5451,-122"/>
<text text-anchor="middle" x="4494" y="-99.8" font-family="Times,serif" font-size="14.00" fill="#000000">HomeComponent</text>
</g>
<!-- HomeComponent&#45;&gt;AppModule -->
<g id="edge14" class="edge">
<title>HomeComponent&#45;&gt;AppModule</title>
<path fill="none" stroke="#000000" d="M4494,-122.302C4494,-140.2699 4494,-165 4494,-165 4494,-165 3539.9458,-165 3539.9458,-165"/>
<polygon fill="#000000" stroke="#000000" points="3539.9458,-161.5001 3529.9458,-165 3539.9457,-168.5001 3539.9458,-161.5001"/>
</g>
<!-- HoverBoxComponent -->
<g id="node15" class="node">
<title>HoverBoxComponent</title>
<polygon fill="#ffffb3" stroke="#000000" points="4417.6512,-122 4278.3488,-122 4278.3488,-86 4417.6512,-86 4417.6512,-122"/>
<text text-anchor="middle" x="4348" y="-99.8" font-family="Times,serif" font-size="14.00" fill="#000000">HoverBoxComponent</text>
</g>
<!-- HoverBoxComponent&#45;&gt;AppModule -->
<g id="edge15" class="edge">
<title>HoverBoxComponent&#45;&gt;AppModule</title>
<path fill="none" stroke="#000000" d="M4348,-122.0225C4348,-139.3734 4348,-163 4348,-163 4348,-163 3539.7702,-163 3539.7702,-163"/>
<polygon fill="#000000" stroke="#000000" points="3539.7703,-159.5001 3529.7702,-163 3539.7702,-166.5001 3539.7703,-159.5001"/>
</g>
<!-- LoadingAnimation -->
<g id="node16" class="node">
<title>LoadingAnimation</title>
<polygon fill="#ffffb3" stroke="#000000" points="4260.0423,-122 4137.9577,-122 4137.9577,-86 4260.0423,-86 4260.0423,-122"/>
<text text-anchor="middle" x="4199" y="-99.8" font-family="Times,serif" font-size="14.00" fill="#000000">LoadingAnimation</text>
</g>
<!-- LoadingAnimation&#45;&gt;AppModule -->
<g id="edge16" class="edge">
<title>LoadingAnimation&#45;&gt;AppModule</title>
<path fill="none" stroke="#000000" d="M4199,-122.0352C4199,-138.7344 4199,-161 4199,-161 4199,-161 3539.8219,-161 3539.8219,-161"/>
<polygon fill="#000000" stroke="#000000" points="3539.8219,-157.5001 3529.8219,-161 3539.8218,-164.5001 3539.8219,-157.5001"/>
</g>
<!-- MedicationsComponent -->
<g id="node17" class="node">
<title>MedicationsComponent</title>
<polygon fill="#ffffb3" stroke="#000000" points="4119.0379,-122 3968.9621,-122 3968.9621,-86 4119.0379,-86 4119.0379,-122"/>
<text text-anchor="middle" x="4044" y="-99.8" font-family="Times,serif" font-size="14.00" fill="#000000">MedicationsComponent</text>
</g>
<!-- MedicationsComponent&#45;&gt;AppModule -->
<g id="edge17" class="edge">
<title>MedicationsComponent&#45;&gt;AppModule</title>
<path fill="none" stroke="#000000" d="M4044,-122.027C4044,-138.3976 4044,-160 4044,-160 4044,-160 3539.7904,-160 3539.7904,-160"/>
<polygon fill="#000000" stroke="#000000" points="3539.7904,-156.5001 3529.7904,-160 3539.7903,-163.5001 3539.7904,-156.5001"/>
</g>
<!-- NewCondition -->
<g id="node18" class="node">
<title>NewCondition</title>
<polygon fill="#ffffb3" stroke="#000000" points="3951.4372,-122 3852.5628,-122 3852.5628,-86 3951.4372,-86 3951.4372,-122"/>
<text text-anchor="middle" x="3902" y="-99.8" font-family="Times,serif" font-size="14.00" fill="#000000">NewCondition</text>
</g>
<!-- NewCondition&#45;&gt;AppModule -->
<g id="edge18" class="edge">
<title>NewCondition&#45;&gt;AppModule</title>
<path fill="none" stroke="#000000" d="M3902,-122.2819C3902,-137.9478 3902,-158 3902,-158 3902,-158 3539.9748,-158 3539.9748,-158"/>
<polygon fill="#000000" stroke="#000000" points="3539.9749,-154.5001 3529.9748,-158 3539.9748,-161.5001 3539.9749,-154.5001"/>
</g>
<!-- NoteNavigationComponent -->
<g id="node19" class="node">
<title>NoteNavigationComponent</title>
<polygon fill="#ffffb3" stroke="#000000" points="3834.252,-122 3663.748,-122 3663.748,-86 3834.252,-86 3834.252,-122"/>
<text text-anchor="middle" x="3749" y="-99.8" font-family="Times,serif" font-size="14.00" fill="#000000">NoteNavigationComponent</text>
</g>
<!-- NoteNavigationComponent&#45;&gt;AppModule -->
<g id="edge19" class="edge">
<title>NoteNavigationComponent&#45;&gt;AppModule</title>
<path fill="none" stroke="#000000" d="M3749,-122.1871C3749,-137.1824 3749,-156 3749,-156 3749,-156 3539.9342,-156 3539.9342,-156"/>
<polygon fill="#000000" stroke="#000000" points="3539.9342,-152.5001 3529.9342,-156 3539.9341,-159.5001 3539.9342,-152.5001"/>
</g>
<!-- ObservationRecursive -->
<g id="node20" class="node">
<title>ObservationRecursive</title>
<polygon fill="#ffffb3" stroke="#000000" points="3645.399,-122 3504.601,-122 3504.601,-86 3645.399,-86 3645.399,-122"/>
<text text-anchor="middle" x="3575" y="-99.8" font-family="Times,serif" font-size="14.00" fill="#000000">ObservationRecursive</text>
</g>
<!-- ObservationRecursive&#45;&gt;AppModule -->
<g id="edge20" class="edge">
<title>ObservationRecursive&#45;&gt;AppModule</title>
<path fill="none" stroke="#000000" d="M3517.3145,-122.2228C3517.3145,-122.2228 3517.3145,-143.7269 3517.3145,-143.7269"/>
<polygon fill="#000000" stroke="#000000" points="3513.8146,-143.7269 3517.3145,-153.7269 3520.8146,-143.727 3513.8146,-143.7269"/>
</g>
<!-- ObservationRecursiveChart -->
<g id="node21" class="node">
<title>ObservationRecursiveChart</title>
<polygon fill="#ffffb3" stroke="#000000" points="3486.5015,-122 3315.4985,-122 3315.4985,-86 3486.5015,-86 3486.5015,-122"/>
<text text-anchor="middle" x="3401" y="-99.8" font-family="Times,serif" font-size="14.00" fill="#000000">ObservationRecursiveChart</text>
</g>
<!-- ObservationRecursiveChart&#45;&gt;AppModule -->
<g id="edge21" class="edge">
<title>ObservationRecursiveChart&#45;&gt;AppModule</title>
<path fill="none" stroke="#000000" d="M3466.4611,-122.2228C3466.4611,-122.2228 3466.4611,-143.7269 3466.4611,-143.7269"/>
<polygon fill="#000000" stroke="#000000" points="3462.9612,-143.7269 3466.4611,-153.7269 3469.9612,-143.727 3462.9612,-143.7269"/>
</g>
<!-- ObservationsComponent -->
<g id="node22" class="node">
<title>ObservationsComponent</title>
<polygon fill="#ffffb3" stroke="#000000" points="3297.6993,-122 3142.3007,-122 3142.3007,-86 3297.6993,-86 3297.6993,-122"/>
<text text-anchor="middle" x="3220" y="-99.8" font-family="Times,serif" font-size="14.00" fill="#000000">ObservationsComponent</text>
</g>
<!-- ObservationsComponent&#45;&gt;AppModule -->
<g id="edge22" class="edge">
<title>ObservationsComponent&#45;&gt;AppModule</title>
<path fill="none" stroke="#000000" d="M3220,-122.1871C3220,-137.1824 3220,-156 3220,-156 3220,-156 3436.125,-156 3436.125,-156"/>
<polygon fill="#000000" stroke="#000000" points="3436.125,-159.5001 3446.125,-156 3436.125,-152.5001 3436.125,-159.5001"/>
</g>
<!-- ObservationsDisplay -->
<g id="node23" class="node">
<title>ObservationsDisplay</title>
<polygon fill="#ffffb3" stroke="#000000" points="3124.9144,-122 2991.0856,-122 2991.0856,-86 3124.9144,-86 3124.9144,-122"/>
<text text-anchor="middle" x="3058" y="-99.8" font-family="Times,serif" font-size="14.00" fill="#000000">ObservationsDisplay</text>
</g>
<!-- ObservationsDisplay&#45;&gt;AppModule -->
<g id="edge23" class="edge">
<title>ObservationsDisplay&#45;&gt;AppModule</title>
<path fill="none" stroke="#000000" d="M3058,-122.2819C3058,-137.9478 3058,-158 3058,-158 3058,-158 3435.9869,-158 3435.9869,-158"/>
<polygon fill="#000000" stroke="#000000" points="3435.9869,-161.5001 3445.9869,-158 3435.9868,-154.5001 3435.9869,-161.5001"/>
</g>
<!-- PatientComponent -->
<g id="node24" class="node">
<title>PatientComponent</title>
<polygon fill="#ffffb3" stroke="#000000" points="2973.2162,-122 2852.7838,-122 2852.7838,-86 2973.2162,-86 2973.2162,-122"/>
<text text-anchor="middle" x="2913" y="-99.8" font-family="Times,serif" font-size="14.00" fill="#000000">PatientComponent</text>
</g>
<!-- PatientComponent&#45;&gt;AppModule -->
<g id="edge24" class="edge">
<title>PatientComponent&#45;&gt;AppModule</title>
<path fill="none" stroke="#000000" d="M2913,-122.027C2913,-138.3976 2913,-160 2913,-160 2913,-160 3436.1842,-160 3436.1842,-160"/>
<polygon fill="#000000" stroke="#000000" points="3436.1843,-163.5001 3446.1842,-160 3436.1842,-156.5001 3436.1843,-163.5001"/>
</g>
<!-- TimelineComponent -->
<g id="node25" class="node">
<title>TimelineComponent</title>
<polygon fill="#ffffb3" stroke="#000000" points="2834.8767,-122 2703.1233,-122 2703.1233,-86 2834.8767,-86 2834.8767,-122"/>
<text text-anchor="middle" x="2769" y="-99.8" font-family="Times,serif" font-size="14.00" fill="#000000">TimelineComponent</text>
</g>
<!-- TimelineComponent&#45;&gt;AppModule -->
<g id="edge25" class="edge">
<title>TimelineComponent&#45;&gt;AppModule</title>
<path fill="none" stroke="#000000" d="M2769,-122.0352C2769,-138.7344 2769,-161 2769,-161 2769,-161 3436.2357,-161 3436.2357,-161"/>
<polygon fill="#000000" stroke="#000000" points="3436.2358,-164.5001 3446.2357,-161 3436.2357,-157.5001 3436.2358,-164.5001"/>
</g>
<!-- TimelinePopupComponent -->
<g id="node26" class="node">
<title>TimelinePopupComponent</title>
<polygon fill="#ffffb3" stroke="#000000" points="2684.6595,-122 2517.3405,-122 2517.3405,-86 2684.6595,-86 2684.6595,-122"/>
<text text-anchor="middle" x="2601" y="-99.8" font-family="Times,serif" font-size="14.00" fill="#000000">TimelinePopupComponent</text>
</g>
<!-- TimelinePopupComponent&#45;&gt;AppModule -->
<g id="edge26" class="edge">
<title>TimelinePopupComponent&#45;&gt;AppModule</title>
<path fill="none" stroke="#000000" d="M2601,-122.0225C2601,-139.3734 2601,-163 2601,-163 2601,-163 3436.1118,-163 3436.1118,-163"/>
<polygon fill="#000000" stroke="#000000" points="3436.1119,-166.5001 3446.1118,-163 3436.1118,-159.5001 3436.1119,-166.5001"/>
</g>
<!-- ToolbarComponent -->
<g id="node27" class="node">
<title>ToolbarComponent</title>
<polygon fill="#ffffb3" stroke="#000000" points="2498.6513,-122 2373.3487,-122 2373.3487,-86 2498.6513,-86 2498.6513,-122"/>
<text text-anchor="middle" x="2436" y="-99.8" font-family="Times,serif" font-size="14.00" fill="#000000">ToolbarComponent</text>
</g>
<!-- ToolbarComponent&#45;&gt;AppModule -->
<g id="edge27" class="edge">
<title>ToolbarComponent&#45;&gt;AppModule</title>
<path fill="none" stroke="#000000" d="M2436,-122.302C2436,-140.2699 2436,-165 2436,-165 2436,-165 3436.1112,-165 3436.1112,-165"/>
<polygon fill="#000000" stroke="#000000" points="3436.1112,-168.5001 3446.1112,-165 3436.1111,-161.5001 3436.1112,-168.5001"/>
</g>
<!-- TripleListComponent -->
<g id="node28" class="node">
<title>TripleListComponent</title>
<polygon fill="#ffffb3" stroke="#000000" points="2355.8202,-122 2218.1798,-122 2218.1798,-86 2355.8202,-86 2355.8202,-122"/>
<text text-anchor="middle" x="2287" y="-99.8" font-family="Times,serif" font-size="14.00" fill="#000000">TripleListComponent</text>
</g>
<!-- TripleListComponent&#45;&gt;AppModule -->
<g id="edge28" class="edge">
<title>TripleListComponent&#45;&gt;AppModule</title>
<path fill="none" stroke="#000000" d="M2287,-122.2667C2287,-140.5552 2287,-166 2287,-166 2287,-166 3436.3101,-166 3436.3101,-166"/>
<polygon fill="#000000" stroke="#000000" points="3436.3101,-169.5001 3446.3101,-166 3436.3101,-162.5001 3436.3101,-169.5001"/>
</g>
<!-- AppComponent  -->
<g id="node31" class="node">
<title>AppComponent </title>
<polygon fill="#80b1d3" stroke="#000000" points="3542.439,-258 3433.561,-258 3433.561,-222 3542.439,-222 3542.439,-258"/>
<text text-anchor="middle" x="3488" y="-235.8" font-family="Times,serif" font-size="14.00" fill="#000000">AppComponent </text>
</g>
<!-- AppModule&#45;&gt;AppComponent  -->
<g id="edge30" class="edge">
<title>AppModule&#45;&gt;AppComponent </title>
<path fill="none" stroke="#000000" stroke-dasharray="1,5" d="M3488,-190.2228C3488,-190.2228 3488,-211.7269 3488,-211.7269"/>
<polygon fill="#000000" stroke="#000000" points="3484.5001,-211.7269 3488,-221.7269 3491.5001,-211.727 3484.5001,-211.7269"/>
</g>
<!-- FormCreatorModule -->
<g id="node30" class="node">
<title>FormCreatorModule</title>
<polygon fill="#8dd3c7" stroke="#000000" points="6727.8613,-122 6724.8613,-126 6703.8613,-126 6700.8613,-122 6596.1387,-122 6596.1387,-86 6727.8613,-86 6727.8613,-122"/>
<text text-anchor="middle" x="6662" y="-99.8" font-family="Times,serif" font-size="14.00" fill="#000000">FormCreatorModule</text>
</g>
<!-- FormCreatorModule&#45;&gt;AppModule -->
<g id="edge29" class="edge">
<title>FormCreatorModule&#45;&gt;AppModule</title>
<path fill="none" stroke="#000000" d="M6662,-122.0263C6662,-146.9773 6662,-189 6662,-189 6662,-189 3539.8783,-189 3539.8783,-189"/>
<polygon fill="#000000" stroke="#000000" points="3539.8783,-185.5001 3529.8783,-189 3539.8782,-192.5001 3539.8783,-185.5001"/>
</g>
<!-- CheckboxInline  -->
<g id="node50" class="node">
<title>CheckboxInline </title>
<polygon fill="#fb8072" stroke="#000000" points="7369.4222,-190 7260.5778,-190 7260.5778,-154 7369.4222,-154 7369.4222,-190"/>
<text text-anchor="middle" x="7315" y="-167.8" font-family="Times,serif" font-size="14.00" fill="#000000">CheckboxInline </text>
</g>
<!-- FormCreatorModule&#45;&gt;CheckboxInline  -->
<g id="edge49" class="edge">
<title>FormCreatorModule&#45;&gt;CheckboxInline </title>
<path fill="none" stroke="#000000" stroke-dasharray="5,2" d="M6727.904,-106C6893.7062,-106 7315,-106 7315,-106 7315,-106 7315,-143.9652 7315,-143.9652"/>
<polygon fill="#000000" stroke="#000000" points="7311.5001,-143.9652 7315,-153.9652 7318.5001,-143.9652 7311.5001,-143.9652"/>
</g>
<!-- NormalBox1  -->
<g id="node51" class="node">
<title>NormalBox1 </title>
<polygon fill="#fb8072" stroke="#000000" points="7242.1005,-190 7149.8995,-190 7149.8995,-154 7242.1005,-154 7242.1005,-190"/>
<text text-anchor="middle" x="7196" y="-167.8" font-family="Times,serif" font-size="14.00" fill="#000000">NormalBox1 </text>
</g>
<!-- FormCreatorModule&#45;&gt;NormalBox1  -->
<g id="edge50" class="edge">
<title>FormCreatorModule&#45;&gt;NormalBox1 </title>
<path fill="none" stroke="#000000" stroke-dasharray="5,2" d="M6728.0145,-109C6870.8866,-109 7196,-109 7196,-109 7196,-109 7196,-143.7778 7196,-143.7778"/>
<polygon fill="#000000" stroke="#000000" points="7192.5001,-143.7778 7196,-153.7778 7199.5001,-143.7778 7192.5001,-143.7778"/>
</g>
<!-- NormalBox2  -->
<g id="node52" class="node">
<title>NormalBox2 </title>
<polygon fill="#fb8072" stroke="#000000" points="7131.1005,-190 7038.8995,-190 7038.8995,-154 7131.1005,-154 7131.1005,-190"/>
<text text-anchor="middle" x="7085" y="-167.8" font-family="Times,serif" font-size="14.00" fill="#000000">NormalBox2 </text>
</g>
<!-- FormCreatorModule&#45;&gt;NormalBox2  -->
<g id="edge51" class="edge">
<title>FormCreatorModule&#45;&gt;NormalBox2 </title>
<path fill="none" stroke="#000000" stroke-dasharray="5,2" d="M6728.0938,-113C6847.0625,-113 7085,-113 7085,-113 7085,-113 7085,-143.9775 7085,-143.9775"/>
<polygon fill="#000000" stroke="#000000" points="7081.5001,-143.9774 7085,-153.9775 7088.5001,-143.9775 7081.5001,-143.9774"/>
</g>
<!-- ScratchPadUpdate  -->
<g id="node53" class="node">
<title>ScratchPadUpdate </title>
<polygon fill="#fb8072" stroke="#000000" points="7020.4012,-190 6897.5988,-190 6897.5988,-154 7020.4012,-154 7020.4012,-190"/>
<text text-anchor="middle" x="6959" y="-167.8" font-family="Times,serif" font-size="14.00" fill="#000000">ScratchPadUpdate </text>
</g>
<!-- FormCreatorModule&#45;&gt;ScratchPadUpdate  -->
<g id="edge52" class="edge">
<title>FormCreatorModule&#45;&gt;ScratchPadUpdate </title>
<path fill="none" stroke="#000000" stroke-dasharray="5,2" d="M6727.9139,-116C6815.4125,-116 6959,-116 6959,-116 6959,-116 6959,-143.973 6959,-143.973"/>
<polygon fill="#000000" stroke="#000000" points="6955.5001,-143.973 6959,-153.973 6962.5001,-143.973 6955.5001,-143.973"/>
</g>
<!-- SelectListSingle  -->
<g id="node54" class="node">
<title>SelectListSingle </title>
<polygon fill="#fb8072" stroke="#000000" points="6879.7647,-190 6768.2353,-190 6768.2353,-154 6879.7647,-154 6879.7647,-190"/>
<text text-anchor="middle" x="6824" y="-167.8" font-family="Times,serif" font-size="14.00" fill="#000000">SelectListSingle </text>
</g>
<!-- FormCreatorModule&#45;&gt;SelectListSingle  -->
<g id="edge53" class="edge">
<title>FormCreatorModule&#45;&gt;SelectListSingle </title>
<path fill="none" stroke="#000000" stroke-dasharray="5,2" d="M6727.8916,-119C6772.7422,-119 6824,-119 6824,-119 6824,-119 6824,-143.7604 6824,-143.7604"/>
<polygon fill="#000000" stroke="#000000" points="6820.5001,-143.7604 6824,-153.7604 6827.5001,-143.7604 6820.5001,-143.7604"/>
</g>
<!-- AssociationService -->
<g id="node32" class="node">
<title>AssociationService</title>
<ellipse fill="#fdb462" stroke="#000000" cx="2108" cy="-104" rx="85.6686" ry="18"/>
<text text-anchor="middle" x="2108" y="-99.8" font-family="Times,serif" font-size="14.00" fill="#000000">AssociationService</text>
</g>
<!-- AssociationService&#45;&gt;AppModule -->
<g id="edge31" class="edge">
<title>AssociationService&#45;&gt;AppModule</title>
<path fill="none" stroke="#000000" d="M2108,-122.1686C2108,-141.0898 2108,-168 2108,-168 2108,-168 3436.3234,-168 3436.3234,-168"/>
<polygon fill="#000000" stroke="#000000" points="3436.3234,-171.5001 3446.3234,-168 3436.3233,-164.5001 3436.3234,-171.5001"/>
</g>
<!-- CarePlanService -->
<g id="node33" class="node">
<title>CarePlanService</title>
<ellipse fill="#fdb462" stroke="#000000" cx="1929" cy="-104" rx="75.2751" ry="18"/>
<text text-anchor="middle" x="1929" y="-99.8" font-family="Times,serif" font-size="14.00" fill="#000000">CarePlanService</text>
</g>
<!-- CarePlanService&#45;&gt;AppModule -->
<g id="edge32" class="edge">
<title>CarePlanService&#45;&gt;AppModule</title>
<path fill="none" stroke="#000000" d="M1929,-122.0348C1929,-141.5762 1929,-170 1929,-170 1929,-170 3436.3005,-170 3436.3005,-170"/>
<polygon fill="#000000" stroke="#000000" points="3436.3006,-173.5001 3446.3005,-170 3436.3005,-166.5001 3436.3006,-173.5001"/>
</g>
<!-- ConditionService -->
<g id="node34" class="node">
<title>ConditionService</title>
<ellipse fill="#fdb462" stroke="#000000" cx="1757" cy="-104" rx="78.7511" ry="18"/>
<text text-anchor="middle" x="1757" y="-99.8" font-family="Times,serif" font-size="14.00" fill="#000000">ConditionService</text>
</g>
<!-- ConditionService&#45;&gt;AppModule -->
<g id="edge33" class="edge">
<title>ConditionService&#45;&gt;AppModule</title>
<path fill="none" stroke="#000000" d="M1757,-122.2228C1757,-142.3652 1757,-172 1757,-172 1757,-172 3436.0687,-172 3436.0687,-172"/>
<polygon fill="#000000" stroke="#000000" points="3436.0687,-175.5001 3446.0687,-172 3436.0687,-168.5001 3436.0687,-175.5001"/>
</g>
<!-- DoctorService -->
<g id="node35" class="node">
<title>DoctorService</title>
<ellipse fill="#fdb462" stroke="#000000" cx="1594" cy="-104" rx="66.6113" ry="18"/>
<text text-anchor="middle" x="1594" y="-99.8" font-family="Times,serif" font-size="14.00" fill="#000000">DoctorService</text>
</g>
<!-- DoctorService&#45;&gt;AppModule -->
<g id="edge34" class="edge">
<title>DoctorService&#45;&gt;AppModule</title>
<path fill="none" stroke="#000000" d="M1594,-122.1289C1594,-142.5724 1594,-173 1594,-173 1594,-173 3436.2338,-173 3436.2338,-173"/>
<polygon fill="#000000" stroke="#000000" points="3436.2338,-176.5001 3446.2338,-173 3436.2337,-169.5001 3436.2338,-176.5001"/>
</g>
<!-- EncounterService -->
<g id="node36" class="node">
<title>EncounterService</title>
<ellipse fill="#fdb462" stroke="#000000" cx="1430" cy="-104" rx="79.8546" ry="18"/>
<text text-anchor="middle" x="1430" y="-99.8" font-family="Times,serif" font-size="14.00" fill="#000000">EncounterService</text>
</g>
<!-- EncounterService&#45;&gt;AppModule -->
<g id="edge35" class="edge">
<title>EncounterService&#45;&gt;AppModule</title>
<path fill="none" stroke="#000000" d="M1430,-122.2843C1430,-143.3211 1430,-175 1430,-175 1430,-175 3435.9581,-175 3435.9581,-175"/>
<polygon fill="#000000" stroke="#000000" points="3435.9581,-178.5001 3445.9581,-175 3435.9581,-171.5001 3435.9581,-178.5001"/>
</g>
<!-- FhirService -->
<g id="node37" class="node">
<title>FhirService</title>
<ellipse fill="#fdb462" stroke="#000000" cx="1276" cy="-104" rx="56.1744" ry="18"/>
<text text-anchor="middle" x="1276" y="-99.8" font-family="Times,serif" font-size="14.00" fill="#000000">FhirService</text>
</g>
<!-- FhirService&#45;&gt;AppModule -->
<g id="edge36" class="edge">
<title>FhirService&#45;&gt;AppModule</title>
<path fill="none" stroke="#000000" d="M1276,-122.0449C1276,-143.6623 1276,-177 1276,-177 1276,-177 3436.2742,-177 3436.2742,-177"/>
<polygon fill="#000000" stroke="#000000" points="3436.2743,-180.5001 3446.2742,-177 3436.2742,-173.5001 3436.2743,-180.5001"/>
</g>
<!-- HistoricalTrendsService -->
<g id="node38" class="node">
<title>HistoricalTrendsService</title>
<ellipse fill="#fdb462" stroke="#000000" cx="1097" cy="-104" rx="104.7675" ry="18"/>
<text text-anchor="middle" x="1097" y="-99.8" font-family="Times,serif" font-size="14.00" fill="#000000">HistoricalTrendsService</text>
</g>
<!-- HistoricalTrendsService&#45;&gt;AppModule -->
<g id="edge37" class="edge">
<title>HistoricalTrendsService&#45;&gt;AppModule</title>
<path fill="none" stroke="#000000" d="M1097,-122.2921C1097,-144.2057 1097,-178 1097,-178 1097,-178 3436.2471,-178 3436.2471,-178"/>
<polygon fill="#000000" stroke="#000000" points="3436.2471,-181.5001 3446.2471,-178 3436.2471,-174.5001 3436.2471,-181.5001"/>
</g>
<!-- MapService -->
<g id="node39" class="node">
<title>MapService</title>
<ellipse fill="#fdb462" stroke="#000000" cx="916" cy="-104" rx="57.8829" ry="18"/>
<text text-anchor="middle" x="916" y="-99.8" font-family="Times,serif" font-size="14.00" fill="#000000">MapService</text>
</g>
<!-- MapService&#45;&gt;AppModule -->
<g id="edge38" class="edge">
<title>MapService&#45;&gt;AppModule</title>
<path fill="none" stroke="#000000" d="M916,-122.0109C916,-144.4852 916,-180 916,-180 916,-180 3436.2959,-180 3436.2959,-180"/>
<polygon fill="#000000" stroke="#000000" points="3436.2959,-183.5001 3446.2959,-180 3436.2958,-176.5001 3436.2959,-183.5001"/>
</g>
<!-- ObservationService -->
<g id="node40" class="node">
<title>ObservationService</title>
<ellipse fill="#fdb462" stroke="#000000" cx="753" cy="-104" rx="87.377" ry="18"/>
<text text-anchor="middle" x="753" y="-99.8" font-family="Times,serif" font-size="14.00" fill="#000000">ObservationService</text>
</g>
<!-- ObservationService&#45;&gt;AppModule -->
<g id="edge39" class="edge">
<title>ObservationService&#45;&gt;AppModule</title>
<path fill="none" stroke="#000000" d="M753,-122.0908C753,-145.1328 753,-182 753,-182 753,-182 3436.1341,-182 3436.1341,-182"/>
<polygon fill="#000000" stroke="#000000" points="3436.1342,-185.5001 3446.1341,-182 3436.1341,-178.5001 3436.1342,-185.5001"/>
</g>
<!-- PatientService -->
<g id="node41" class="node">
<title>PatientService</title>
<ellipse fill="#fdb462" stroke="#000000" cx="581" cy="-104" rx="66.6267" ry="18"/>
<text text-anchor="middle" x="581" y="-99.8" font-family="Times,serif" font-size="14.00" fill="#000000">PatientService</text>
</g>
<!-- PatientService&#45;&gt;AppModule -->
<g id="edge40" class="edge">
<title>PatientService&#45;&gt;AppModule</title>
<path fill="none" stroke="#000000" d="M581,-122.1532C581,-145.7566 581,-184 581,-184 581,-184 3436.0666,-184 3436.0666,-184"/>
<polygon fill="#000000" stroke="#000000" points="3436.0667,-187.5001 3446.0666,-184 3436.0666,-180.5001 3436.0667,-187.5001"/>
</g>
<!-- ScratchPadService -->
<g id="node42" class="node">
<title>ScratchPadService</title>
<ellipse fill="#fdb462" stroke="#000000" cx="413" cy="-104" rx="83.3616" ry="18"/>
<text text-anchor="middle" x="413" y="-99.8" font-family="Times,serif" font-size="14.00" fill="#000000">ScratchPadService</text>
</g>
<!-- ScratchPadService&#45;&gt;AppModule -->
<g id="edge41" class="edge">
<title>ScratchPadService&#45;&gt;AppModule</title>
<path fill="none" stroke="#000000" d="M413,-122.3802C413,-146.2785 413,-185 413,-185 413,-185 3436.2805,-185 3436.2805,-185"/>
<polygon fill="#000000" stroke="#000000" points="3436.2805,-188.5001 3446.2805,-185 3436.2804,-181.5001 3436.2805,-188.5001"/>
</g>
<!-- SmartService -->
<g id="node43" class="node">
<title>SmartService</title>
<ellipse fill="#fdb462" stroke="#000000" cx="249" cy="-104" rx="63.1151" ry="18"/>
<text text-anchor="middle" x="249" y="-99.8" font-family="Times,serif" font-size="14.00" fill="#000000">SmartService</text>
</g>
<!-- SmartService&#45;&gt;AppModule -->
<g id="edge42" class="edge">
<title>SmartService&#45;&gt;AppModule</title>
<path fill="none" stroke="#000000" d="M249,-122.0098C249,-146.4207 249,-187 249,-187 249,-187 3436.1601,-187 3436.1601,-187"/>
<polygon fill="#000000" stroke="#000000" points="3436.1601,-190.5001 3446.1601,-187 3436.1601,-183.5001 3436.1601,-190.5001"/>
</g>
<!-- ToolBarService -->
<g id="node44" class="node">
<title>ToolBarService</title>
<ellipse fill="#fdb462" stroke="#000000" cx="96" cy="-104" rx="72.3477" ry="18"/>
<text text-anchor="middle" x="96" y="-99.8" font-family="Times,serif" font-size="14.00" fill="#000000">ToolBarService</text>
</g>
<!-- ToolBarService&#45;&gt;AppModule -->
<g id="edge43" class="edge">
<title>ToolBarService&#45;&gt;AppModule</title>
<path fill="none" stroke="#000000" d="M96,-122.0263C96,-146.9773 96,-189 96,-189 96,-189 3436.3363,-189 3436.3363,-189"/>
<polygon fill="#000000" stroke="#000000" points="3436.3364,-192.5001 3446.3363,-189 3436.3363,-185.5001 3436.3364,-192.5001"/>
</g>
<!-- CheckboxInline -->
<g id="node45" class="node">
<title>CheckboxInline</title>
<polygon fill="#ffffb3" stroke="#000000" points="7975.923,-190 7870.077,-190 7870.077,-154 7975.923,-154 7975.923,-190"/>
<text text-anchor="middle" x="7923" y="-167.8" font-family="Times,serif" font-size="14.00" fill="#000000">CheckboxInline</text>
</g>
<!-- CheckboxInline&#45;&gt;FormCreatorModule -->
<g id="edge44" class="edge">
<title>CheckboxInline&#45;&gt;FormCreatorModule</title>
<path fill="none" stroke="#000000" d="M7923,-153.8015C7923,-129.6437 7923,-90 7923,-90 7923,-90 6738.0214,-90 6738.0214,-90"/>
<polygon fill="#000000" stroke="#000000" points="6738.0214,-86.5001 6728.0214,-90 6738.0214,-93.5001 6738.0214,-86.5001"/>
</g>
<!-- NormalBox1 -->
<g id="node46" class="node">
<title>NormalBox1</title>
<polygon fill="#ffffb3" stroke="#000000" points="7852.5997,-190 7763.4003,-190 7763.4003,-154 7852.5997,-154 7852.5997,-190"/>
<text text-anchor="middle" x="7808" y="-167.8" font-family="Times,serif" font-size="14.00" fill="#000000">NormalBox1</text>
</g>
<!-- NormalBox1&#45;&gt;FormCreatorModule -->
<g id="edge45" class="edge">
<title>NormalBox1&#45;&gt;FormCreatorModule</title>
<path fill="none" stroke="#000000" d="M7808,-153.6772C7808,-130.3398 7808,-93 7808,-93 7808,-93 6738.148,-93 6738.148,-93"/>
<polygon fill="#000000" stroke="#000000" points="6738.1481,-89.5001 6728.148,-93 6738.148,-96.5001 6738.1481,-89.5001"/>
</g>
<!-- NormalBox2 -->
<g id="node47" class="node">
<title>NormalBox2</title>
<polygon fill="#ffffb3" stroke="#000000" points="7745.5997,-190 7656.4003,-190 7656.4003,-154 7745.5997,-154 7745.5997,-190"/>
<text text-anchor="middle" x="7701" y="-167.8" font-family="Times,serif" font-size="14.00" fill="#000000">NormalBox2</text>
</g>
<!-- NormalBox2&#45;&gt;FormCreatorModule -->
<g id="edge46" class="edge">
<title>NormalBox2&#45;&gt;FormCreatorModule</title>
<path fill="none" stroke="#000000" d="M7701,-153.9891C7701,-131.5148 7701,-96 7701,-96 7701,-96 6738.178,-96 6738.178,-96"/>
<polygon fill="#000000" stroke="#000000" points="6738.178,-92.5001 6728.178,-96 6738.178,-99.5001 6738.178,-92.5001"/>
</g>
<!-- ScratchPadUpdate -->
<g id="node48" class="node">
<title>ScratchPadUpdate</title>
<polygon fill="#ffffb3" stroke="#000000" points="7638.9019,-190 7519.0981,-190 7519.0981,-154 7638.9019,-154 7638.9019,-190"/>
<text text-anchor="middle" x="7579" y="-167.8" font-family="Times,serif" font-size="14.00" fill="#000000">ScratchPadUpdate</text>
</g>
<!-- ScratchPadUpdate&#45;&gt;FormCreatorModule -->
<g id="edge47" class="edge">
<title>ScratchPadUpdate&#45;&gt;FormCreatorModule</title>
<path fill="none" stroke="#000000" d="M7579,-153.8314C7579,-132.502 7579,-100 7579,-100 7579,-100 6737.9484,-100 6737.9484,-100"/>
<polygon fill="#000000" stroke="#000000" points="6737.9484,-96.5001 6727.9484,-100 6737.9483,-103.5001 6737.9484,-96.5001"/>
</g>
<!-- SelectListSingle -->
<g id="node49" class="node">
<title>SelectListSingle</title>
<polygon fill="#ffffb3" stroke="#000000" points="7500.7647,-190 7393.2353,-190 7393.2353,-154 7500.7647,-154 7500.7647,-190"/>
<text text-anchor="middle" x="7447" y="-167.8" font-family="Times,serif" font-size="14.00" fill="#000000">SelectListSingle</text>
</g>
<!-- SelectListSingle&#45;&gt;FormCreatorModule -->
<g id="edge48" class="edge">
<title>SelectListSingle&#45;&gt;FormCreatorModule</title>
<path fill="none" stroke="#000000" d="M7447,-153.8711C7447,-133.4276 7447,-103 7447,-103 7447,-103 6737.9149,-103 6737.9149,-103"/>
<polygon fill="#000000" stroke="#000000" points="6737.915,-99.5001 6727.9149,-103 6737.9149,-106.5001 6737.915,-99.5001"/>
</g>
</g>
</svg>
