<?xml version="1.0" encoding="UTF-8" standalone="no"?>
<!DOCTYPE svg PUBLIC "-//W3C//DTD SVG 1.1//EN"
 "http://www.w3.org/Graphics/SVG/1.1/DTD/svg11.dtd">
<!-- Generated by graphviz version 2.40.1 (20161225.0304)
 -->
<!-- Title: dependencies Pages: 1 -->
<svg width="6633pt" height="284pt"
 viewBox="0.00 0.00 6633.00 284.00" xmlns="http://www.w3.org/2000/svg" xmlns:xlink="http://www.w3.org/1999/xlink">
<g id="graph0" class="graph" transform="scale(1 1) rotate(0) translate(4 280)">
<title>dependencies</title>
<polygon fill="#ffffff" stroke="transparent" points="-4,4 -4,-280 6629,-280 6629,4 -4,4"/>
<text text-anchor="start" x="3291.5091" y="-42.4" font-family="sans-serif" font-weight="bold" font-size="14.00" fill="#000000">Legend</text>
<polygon fill="#ffffb3" stroke="transparent" points="3078.5,-10 3078.5,-30 3098.5,-30 3098.5,-10 3078.5,-10"/>
<text text-anchor="start" x="3102.129" y="-15.4" font-family="sans-serif" font-size="14.00" fill="#000000"> &#160;Declarations</text>
<polygon fill="#8dd3c7" stroke="transparent" points="3191.5,-10 3191.5,-30 3211.5,-30 3211.5,-10 3191.5,-10"/>
<text text-anchor="start" x="3215.2251" y="-15.4" font-family="sans-serif" font-size="14.00" fill="#000000"> &#160;Module</text>
<polygon fill="#80b1d3" stroke="transparent" points="3277.5,-10 3277.5,-30 3297.5,-30 3297.5,-10 3277.5,-10"/>
<text text-anchor="start" x="3301.2812" y="-15.4" font-family="sans-serif" font-size="14.00" fill="#000000"> &#160;Bootstrap</text>
<polygon fill="#fdb462" stroke="transparent" points="3374.5,-10 3374.5,-30 3394.5,-30 3394.5,-10 3374.5,-10"/>
<text text-anchor="start" x="3398.1732" y="-15.4" font-family="sans-serif" font-size="14.00" fill="#000000"> &#160;Providers</text>
<polygon fill="#fb8072" stroke="transparent" points="3470.5,-10 3470.5,-30 3490.5,-30 3490.5,-10 3470.5,-10"/>
<text text-anchor="start" x="3494.2258" y="-15.4" font-family="sans-serif" font-size="14.00" fill="#000000"> &#160;Exports</text>
<g id="clust1" class="cluster">
<title>cluster_AppModule</title>
<polygon fill="none" stroke="#000000" stroke-dasharray="1,5" points="8,-70 8,-268 6617,-268 6617,-70 8,-70"/>
</g>
<g id="clust2" class="cluster">
<title>cluster_AppModule_declarations</title>
<polygon fill="none" stroke="#000000" points="2366,-78 2366,-130 6609,-130 6609,-78 2366,-78"/>
</g>
<g id="clust30" class="cluster">
<title>cluster_AppModule_imports</title>
<polygon fill="none" stroke="#000000" points="2210,-78 2210,-130 2358,-130 2358,-78 2210,-78"/>
</g>
<g id="clust32" class="cluster">
<title>cluster_AppModule_bootstrap</title>
<polygon fill="none" stroke="#000000" points="3314,-208 3314,-260 3438,-260 3438,-208 3314,-208"/>
</g>
<g id="clust33" class="cluster">
<title>cluster_AppModule_providers</title>
<polygon fill="none" stroke="#000000" points="16,-78 16,-130 2202,-130 2202,-78 16,-78"/>
</g>
<!-- AccordionRecursion -->
<g id="node1" class="node">
<title>AccordionRecursion</title>
<polygon fill="#ffffb3" stroke="#000000" points="6600.8487,-122 6469.1513,-122 6469.1513,-86 6600.8487,-86 6600.8487,-122"/>
<text text-anchor="middle" x="6535" y="-99.8" font-family="Times,serif" font-size="14.00" fill="#000000">AccordionRecursion</text>
</g>
<!-- AppModule -->
<g id="node28" class="node">
<title>AppModule</title>
<polygon fill="#8dd3c7" stroke="#000000" points="3417.6571,-187 3414.6571,-191 3393.6571,-191 3390.6571,-187 3334.3429,-187 3334.3429,-151 3417.6571,-151 3417.6571,-187"/>
<text text-anchor="middle" x="3376" y="-164.8" font-family="Times,serif" font-size="14.00" fill="#000000">AppModule</text>
</g>
<!-- AccordionRecursion&#45;&gt;AppModule -->
<g id="edge1" class="edge">
<title>AccordionRecursion&#45;&gt;AppModule</title>
<path fill="none" stroke="#000000" d="M6535,-122.1985C6535,-146.3563 6535,-186 6535,-186 6535,-186 3427.6804,-186 3427.6804,-186"/>
<polygon fill="#000000" stroke="#000000" points="3427.6804,-182.5001 3417.6804,-186 3427.6803,-189.5001 3427.6804,-182.5001"/>
</g>
<!-- AccountComponent -->
<g id="node2" class="node">
<title>AccountComponent</title>
<polygon fill="#ffffb3" stroke="#000000" points="6451.259,-122 6322.741,-122 6322.741,-86 6451.259,-86 6451.259,-122"/>
<text text-anchor="middle" x="6387" y="-99.8" font-family="Times,serif" font-size="14.00" fill="#000000">AccountComponent</text>
</g>
<!-- AccountComponent&#45;&gt;AppModule -->
<g id="edge2" class="edge">
<title>AccountComponent&#45;&gt;AppModule</title>
<path fill="none" stroke="#000000" d="M6387,-122.1532C6387,-145.7566 6387,-184 6387,-184 6387,-184 3427.7037,-184 3427.7037,-184"/>
<polygon fill="#000000" stroke="#000000" points="3427.7037,-180.5001 3417.7037,-184 3427.7036,-187.5001 3427.7037,-180.5001"/>
</g>
<!-- AppComponent -->
<g id="node3" class="node">
<title>AppComponent</title>
<polygon fill="#ffffb3" stroke="#000000" points="6304.9399,-122 6199.0601,-122 6199.0601,-86 6304.9399,-86 6304.9399,-122"/>
<text text-anchor="middle" x="6252" y="-99.8" font-family="Times,serif" font-size="14.00" fill="#000000">AppComponent</text>
</g>
<!-- AppComponent&#45;&gt;AppModule -->
<g id="edge3" class="edge">
<title>AppComponent&#45;&gt;AppModule</title>
<path fill="none" stroke="#000000" d="M6252,-122.0908C6252,-145.1328 6252,-182 6252,-182 6252,-182 3427.7647,-182 3427.7647,-182"/>
<polygon fill="#000000" stroke="#000000" points="3427.7647,-178.5001 3417.7647,-182 3427.7646,-185.5001 3427.7647,-178.5001"/>
</g>
<!-- CarePlanDisplay -->
<g id="node4" class="node">
<title>CarePlanDisplay</title>
<polygon fill="#ffffb3" stroke="#000000" points="6181.3613,-122 6070.6387,-122 6070.6387,-86 6181.3613,-86 6181.3613,-122"/>
<text text-anchor="middle" x="6126" y="-99.8" font-family="Times,serif" font-size="14.00" fill="#000000">CarePlanDisplay</text>
</g>
<!-- CarePlanDisplay&#45;&gt;AppModule -->
<g id="edge4" class="edge">
<title>CarePlanDisplay&#45;&gt;AppModule</title>
<path fill="none" stroke="#000000" d="M6126,-122.2479C6126,-145.0179 6126,-181 6126,-181 6126,-181 3427.8225,-181 3427.8225,-181"/>
<polygon fill="#000000" stroke="#000000" points="3427.8225,-177.5001 3417.8225,-181 3427.8224,-184.5001 3427.8225,-177.5001"/>
</g>
<!-- CarePlansComponent -->
<g id="node5" class="node">
<title>CarePlansComponent</title>
<polygon fill="#ffffb3" stroke="#000000" points="6053.0912,-122 5914.9088,-122 5914.9088,-86 6053.0912,-86 6053.0912,-122"/>
<text text-anchor="middle" x="5984" y="-99.8" font-family="Times,serif" font-size="14.00" fill="#000000">CarePlansComponent</text>
</g>
<!-- CarePlansComponent&#45;&gt;AppModule -->
<g id="edge5" class="edge">
<title>CarePlansComponent&#45;&gt;AppModule</title>
<path fill="none" stroke="#000000" d="M5984,-122.1554C5984,-144.3519 5984,-179 5984,-179 5984,-179 3427.7565,-179 3427.7565,-179"/>
<polygon fill="#000000" stroke="#000000" points="3427.7565,-175.5001 3417.7565,-179 3427.7565,-182.5001 3427.7565,-175.5001"/>
</g>
<!-- ColumnStateSwitcherComponent -->
<g id="node6" class="node">
<title>ColumnStateSwitcherComponent</title>
<polygon fill="#ffffb3" stroke="#000000" points="5897.2035,-122 5692.7965,-122 5692.7965,-86 5897.2035,-86 5897.2035,-122"/>
<text text-anchor="middle" x="5795" y="-99.8" font-family="Times,serif" font-size="14.00" fill="#000000">ColumnStateSwitcherComponent</text>
</g>
<!-- ColumnStateSwitcherComponent&#45;&gt;AppModule -->
<g id="edge6" class="edge">
<title>ColumnStateSwitcherComponent&#45;&gt;AppModule</title>
<path fill="none" stroke="#000000" d="M5795,-122.0449C5795,-143.6623 5795,-177 5795,-177 5795,-177 3427.7314,-177 3427.7314,-177"/>
<polygon fill="#000000" stroke="#000000" points="3427.7315,-173.5001 3417.7314,-177 3427.7314,-180.5001 3427.7315,-173.5001"/>
</g>
<!-- ConditionsChartComponent -->
<g id="node7" class="node">
<title>ConditionsChartComponent</title>
<polygon fill="#ffffb3" stroke="#000000" points="5674.8878,-122 5501.1122,-122 5501.1122,-86 5674.8878,-86 5674.8878,-122"/>
<text text-anchor="middle" x="5588" y="-99.8" font-family="Times,serif" font-size="14.00" fill="#000000">ConditionsChartComponent</text>
</g>
<!-- ConditionsChartComponent&#45;&gt;AppModule -->
<g id="edge7" class="edge">
<title>ConditionsChartComponent&#45;&gt;AppModule</title>
<path fill="none" stroke="#000000" d="M5588,-122.2843C5588,-143.3211 5588,-175 5588,-175 5588,-175 3427.7258,-175 3427.7258,-175"/>
<polygon fill="#000000" stroke="#000000" points="3427.7258,-171.5001 3417.7258,-175 3427.7257,-178.5001 3427.7258,-171.5001"/>
</g>
<!-- ConditionsComponent -->
<g id="node8" class="node">
<title>ConditionsComponent</title>
<polygon fill="#ffffb3" stroke="#000000" points="5483.2856,-122 5340.7144,-122 5340.7144,-86 5483.2856,-86 5483.2856,-122"/>
<text text-anchor="middle" x="5412" y="-99.8" font-family="Times,serif" font-size="14.00" fill="#000000">ConditionsComponent</text>
</g>
<!-- ConditionsComponent&#45;&gt;AppModule -->
<g id="edge8" class="edge">
<title>ConditionsComponent&#45;&gt;AppModule</title>
<path fill="none" stroke="#000000" d="M5412,-122.0267C5412,-142.7672 5412,-174 5412,-174 5412,-174 3428.0574,-174 3428.0574,-174"/>
<polygon fill="#000000" stroke="#000000" points="3428.0574,-170.5001 3418.0574,-174 3428.0574,-177.5001 3428.0574,-170.5001"/>
</g>
<!-- ConditionsDisplay -->
<g id="node9" class="node">
<title>ConditionsDisplay</title>
<polygon fill="#ffffb3" stroke="#000000" points="5322.5,-122 5201.5,-122 5201.5,-86 5322.5,-86 5322.5,-122"/>
<text text-anchor="middle" x="5262" y="-99.8" font-family="Times,serif" font-size="14.00" fill="#000000">ConditionsDisplay</text>
</g>
<!-- ConditionsDisplay&#45;&gt;AppModule -->
<g id="edge9" class="edge">
<title>ConditionsDisplay&#45;&gt;AppModule</title>
<path fill="none" stroke="#000000" d="M5262,-122.2228C5262,-142.3652 5262,-172 5262,-172 5262,-172 3428.0361,-172 3428.0361,-172"/>
<polygon fill="#000000" stroke="#000000" points="3428.0361,-168.5001 3418.0361,-172 3428.0361,-175.5001 3428.0361,-168.5001"/>
</g>
<!-- ContextMenuComponent -->
<g id="node10" class="node">
<title>ContextMenuComponent</title>
<polygon fill="#ffffb3" stroke="#000000" points="5183.3243,-122 5024.6757,-122 5024.6757,-86 5183.3243,-86 5183.3243,-122"/>
<text text-anchor="middle" x="5104" y="-99.8" font-family="Times,serif" font-size="14.00" fill="#000000">ContextMenuComponent</text>
</g>
<!-- ContextMenuComponent&#45;&gt;AppModule -->
<g id="edge10" class="edge">
<title>ContextMenuComponent&#45;&gt;AppModule</title>
<path fill="none" stroke="#000000" d="M5104,-122.0348C5104,-141.5762 5104,-170 5104,-170 5104,-170 3427.8586,-170 3427.8586,-170"/>
<polygon fill="#000000" stroke="#000000" points="3427.8587,-166.5001 3417.8586,-170 3427.8586,-173.5001 3427.8587,-166.5001"/>
</g>
<!-- FormBuilder -->
<g id="node11" class="node">
<title>FormBuilder</title>
<polygon fill="#ffffb3" stroke="#000000" points="5007.3274,-122 4918.6726,-122 4918.6726,-86 5007.3274,-86 5007.3274,-122"/>
<text text-anchor="middle" x="4963" y="-99.8" font-family="Times,serif" font-size="14.00" fill="#000000">FormBuilder</text>
</g>
<!-- FormBuilder&#45;&gt;AppModule -->
<g id="edge11" class="edge">
<title>FormBuilder&#45;&gt;AppModule</title>
<path fill="none" stroke="#000000" d="M4963,-122.1061C4963,-141.3391 4963,-169 4963,-169 4963,-169 3428.0396,-169 3428.0396,-169"/>
<polygon fill="#000000" stroke="#000000" points="3428.0397,-165.5001 3418.0396,-169 3428.0396,-172.5001 3428.0397,-165.5001"/>
</g>
<!-- HistoricalTrendsComponent -->
<g id="node12" class="node">
<title>HistoricalTrendsComponent</title>
<polygon fill="#ffffb3" stroke="#000000" points="4900.9087,-122 4725.0913,-122 4725.0913,-86 4900.9087,-86 4900.9087,-122"/>
<text text-anchor="middle" x="4813" y="-99.8" font-family="Times,serif" font-size="14.00" fill="#000000">HistoricalTrendsComponent</text>
</g>
<!-- HistoricalTrendsComponent&#45;&gt;AppModule -->
<g id="edge12" class="edge">
<title>HistoricalTrendsComponent&#45;&gt;AppModule</title>
<path fill="none" stroke="#000000" d="M4813,-122.2222C4813,-140.8285 4813,-167 4813,-167 4813,-167 3427.8418,-167 3427.8418,-167"/>
<polygon fill="#000000" stroke="#000000" points="3427.8419,-163.5001 3417.8418,-167 3427.8418,-170.5001 3427.8419,-163.5001"/>
</g>
<!-- HomeComponent -->
<g id="node13" class="node">
<title>HomeComponent</title>
<polygon fill="#ffffb3" stroke="#000000" points="4707.5451,-122 4592.4549,-122 4592.4549,-86 4707.5451,-86 4707.5451,-122"/>
<text text-anchor="middle" x="4650" y="-99.8" font-family="Times,serif" font-size="14.00" fill="#000000">HomeComponent</text>
</g>
<!-- HomeComponent&#45;&gt;AppModule -->
<g id="edge13" class="edge">
<title>HomeComponent&#45;&gt;AppModule</title>
<path fill="none" stroke="#000000" d="M4650,-122.302C4650,-140.2699 4650,-165 4650,-165 4650,-165 3427.6639,-165 3427.6639,-165"/>
<polygon fill="#000000" stroke="#000000" points="3427.664,-161.5001 3417.6639,-165 3427.6639,-168.5001 3427.664,-161.5001"/>
</g>
<!-- HoverBoxComponent -->
<g id="node14" class="node">
<title>HoverBoxComponent</title>
<polygon fill="#ffffb3" stroke="#000000" points="4573.6512,-122 4434.3488,-122 4434.3488,-86 4573.6512,-86 4573.6512,-122"/>
<text text-anchor="middle" x="4504" y="-99.8" font-family="Times,serif" font-size="14.00" fill="#000000">HoverBoxComponent</text>
</g>
<!-- HoverBoxComponent&#45;&gt;AppModule -->
<g id="edge14" class="edge">
<title>HoverBoxComponent&#45;&gt;AppModule</title>
<path fill="none" stroke="#000000" d="M4504,-122.0225C4504,-139.3734 4504,-163 4504,-163 4504,-163 3427.8214,-163 3427.8214,-163"/>
<polygon fill="#000000" stroke="#000000" points="3427.8215,-159.5001 3417.8214,-163 3427.8214,-166.5001 3427.8215,-159.5001"/>
</g>
<!-- LoadingAnimation -->
<g id="node15" class="node">
<title>LoadingAnimation</title>
<polygon fill="#ffffb3" stroke="#000000" points="4416.0423,-122 4293.9577,-122 4293.9577,-86 4416.0423,-86 4416.0423,-122"/>
<text text-anchor="middle" x="4355" y="-99.8" font-family="Times,serif" font-size="14.00" fill="#000000">LoadingAnimation</text>
</g>
<!-- LoadingAnimation&#45;&gt;AppModule -->
<g id="edge15" class="edge">
<title>LoadingAnimation&#45;&gt;AppModule</title>
<path fill="none" stroke="#000000" d="M4355,-122.0336C4355,-139.0597 4355,-162 4355,-162 4355,-162 3427.7532,-162 3427.7532,-162"/>
<polygon fill="#000000" stroke="#000000" points="3427.7533,-158.5001 3417.7532,-162 3427.7532,-165.5001 3427.7533,-158.5001"/>
</g>
<!-- MedicationsComponent -->
<g id="node16" class="node">
<title>MedicationsComponent</title>
<polygon fill="#ffffb3" stroke="#000000" points="4275.0379,-122 4124.9621,-122 4124.9621,-86 4275.0379,-86 4275.0379,-122"/>
<text text-anchor="middle" x="4200" y="-99.8" font-family="Times,serif" font-size="14.00" fill="#000000">MedicationsComponent</text>
</g>
<!-- MedicationsComponent&#45;&gt;AppModule -->
<g id="edge16" class="edge">
<title>MedicationsComponent&#45;&gt;AppModule</title>
<path fill="none" stroke="#000000" d="M4200,-122.027C4200,-138.3976 4200,-160 4200,-160 4200,-160 3427.7106,-160 3427.7106,-160"/>
<polygon fill="#000000" stroke="#000000" points="3427.7107,-156.5001 3417.7106,-160 3427.7106,-163.5001 3427.7107,-156.5001"/>
</g>
<!-- NewCondition -->
<g id="node17" class="node">
<title>NewCondition</title>
<polygon fill="#ffffb3" stroke="#000000" points="4107.4372,-122 4008.5628,-122 4008.5628,-86 4107.4372,-86 4107.4372,-122"/>
<text text-anchor="middle" x="4058" y="-99.8" font-family="Times,serif" font-size="14.00" fill="#000000">NewCondition</text>
</g>
<!-- NewCondition&#45;&gt;AppModule -->
<g id="edge17" class="edge">
<title>NewCondition&#45;&gt;AppModule</title>
<path fill="none" stroke="#000000" d="M4058,-122.2819C4058,-137.9478 4058,-158 4058,-158 4058,-158 3427.8912,-158 3427.8912,-158"/>
<polygon fill="#000000" stroke="#000000" points="3427.8912,-154.5001 3417.8912,-158 3427.8911,-161.5001 3427.8912,-154.5001"/>
</g>
<!-- NoteNavigationComponent -->
<g id="node18" class="node">
<title>NoteNavigationComponent</title>
<polygon fill="#ffffb3" stroke="#000000" points="3990.252,-122 3819.748,-122 3819.748,-86 3990.252,-86 3990.252,-122"/>
<text text-anchor="middle" x="3905" y="-99.8" font-family="Times,serif" font-size="14.00" fill="#000000">NoteNavigationComponent</text>
</g>
<!-- NoteNavigationComponent&#45;&gt;AppModule -->
<g id="edge18" class="edge">
<title>NoteNavigationComponent&#45;&gt;AppModule</title>
<path fill="none" stroke="#000000" d="M3905,-122.2396C3905,-137.5706 3905,-157 3905,-157 3905,-157 3427.9519,-157 3427.9519,-157"/>
<polygon fill="#000000" stroke="#000000" points="3427.9519,-153.5001 3417.9519,-157 3427.9519,-160.5001 3427.9519,-153.5001"/>
</g>
<!-- ObservationRecursive -->
<g id="node19" class="node">
<title>ObservationRecursive</title>
<polygon fill="#ffffb3" stroke="#000000" points="3801.399,-122 3660.601,-122 3660.601,-86 3801.399,-86 3801.399,-122"/>
<text text-anchor="middle" x="3731" y="-99.8" font-family="Times,serif" font-size="14.00" fill="#000000">ObservationRecursive</text>
</g>
<!-- ObservationRecursive&#45;&gt;AppModule -->
<g id="edge19" class="edge">
<title>ObservationRecursive&#45;&gt;AppModule</title>
<path fill="none" stroke="#000000" d="M3731,-122.1243C3731,-136.7832 3731,-155 3731,-155 3731,-155 3427.7669,-155 3427.7669,-155"/>
<polygon fill="#000000" stroke="#000000" points="3427.767,-151.5001 3417.7669,-155 3427.7669,-158.5001 3427.767,-151.5001"/>
</g>
<!-- ObservationRecursiveChart -->
<g id="node20" class="node">
<title>ObservationRecursiveChart</title>
<polygon fill="#ffffb3" stroke="#000000" points="3642.5015,-122 3471.4985,-122 3471.4985,-86 3642.5015,-86 3642.5015,-122"/>
<text text-anchor="middle" x="3557" y="-99.8" font-family="Times,serif" font-size="14.00" fill="#000000">ObservationRecursiveChart</text>
</g>
<!-- ObservationRecursiveChart&#45;&gt;AppModule -->
<g id="edge20" class="edge">
<title>ObservationRecursiveChart&#45;&gt;AppModule</title>
<path fill="none" stroke="#000000" d="M3557,-122.2458C3557,-136.1772 3557,-153 3557,-153 3557,-153 3427.98,-153 3427.98,-153"/>
<polygon fill="#000000" stroke="#000000" points="3427.98,-149.5001 3417.98,-153 3427.9799,-156.5001 3427.98,-149.5001"/>
</g>
<!-- ObservationsComponent -->
<g id="node21" class="node">
<title>ObservationsComponent</title>
<polygon fill="#ffffb3" stroke="#000000" points="3453.6993,-122 3298.3007,-122 3298.3007,-86 3453.6993,-86 3453.6993,-122"/>
<text text-anchor="middle" x="3376" y="-99.8" font-family="Times,serif" font-size="14.00" fill="#000000">ObservationsComponent</text>
</g>
<!-- ObservationsComponent&#45;&gt;AppModule -->
<g id="edge21" class="edge">
<title>ObservationsComponent&#45;&gt;AppModule</title>
<path fill="none" stroke="#000000" d="M3376,-122.1061C3376,-122.1061 3376,-140.991 3376,-140.991"/>
<polygon fill="#000000" stroke="#000000" points="3372.5001,-140.9909 3376,-150.991 3379.5001,-140.991 3372.5001,-140.9909"/>
</g>
<!-- ObservationsDisplay -->
<g id="node22" class="node">
<title>ObservationsDisplay</title>
<polygon fill="#ffffb3" stroke="#000000" points="3280.9144,-122 3147.0856,-122 3147.0856,-86 3280.9144,-86 3280.9144,-122"/>
<text text-anchor="middle" x="3214" y="-99.8" font-family="Times,serif" font-size="14.00" fill="#000000">ObservationsDisplay</text>
</g>
<!-- ObservationsDisplay&#45;&gt;AppModule -->
<g id="edge22" class="edge">
<title>ObservationsDisplay&#45;&gt;AppModule</title>
<path fill="none" stroke="#000000" d="M3214,-122.2458C3214,-136.1772 3214,-153 3214,-153 3214,-153 3324.281,-153 3324.281,-153"/>
<polygon fill="#000000" stroke="#000000" points="3324.281,-156.5001 3334.281,-153 3324.2809,-149.5001 3324.281,-156.5001"/>
</g>
<!-- PatientComponent -->
<g id="node23" class="node">
<title>PatientComponent</title>
<polygon fill="#ffffb3" stroke="#000000" points="3129.2162,-122 3008.7838,-122 3008.7838,-86 3129.2162,-86 3129.2162,-122"/>
<text text-anchor="middle" x="3069" y="-99.8" font-family="Times,serif" font-size="14.00" fill="#000000">PatientComponent</text>
</g>
<!-- PatientComponent&#45;&gt;AppModule -->
<g id="edge23" class="edge">
<title>PatientComponent&#45;&gt;AppModule</title>
<path fill="none" stroke="#000000" d="M3069,-122.1243C3069,-136.7832 3069,-155 3069,-155 3069,-155 3324.2771,-155 3324.2771,-155"/>
<polygon fill="#000000" stroke="#000000" points="3324.2771,-158.5001 3334.2771,-155 3324.2771,-151.5001 3324.2771,-158.5001"/>
</g>
<!-- TimelineComponent -->
<g id="node24" class="node">
<title>TimelineComponent</title>
<polygon fill="#ffffb3" stroke="#000000" points="2990.8767,-122 2859.1233,-122 2859.1233,-86 2990.8767,-86 2990.8767,-122"/>
<text text-anchor="middle" x="2925" y="-99.8" font-family="Times,serif" font-size="14.00" fill="#000000">TimelineComponent</text>
</g>
<!-- TimelineComponent&#45;&gt;AppModule -->
<g id="edge24" class="edge">
<title>TimelineComponent&#45;&gt;AppModule</title>
<path fill="none" stroke="#000000" d="M2925,-122.2396C2925,-137.5706 2925,-157 2925,-157 2925,-157 3323.976,-157 3323.976,-157"/>
<polygon fill="#000000" stroke="#000000" points="3323.976,-160.5001 3333.976,-157 3323.976,-153.5001 3323.976,-160.5001"/>
</g>
<!-- TimelinePopupComponent -->
<g id="node25" class="node">
<title>TimelinePopupComponent</title>
<polygon fill="#ffffb3" stroke="#000000" points="2840.6595,-122 2673.3405,-122 2673.3405,-86 2840.6595,-86 2840.6595,-122"/>
<text text-anchor="middle" x="2757" y="-99.8" font-family="Times,serif" font-size="14.00" fill="#000000">TimelinePopupComponent</text>
</g>
<!-- TimelinePopupComponent&#45;&gt;AppModule -->
<g id="edge25" class="edge">
<title>TimelinePopupComponent&#45;&gt;AppModule</title>
<path fill="none" stroke="#000000" d="M2757,-122.2819C2757,-137.9478 2757,-158 2757,-158 2757,-158 3323.9403,-158 3323.9403,-158"/>
<polygon fill="#000000" stroke="#000000" points="3323.9403,-161.5001 3333.9403,-158 3323.9402,-154.5001 3323.9403,-161.5001"/>
</g>
<!-- ToolbarComponent -->
<g id="node26" class="node">
<title>ToolbarComponent</title>
<polygon fill="#ffffb3" stroke="#000000" points="2654.6513,-122 2529.3487,-122 2529.3487,-86 2654.6513,-86 2654.6513,-122"/>
<text text-anchor="middle" x="2592" y="-99.8" font-family="Times,serif" font-size="14.00" fill="#000000">ToolbarComponent</text>
</g>
<!-- ToolbarComponent&#45;&gt;AppModule -->
<g id="edge26" class="edge">
<title>ToolbarComponent&#45;&gt;AppModule</title>
<path fill="none" stroke="#000000" d="M2592,-122.027C2592,-138.3976 2592,-160 2592,-160 2592,-160 3324.1259,-160 3324.1259,-160"/>
<polygon fill="#000000" stroke="#000000" points="3324.126,-163.5001 3334.1259,-160 3324.1259,-156.5001 3324.126,-163.5001"/>
</g>
<!-- TripleListComponent -->
<g id="node27" class="node">
<title>TripleListComponent</title>
<polygon fill="#ffffb3" stroke="#000000" points="2511.8202,-122 2374.1798,-122 2374.1798,-86 2511.8202,-86 2511.8202,-122"/>
<text text-anchor="middle" x="2443" y="-99.8" font-family="Times,serif" font-size="14.00" fill="#000000">TripleListComponent</text>
</g>
<!-- TripleListComponent&#45;&gt;AppModule -->
<g id="edge27" class="edge">
<title>TripleListComponent&#45;&gt;AppModule</title>
<path fill="none" stroke="#000000" d="M2443,-122.0336C2443,-139.0597 2443,-162 2443,-162 2443,-162 3324.0984,-162 3324.0984,-162"/>
<polygon fill="#000000" stroke="#000000" points="3324.0984,-165.5001 3334.0984,-162 3324.0984,-158.5001 3324.0984,-165.5001"/>
</g>
<!-- AppComponent  -->
<g id="node30" class="node">
<title>AppComponent </title>
<polygon fill="#80b1d3" stroke="#000000" points="3430.439,-252 3321.561,-252 3321.561,-216 3430.439,-216 3430.439,-252"/>
<text text-anchor="middle" x="3376" y="-229.8" font-family="Times,serif" font-size="14.00" fill="#000000">AppComponent </text>
</g>
<!-- AppModule&#45;&gt;AppComponent  -->
<g id="edge29" class="edge">
<title>AppModule&#45;&gt;AppComponent </title>
<path fill="none" stroke="#000000" stroke-dasharray="1,5" d="M3376,-187.1061C3376,-187.1061 3376,-205.991 3376,-205.991"/>
<polygon fill="#000000" stroke="#000000" points="3372.5001,-205.9909 3376,-215.991 3379.5001,-205.991 3372.5001,-205.9909"/>
</g>
<!-- FormCreatorModule -->
<g id="node29" class="node">
<title>FormCreatorModule</title>
<polygon fill="#8dd3c7" stroke="#000000" points="2349.8613,-122 2346.8613,-126 2325.8613,-126 2322.8613,-122 2218.1387,-122 2218.1387,-86 2349.8613,-86 2349.8613,-122"/>
<text text-anchor="middle" x="2284" y="-99.8" font-family="Times,serif" font-size="14.00" fill="#000000">FormCreatorModule</text>
</g>
<!-- FormCreatorModule&#45;&gt;AppModule -->
<g id="edge28" class="edge">
<title>FormCreatorModule&#45;&gt;AppModule</title>
<path fill="none" stroke="#000000" d="M2284,-122.0225C2284,-139.3734 2284,-163 2284,-163 2284,-163 3324.1942,-163 3324.1942,-163"/>
<polygon fill="#000000" stroke="#000000" points="3324.1942,-166.5001 3334.1942,-163 3324.1941,-159.5001 3324.1942,-166.5001"/>
</g>
<!-- AssociationService -->
<g id="node31" class="node">
<title>AssociationService</title>
<ellipse fill="#fdb462" stroke="#000000" cx="2108" cy="-104" rx="85.6686" ry="18"/>
<text text-anchor="middle" x="2108" y="-99.8" font-family="Times,serif" font-size="14.00" fill="#000000">AssociationService</text>
</g>
<!-- AssociationService&#45;&gt;AppModule -->
<g id="edge30" class="edge">
<title>AssociationService&#45;&gt;AppModule</title>
<path fill="none" stroke="#000000" d="M2108,-122.302C2108,-140.2699 2108,-165 2108,-165 2108,-165 3324.1725,-165 3324.1725,-165"/>
<polygon fill="#000000" stroke="#000000" points="3324.1726,-168.5001 3334.1725,-165 3324.1725,-161.5001 3324.1726,-168.5001"/>
</g>
<!-- CarePlanService -->
<g id="node32" class="node">
<title>CarePlanService</title>
<ellipse fill="#fdb462" stroke="#000000" cx="1929" cy="-104" rx="75.2751" ry="18"/>
<text text-anchor="middle" x="1929" y="-99.8" font-family="Times,serif" font-size="14.00" fill="#000000">CarePlanService</text>
</g>
<!-- CarePlanService&#45;&gt;AppModule -->
<g id="edge31" class="edge">
<title>CarePlanService&#45;&gt;AppModule</title>
<path fill="none" stroke="#000000" d="M1929,-122.2222C1929,-140.8285 1929,-167 1929,-167 1929,-167 3324.2546,-167 3324.2546,-167"/>
<polygon fill="#000000" stroke="#000000" points="3324.2547,-170.5001 3334.2546,-167 3324.2546,-163.5001 3324.2547,-170.5001"/>
</g>
<!-- ConditionService -->
<g id="node33" class="node">
<title>ConditionService</title>
<ellipse fill="#fdb462" stroke="#000000" cx="1757" cy="-104" rx="78.7511" ry="18"/>
<text text-anchor="middle" x="1757" y="-99.8" font-family="Times,serif" font-size="14.00" fill="#000000">ConditionService</text>
</g>
<!-- ConditionService&#45;&gt;AppModule -->
<g id="edge32" class="edge">
<title>ConditionService&#45;&gt;AppModule</title>
<path fill="none" stroke="#000000" d="M1757,-122.1061C1757,-141.3391 1757,-169 1757,-169 1757,-169 3323.9412,-169 3323.9412,-169"/>
<polygon fill="#000000" stroke="#000000" points="3323.9412,-172.5001 3333.9412,-169 3323.9411,-165.5001 3323.9412,-172.5001"/>
</g>
<!-- DoctorService -->
<g id="node34" class="node">
<title>DoctorService</title>
<ellipse fill="#fdb462" stroke="#000000" cx="1594" cy="-104" rx="66.6113" ry="18"/>
<text text-anchor="middle" x="1594" y="-99.8" font-family="Times,serif" font-size="14.00" fill="#000000">DoctorService</text>
</g>
<!-- DoctorService&#45;&gt;AppModule -->
<g id="edge33" class="edge">
<title>DoctorService&#45;&gt;AppModule</title>
<path fill="none" stroke="#000000" d="M1594,-122.0348C1594,-141.5762 1594,-170 1594,-170 1594,-170 3324.1422,-170 3324.1422,-170"/>
<polygon fill="#000000" stroke="#000000" points="3324.1422,-173.5001 3334.1422,-170 3324.1421,-166.5001 3324.1422,-173.5001"/>
</g>
<!-- EncounterService -->
<g id="node35" class="node">
<title>EncounterService</title>
<ellipse fill="#fdb462" stroke="#000000" cx="1430" cy="-104" rx="79.8546" ry="18"/>
<text text-anchor="middle" x="1430" y="-99.8" font-family="Times,serif" font-size="14.00" fill="#000000">EncounterService</text>
</g>
<!-- EncounterService&#45;&gt;AppModule -->
<g id="edge34" class="edge">
<title>EncounterService&#45;&gt;AppModule</title>
<path fill="none" stroke="#000000" d="M1430,-122.2228C1430,-142.3652 1430,-172 1430,-172 1430,-172 3324.0011,-172 3324.0011,-172"/>
<polygon fill="#000000" stroke="#000000" points="3324.0012,-175.5001 3334.0011,-172 3324.0011,-168.5001 3324.0012,-175.5001"/>
</g>
<!-- FhirService -->
<g id="node36" class="node">
<title>FhirService</title>
<ellipse fill="#fdb462" stroke="#000000" cx="1276" cy="-104" rx="56.1744" ry="18"/>
<text text-anchor="middle" x="1276" y="-99.8" font-family="Times,serif" font-size="14.00" fill="#000000">FhirService</text>
</g>
<!-- FhirService&#45;&gt;AppModule -->
<g id="edge35" class="edge">
<title>FhirService&#45;&gt;AppModule</title>
<path fill="none" stroke="#000000" d="M1276,-122.0267C1276,-142.7672 1276,-174 1276,-174 1276,-174 3324.0517,-174 3324.0517,-174"/>
<polygon fill="#000000" stroke="#000000" points="3324.0517,-177.5001 3334.0517,-174 3324.0517,-170.5001 3324.0517,-177.5001"/>
</g>
<!-- HistoricalTrendsService -->
<g id="node37" class="node">
<title>HistoricalTrendsService</title>
<ellipse fill="#fdb462" stroke="#000000" cx="1097" cy="-104" rx="104.7675" ry="18"/>
<text text-anchor="middle" x="1097" y="-99.8" font-family="Times,serif" font-size="14.00" fill="#000000">HistoricalTrendsService</text>
</g>
<!-- HistoricalTrendsService&#45;&gt;AppModule -->
<g id="edge36" class="edge">
<title>HistoricalTrendsService&#45;&gt;AppModule</title>
<path fill="none" stroke="#000000" d="M1097,-122.2843C1097,-143.3211 1097,-175 1097,-175 1097,-175 3324.005,-175 3324.005,-175"/>
<polygon fill="#000000" stroke="#000000" points="3324.0051,-178.5001 3334.005,-175 3324.005,-171.5001 3324.0051,-178.5001"/>
</g>
<!-- MapService -->
<g id="node38" class="node">
<title>MapService</title>
<ellipse fill="#fdb462" stroke="#000000" cx="916" cy="-104" rx="57.8829" ry="18"/>
<text text-anchor="middle" x="916" y="-99.8" font-family="Times,serif" font-size="14.00" fill="#000000">MapService</text>
</g>
<!-- MapService&#45;&gt;AppModule -->
<g id="edge37" class="edge">
<title>MapService&#45;&gt;AppModule</title>
<path fill="none" stroke="#000000" d="M916,-122.0449C916,-143.6623 916,-177 916,-177 916,-177 3324.3343,-177 3324.3343,-177"/>
<polygon fill="#000000" stroke="#000000" points="3324.3343,-180.5001 3334.3343,-177 3324.3342,-173.5001 3324.3343,-180.5001"/>
</g>
<!-- ObservationService -->
<g id="node39" class="node">
<title>ObservationService</title>
<ellipse fill="#fdb462" stroke="#000000" cx="753" cy="-104" rx="87.377" ry="18"/>
<text text-anchor="middle" x="753" y="-99.8" font-family="Times,serif" font-size="14.00" fill="#000000">ObservationService</text>
</g>
<!-- ObservationService&#45;&gt;AppModule -->
<g id="edge38" class="edge">
<title>ObservationService&#45;&gt;AppModule</title>
<path fill="none" stroke="#000000" d="M753,-122.1554C753,-144.3519 753,-179 753,-179 753,-179 3324.2693,-179 3324.2693,-179"/>
<polygon fill="#000000" stroke="#000000" points="3324.2694,-182.5001 3334.2693,-179 3324.2693,-175.5001 3324.2694,-182.5001"/>
</g>
<!-- PatientService -->
<g id="node40" class="node">
<title>PatientService</title>
<ellipse fill="#fdb462" stroke="#000000" cx="581" cy="-104" rx="66.6267" ry="18"/>
<text text-anchor="middle" x="581" y="-99.8" font-family="Times,serif" font-size="14.00" fill="#000000">PatientService</text>
</g>
<!-- PatientService&#45;&gt;AppModule -->
<g id="edge39" class="edge">
<title>PatientService&#45;&gt;AppModule</title>
<path fill="none" stroke="#000000" d="M581,-122.2479C581,-145.0179 581,-181 581,-181 581,-181 3324.3205,-181 3324.3205,-181"/>
<polygon fill="#000000" stroke="#000000" points="3324.3205,-184.5001 3334.3205,-181 3324.3204,-177.5001 3324.3205,-184.5001"/>
</g>
<!-- ScratchPadService -->
<g id="node41" class="node">
<title>ScratchPadService</title>
<ellipse fill="#fdb462" stroke="#000000" cx="413" cy="-104" rx="83.3616" ry="18"/>
<text text-anchor="middle" x="413" y="-99.8" font-family="Times,serif" font-size="14.00" fill="#000000">ScratchPadService</text>
</g>
<!-- ScratchPadService&#45;&gt;AppModule -->
<g id="edge40" class="edge">
<title>ScratchPadService&#45;&gt;AppModule</title>
<path fill="none" stroke="#000000" d="M413,-122.0908C413,-145.1328 413,-182 413,-182 413,-182 3324.1141,-182 3324.1141,-182"/>
<polygon fill="#000000" stroke="#000000" points="3324.1141,-185.5001 3334.1141,-182 3324.1141,-178.5001 3324.1141,-185.5001"/>
</g>
<!-- SmartService -->
<g id="node42" class="node">
<title>SmartService</title>
<ellipse fill="#fdb462" stroke="#000000" cx="249" cy="-104" rx="63.1151" ry="18"/>
<text text-anchor="middle" x="249" y="-99.8" font-family="Times,serif" font-size="14.00" fill="#000000">SmartService</text>
</g>
<!-- SmartService&#45;&gt;AppModule -->
<g id="edge41" class="edge">
<title>SmartService&#45;&gt;AppModule</title>
<path fill="none" stroke="#000000" d="M249,-122.1532C249,-145.7566 249,-184 249,-184 249,-184 3324.1603,-184 3324.1603,-184"/>
<polygon fill="#000000" stroke="#000000" points="3324.1604,-187.5001 3334.1603,-184 3324.1603,-180.5001 3324.1604,-187.5001"/>
</g>
<!-- ToolBarService -->
<g id="node43" class="node">
<title>ToolBarService</title>
<ellipse fill="#fdb462" stroke="#000000" cx="96" cy="-104" rx="72.3477" ry="18"/>
<text text-anchor="middle" x="96" y="-99.8" font-family="Times,serif" font-size="14.00" fill="#000000">ToolBarService</text>
</g>
<!-- ToolBarService&#45;&gt;AppModule -->
<g id="edge42" class="edge">
<title>ToolBarService&#45;&gt;AppModule</title>
<path fill="none" stroke="#000000" d="M96,-122.1985C96,-146.3563 96,-186 96,-186 96,-186 3324.2303,-186 3324.2303,-186"/>
<polygon fill="#000000" stroke="#000000" points="3324.2303,-189.5001 3334.2303,-186 3324.2303,-182.5001 3324.2303,-189.5001"/>
</g>
</g>
</svg>
