<?xml version="1.0" encoding="UTF-8" standalone="no"?>
<!DOCTYPE svg PUBLIC "-//W3C//DTD SVG 1.1//EN"
 "http://www.w3.org/Graphics/SVG/1.1/DTD/svg11.dtd">
<!-- Generated by graphviz version 2.40.1 (20161225.0304)
 -->
<!-- Title: dependencies Pages: 1 -->
<svg width="6922pt" height="284pt"
 viewBox="0.00 0.00 6922.00 284.00" xmlns="http://www.w3.org/2000/svg" xmlns:xlink="http://www.w3.org/1999/xlink">
<g id="graph0" class="graph" transform="scale(1 1) rotate(0) translate(4 280)">
<title>dependencies</title>
<polygon fill="#ffffff" stroke="transparent" points="-4,4 -4,-280 6918,-280 6918,4 -4,4"/>
<text text-anchor="start" x="3436.0091" y="-42.4" font-family="sans-serif" font-weight="bold" font-size="14.00" fill="#000000">Legend</text>
<polygon fill="#ffffb3" stroke="transparent" points="3223,-10 3223,-30 3243,-30 3243,-10 3223,-10"/>
<text text-anchor="start" x="3246.629" y="-15.4" font-family="sans-serif" font-size="14.00" fill="#000000"> &#160;Declarations</text>
<polygon fill="#8dd3c7" stroke="transparent" points="3336,-10 3336,-30 3356,-30 3356,-10 3336,-10"/>
<text text-anchor="start" x="3359.7251" y="-15.4" font-family="sans-serif" font-size="14.00" fill="#000000"> &#160;Module</text>
<polygon fill="#80b1d3" stroke="transparent" points="3422,-10 3422,-30 3442,-30 3442,-10 3422,-10"/>
<text text-anchor="start" x="3445.7812" y="-15.4" font-family="sans-serif" font-size="14.00" fill="#000000"> &#160;Bootstrap</text>
<polygon fill="#fdb462" stroke="transparent" points="3519,-10 3519,-30 3539,-30 3539,-10 3519,-10"/>
<text text-anchor="start" x="3542.6732" y="-15.4" font-family="sans-serif" font-size="14.00" fill="#000000"> &#160;Providers</text>
<polygon fill="#fb8072" stroke="transparent" points="3615,-10 3615,-30 3635,-30 3635,-10 3615,-10"/>
<text text-anchor="start" x="3638.7258" y="-15.4" font-family="sans-serif" font-size="14.00" fill="#000000"> &#160;Exports</text>
<g id="clust1" class="cluster">
<title>cluster_AppModule</title>
<polygon fill="none" stroke="#000000" stroke-dasharray="1,5" points="8,-70 8,-268 6906,-268 6906,-70 8,-70"/>
</g>
<g id="clust2" class="cluster">
<title>cluster_AppModule_declarations</title>
<polygon fill="none" stroke="#000000" points="2366,-78 2366,-130 6898,-130 6898,-78 2366,-78"/>
</g>
<g id="clust32" class="cluster">
<title>cluster_AppModule_imports</title>
<polygon fill="none" stroke="#000000" points="2210,-78 2210,-130 2358,-130 2358,-78 2210,-78"/>
</g>
<g id="clust34" class="cluster">
<title>cluster_AppModule_bootstrap</title>
<polygon fill="none" stroke="#000000" points="3495,-208 3495,-260 3619,-260 3619,-208 3495,-208"/>
</g>
<g id="clust35" class="cluster">
<title>cluster_AppModule_providers</title>
<polygon fill="none" stroke="#000000" points="16,-78 16,-130 2202,-130 2202,-78 16,-78"/>
</g>
<!-- AccordionRecursion -->
<g id="node1" class="node">
<title>AccordionRecursion</title>
<polygon fill="#ffffb3" stroke="#000000" points="6889.8487,-122 6758.1513,-122 6758.1513,-86 6889.8487,-86 6889.8487,-122"/>
<text text-anchor="middle" x="6824" y="-99.8" font-family="Times,serif" font-size="14.00" fill="#000000">AccordionRecursion</text>
</g>
<!-- AppModule -->
<g id="node30" class="node">
<title>AppModule</title>
<polygon fill="#8dd3c7" stroke="#000000" points="3598.6571,-187 3595.6571,-191 3574.6571,-191 3571.6571,-187 3515.3429,-187 3515.3429,-151 3598.6571,-151 3598.6571,-187"/>
<text text-anchor="middle" x="3557" y="-164.8" font-family="Times,serif" font-size="14.00" fill="#000000">AppModule</text>
</g>
<!-- AccordionRecursion&#45;&gt;AppModule -->
<g id="edge1" class="edge">
<title>AccordionRecursion&#45;&gt;AppModule</title>
<path fill="none" stroke="#000000" d="M6824,-122.1985C6824,-146.3563 6824,-186 6824,-186 6824,-186 3608.9024,-186 3608.9024,-186"/>
<polygon fill="#000000" stroke="#000000" points="3608.9024,-182.5001 3598.9024,-186 3608.9023,-189.5001 3608.9024,-182.5001"/>
</g>
<!-- AccountComponent -->
<g id="node2" class="node">
<title>AccountComponent</title>
<polygon fill="#ffffb3" stroke="#000000" points="6740.259,-122 6611.741,-122 6611.741,-86 6740.259,-86 6740.259,-122"/>
<text text-anchor="middle" x="6676" y="-99.8" font-family="Times,serif" font-size="14.00" fill="#000000">AccountComponent</text>
</g>
<!-- AccountComponent&#45;&gt;AppModule -->
<g id="edge2" class="edge">
<title>AccountComponent&#45;&gt;AppModule</title>
<path fill="none" stroke="#000000" d="M6676,-122.1532C6676,-145.7566 6676,-184 6676,-184 6676,-184 3608.7326,-184 3608.7326,-184"/>
<polygon fill="#000000" stroke="#000000" points="3608.7326,-180.5001 3598.7326,-184 3608.7326,-187.5001 3608.7326,-180.5001"/>
</g>
<!-- AddObservation -->
<g id="node3" class="node">
<title>AddObservation</title>
<polygon fill="#ffffb3" stroke="#000000" points="6593.0298,-122 6484.9702,-122 6484.9702,-86 6593.0298,-86 6593.0298,-122"/>
<text text-anchor="middle" x="6539" y="-99.8" font-family="Times,serif" font-size="14.00" fill="#000000">AddObservation</text>
</g>
<!-- AddObservation&#45;&gt;AppModule -->
<g id="edge3" class="edge">
<title>AddObservation&#45;&gt;AppModule</title>
<path fill="none" stroke="#000000" d="M6539,-122.3228C6539,-145.6602 6539,-183 6539,-183 6539,-183 3608.8694,-183 3608.8694,-183"/>
<polygon fill="#000000" stroke="#000000" points="3608.8694,-179.5001 3598.8694,-183 3608.8694,-186.5001 3608.8694,-179.5001"/>
</g>
<!-- AppComponent -->
<g id="node4" class="node">
<title>AppComponent</title>
<polygon fill="#ffffb3" stroke="#000000" points="6466.9399,-122 6361.0601,-122 6361.0601,-86 6466.9399,-86 6466.9399,-122"/>
<text text-anchor="middle" x="6414" y="-99.8" font-family="Times,serif" font-size="14.00" fill="#000000">AppComponent</text>
</g>
<!-- AppComponent&#45;&gt;AppModule -->
<g id="edge4" class="edge">
<title>AppComponent&#45;&gt;AppModule</title>
<path fill="none" stroke="#000000" d="M6414,-122.2479C6414,-145.0179 6414,-181 6414,-181 6414,-181 3608.7663,-181 3608.7663,-181"/>
<polygon fill="#000000" stroke="#000000" points="3608.7663,-177.5001 3598.7663,-181 3608.7662,-184.5001 3608.7663,-177.5001"/>
</g>
<!-- CarePlanComponent -->
<g id="node5" class="node">
<title>CarePlanComponent</title>
<polygon fill="#ffffb3" stroke="#000000" points="6343.1471,-122 6210.8529,-122 6210.8529,-86 6343.1471,-86 6343.1471,-122"/>
<text text-anchor="middle" x="6277" y="-99.8" font-family="Times,serif" font-size="14.00" fill="#000000">CarePlanComponent</text>
</g>
<!-- CarePlanComponent&#45;&gt;AppModule -->
<g id="edge5" class="edge">
<title>CarePlanComponent&#45;&gt;AppModule</title>
<path fill="none" stroke="#000000" d="M6277,-122.1554C6277,-144.3519 6277,-179 6277,-179 6277,-179 3608.9071,-179 3608.9071,-179"/>
<polygon fill="#000000" stroke="#000000" points="3608.9072,-175.5001 3598.9071,-179 3608.9071,-182.5001 3608.9072,-175.5001"/>
</g>
<!-- CarePlanDisplay -->
<g id="node6" class="node">
<title>CarePlanDisplay</title>
<polygon fill="#ffffb3" stroke="#000000" points="6192.3613,-122 6081.6387,-122 6081.6387,-86 6192.3613,-86 6192.3613,-122"/>
<text text-anchor="middle" x="6137" y="-99.8" font-family="Times,serif" font-size="14.00" fill="#000000">CarePlanDisplay</text>
</g>
<!-- CarePlanDisplay&#45;&gt;AppModule -->
<g id="edge6" class="edge">
<title>CarePlanDisplay&#45;&gt;AppModule</title>
<path fill="none" stroke="#000000" d="M6137,-122.2921C6137,-144.2057 6137,-178 6137,-178 6137,-178 3608.8338,-178 3608.8338,-178"/>
<polygon fill="#000000" stroke="#000000" points="3608.8339,-174.5001 3598.8338,-178 3608.8338,-181.5001 3608.8339,-174.5001"/>
</g>
<!-- ColumnStateSwitcherComponent -->
<g id="node7" class="node">
<title>ColumnStateSwitcherComponent</title>
<polygon fill="#ffffb3" stroke="#000000" points="6063.2035,-122 5858.7965,-122 5858.7965,-86 6063.2035,-86 6063.2035,-122"/>
<text text-anchor="middle" x="5961" y="-99.8" font-family="Times,serif" font-size="14.00" fill="#000000">ColumnStateSwitcherComponent</text>
</g>
<!-- ColumnStateSwitcherComponent&#45;&gt;AppModule -->
<g id="edge7" class="edge">
<title>ColumnStateSwitcherComponent&#45;&gt;AppModule</title>
<path fill="none" stroke="#000000" d="M5961,-122.1686C5961,-143.498 5961,-176 5961,-176 5961,-176 3608.7259,-176 3608.7259,-176"/>
<polygon fill="#000000" stroke="#000000" points="3608.726,-172.5001 3598.7259,-176 3608.7259,-179.5001 3608.726,-172.5001"/>
</g>
<!-- ConditionsChartComponent -->
<g id="node8" class="node">
<title>ConditionsChartComponent</title>
<polygon fill="#ffffb3" stroke="#000000" points="5840.8878,-122 5667.1122,-122 5667.1122,-86 5840.8878,-86 5840.8878,-122"/>
<text text-anchor="middle" x="5754" y="-99.8" font-family="Times,serif" font-size="14.00" fill="#000000">ConditionsChartComponent</text>
</g>
<!-- ConditionsChartComponent&#45;&gt;AppModule -->
<g id="edge8" class="edge">
<title>ConditionsChartComponent&#45;&gt;AppModule</title>
<path fill="none" stroke="#000000" d="M5754,-122.0267C5754,-142.7672 5754,-174 5754,-174 5754,-174 3608.9262,-174 3608.9262,-174"/>
<polygon fill="#000000" stroke="#000000" points="3608.9262,-170.5001 3598.9262,-174 3608.9262,-177.5001 3608.9262,-170.5001"/>
</g>
<!-- ConditionsComponent -->
<g id="node9" class="node">
<title>ConditionsComponent</title>
<polygon fill="#ffffb3" stroke="#000000" points="5649.2856,-122 5506.7144,-122 5506.7144,-86 5649.2856,-86 5649.2856,-122"/>
<text text-anchor="middle" x="5578" y="-99.8" font-family="Times,serif" font-size="14.00" fill="#000000">ConditionsComponent</text>
</g>
<!-- ConditionsComponent&#45;&gt;AppModule -->
<g id="edge9" class="edge">
<title>ConditionsComponent&#45;&gt;AppModule</title>
<path fill="none" stroke="#000000" d="M5578,-122.1289C5578,-142.5724 5578,-173 5578,-173 5578,-173 3608.7476,-173 3608.7476,-173"/>
<polygon fill="#000000" stroke="#000000" points="3608.7476,-169.5001 3598.7476,-173 3608.7475,-176.5001 3608.7476,-169.5001"/>
</g>
<!-- ConditionsDisplay -->
<g id="node10" class="node">
<title>ConditionsDisplay</title>
<polygon fill="#ffffb3" stroke="#000000" points="5488.5,-122 5367.5,-122 5367.5,-86 5488.5,-86 5488.5,-122"/>
<text text-anchor="middle" x="5428" y="-99.8" font-family="Times,serif" font-size="14.00" fill="#000000">ConditionsDisplay</text>
</g>
<!-- ConditionsDisplay&#45;&gt;AppModule -->
<g id="edge10" class="edge">
<title>ConditionsDisplay&#45;&gt;AppModule</title>
<path fill="none" stroke="#000000" d="M5428,-122.308C5428,-142.1455 5428,-171 5428,-171 5428,-171 3608.7018,-171 3608.7018,-171"/>
<polygon fill="#000000" stroke="#000000" points="3608.7018,-167.5001 3598.7018,-171 3608.7017,-174.5001 3608.7018,-167.5001"/>
</g>
<!-- ContextMenuComponent -->
<g id="node11" class="node">
<title>ContextMenuComponent</title>
<polygon fill="#ffffb3" stroke="#000000" points="5349.3243,-122 5190.6757,-122 5190.6757,-86 5349.3243,-86 5349.3243,-122"/>
<text text-anchor="middle" x="5270" y="-99.8" font-family="Times,serif" font-size="14.00" fill="#000000">ContextMenuComponent</text>
</g>
<!-- ContextMenuComponent&#45;&gt;AppModule -->
<g id="edge11" class="edge">
<title>ContextMenuComponent&#45;&gt;AppModule</title>
<path fill="none" stroke="#000000" d="M5270,-122.1061C5270,-141.3391 5270,-169 5270,-169 5270,-169 3608.9187,-169 3608.9187,-169"/>
<polygon fill="#000000" stroke="#000000" points="3608.9187,-165.5001 3598.9187,-169 3608.9186,-172.5001 3608.9187,-165.5001"/>
</g>
<!-- DoctorNoteComponent -->
<g id="node12" class="node">
<title>DoctorNoteComponent</title>
<polygon fill="#ffffb3" stroke="#000000" points="5172.9172,-122 5025.0828,-122 5025.0828,-86 5172.9172,-86 5172.9172,-122"/>
<text text-anchor="middle" x="5099" y="-99.8" font-family="Times,serif" font-size="14.00" fill="#000000">DoctorNoteComponent</text>
</g>
<!-- DoctorNoteComponent&#45;&gt;AppModule -->
<g id="edge12" class="edge">
<title>DoctorNoteComponent&#45;&gt;AppModule</title>
<path fill="none" stroke="#000000" d="M5099,-122.1686C5099,-141.0898 5099,-168 5099,-168 5099,-168 3609.0445,-168 3609.0445,-168"/>
<polygon fill="#000000" stroke="#000000" points="3609.0445,-164.5001 3599.0445,-168 3609.0445,-171.5001 3609.0445,-164.5001"/>
</g>
<!-- FormBuilder -->
<g id="node13" class="node">
<title>FormBuilder</title>
<polygon fill="#ffffb3" stroke="#000000" points="5007.3274,-122 4918.6726,-122 4918.6726,-86 5007.3274,-86 5007.3274,-122"/>
<text text-anchor="middle" x="4963" y="-99.8" font-family="Times,serif" font-size="14.00" fill="#000000">FormBuilder</text>
</g>
<!-- FormBuilder&#45;&gt;AppModule -->
<g id="edge13" class="edge">
<title>FormBuilder&#45;&gt;AppModule</title>
<path fill="none" stroke="#000000" d="M4963,-122.2667C4963,-140.5552 4963,-166 4963,-166 4963,-166 3608.6973,-166 3608.6973,-166"/>
<polygon fill="#000000" stroke="#000000" points="3608.6974,-162.5001 3598.6973,-166 3608.6973,-169.5001 3608.6974,-162.5001"/>
</g>
<!-- HistoricalTrendsComponent -->
<g id="node14" class="node">
<title>HistoricalTrendsComponent</title>
<polygon fill="#ffffb3" stroke="#000000" points="4900.9087,-122 4725.0913,-122 4725.0913,-86 4900.9087,-86 4900.9087,-122"/>
<text text-anchor="middle" x="4813" y="-99.8" font-family="Times,serif" font-size="14.00" fill="#000000">HistoricalTrendsComponent</text>
</g>
<!-- HistoricalTrendsComponent&#45;&gt;AppModule -->
<g id="edge14" class="edge">
<title>HistoricalTrendsComponent&#45;&gt;AppModule</title>
<path fill="none" stroke="#000000" d="M4813,-122.302C4813,-140.2699 4813,-165 4813,-165 4813,-165 3608.7894,-165 3608.7894,-165"/>
<polygon fill="#000000" stroke="#000000" points="3608.7894,-161.5001 3598.7894,-165 3608.7893,-168.5001 3608.7894,-161.5001"/>
</g>
<!-- HomeComponent -->
<g id="node15" class="node">
<title>HomeComponent</title>
<polygon fill="#ffffb3" stroke="#000000" points="4707.5451,-122 4592.4549,-122 4592.4549,-86 4707.5451,-86 4707.5451,-122"/>
<text text-anchor="middle" x="4650" y="-99.8" font-family="Times,serif" font-size="14.00" fill="#000000">HomeComponent</text>
</g>
<!-- HomeComponent&#45;&gt;AppModule -->
<g id="edge15" class="edge">
<title>HomeComponent&#45;&gt;AppModule</title>
<path fill="none" stroke="#000000" d="M4650,-122.0225C4650,-139.3734 4650,-163 4650,-163 4650,-163 3608.8441,-163 3608.8441,-163"/>
<polygon fill="#000000" stroke="#000000" points="3608.8441,-159.5001 3598.8441,-163 3608.8441,-166.5001 3608.8441,-159.5001"/>
</g>
<!-- HoverBoxComponent -->
<g id="node16" class="node">
<title>HoverBoxComponent</title>
<polygon fill="#ffffb3" stroke="#000000" points="4573.6512,-122 4434.3488,-122 4434.3488,-86 4573.6512,-86 4573.6512,-122"/>
<text text-anchor="middle" x="4504" y="-99.8" font-family="Times,serif" font-size="14.00" fill="#000000">HoverBoxComponent</text>
</g>
<!-- HoverBoxComponent&#45;&gt;AppModule -->
<g id="edge16" class="edge">
<title>HoverBoxComponent&#45;&gt;AppModule</title>
<path fill="none" stroke="#000000" d="M4504,-122.0352C4504,-138.7344 4504,-161 4504,-161 4504,-161 3608.9133,-161 3608.9133,-161"/>
<polygon fill="#000000" stroke="#000000" points="3608.9134,-157.5001 3598.9133,-161 3608.9133,-164.5001 3608.9134,-157.5001"/>
</g>
<!-- LoadingAnimation -->
<g id="node17" class="node">
<title>LoadingAnimation</title>
<polygon fill="#ffffb3" stroke="#000000" points="4416.0423,-122 4293.9577,-122 4293.9577,-86 4416.0423,-86 4416.0423,-122"/>
<text text-anchor="middle" x="4355" y="-99.8" font-family="Times,serif" font-size="14.00" fill="#000000">LoadingAnimation</text>
</g>
<!-- LoadingAnimation&#45;&gt;AppModule -->
<g id="edge17" class="edge">
<title>LoadingAnimation&#45;&gt;AppModule</title>
<path fill="none" stroke="#000000" d="M4355,-122.027C4355,-138.3976 4355,-160 4355,-160 4355,-160 3608.7804,-160 3608.7804,-160"/>
<polygon fill="#000000" stroke="#000000" points="3608.7804,-156.5001 3598.7804,-160 3608.7804,-163.5001 3608.7804,-156.5001"/>
</g>
<!-- MedicationsComponent -->
<g id="node18" class="node">
<title>MedicationsComponent</title>
<polygon fill="#ffffb3" stroke="#000000" points="4275.0379,-122 4124.9621,-122 4124.9621,-86 4275.0379,-86 4275.0379,-122"/>
<text text-anchor="middle" x="4200" y="-99.8" font-family="Times,serif" font-size="14.00" fill="#000000">MedicationsComponent</text>
</g>
<!-- MedicationsComponent&#45;&gt;AppModule -->
<g id="edge18" class="edge">
<title>MedicationsComponent&#45;&gt;AppModule</title>
<path fill="none" stroke="#000000" d="M4200,-122.2819C4200,-137.9478 4200,-158 4200,-158 4200,-158 3608.6936,-158 3608.6936,-158"/>
<polygon fill="#000000" stroke="#000000" points="3608.6936,-154.5001 3598.6936,-158 3608.6936,-161.5001 3608.6936,-154.5001"/>
</g>
<!-- NewCondition -->
<g id="node19" class="node">
<title>NewCondition</title>
<polygon fill="#ffffb3" stroke="#000000" points="4107.4372,-122 4008.5628,-122 4008.5628,-86 4107.4372,-86 4107.4372,-122"/>
<text text-anchor="middle" x="4058" y="-99.8" font-family="Times,serif" font-size="14.00" fill="#000000">NewCondition</text>
</g>
<!-- NewCondition&#45;&gt;AppModule -->
<g id="edge19" class="edge">
<title>NewCondition&#45;&gt;AppModule</title>
<path fill="none" stroke="#000000" d="M4058,-122.1871C4058,-137.1824 4058,-156 4058,-156 4058,-156 3608.8533,-156 3608.8533,-156"/>
<polygon fill="#000000" stroke="#000000" points="3608.8533,-152.5001 3598.8533,-156 3608.8532,-159.5001 3608.8533,-152.5001"/>
</g>
<!-- NoteNavigationComponent -->
<g id="node20" class="node">
<title>NoteNavigationComponent</title>
<polygon fill="#ffffb3" stroke="#000000" points="3990.252,-122 3819.748,-122 3819.748,-86 3990.252,-86 3990.252,-122"/>
<text text-anchor="middle" x="3905" y="-99.8" font-family="Times,serif" font-size="14.00" fill="#000000">NoteNavigationComponent</text>
</g>
<!-- NoteNavigationComponent&#45;&gt;AppModule -->
<g id="edge20" class="edge">
<title>NoteNavigationComponent&#45;&gt;AppModule</title>
<path fill="none" stroke="#000000" d="M3905,-122.1243C3905,-136.7832 3905,-155 3905,-155 3905,-155 3608.9769,-155 3608.9769,-155"/>
<polygon fill="#000000" stroke="#000000" points="3608.977,-151.5001 3598.9769,-155 3608.9769,-158.5001 3608.977,-151.5001"/>
</g>
<!-- ObservationRecursive -->
<g id="node21" class="node">
<title>ObservationRecursive</title>
<polygon fill="#ffffb3" stroke="#000000" points="3801.399,-122 3660.601,-122 3660.601,-86 3801.399,-86 3801.399,-122"/>
<text text-anchor="middle" x="3731" y="-99.8" font-family="Times,serif" font-size="14.00" fill="#000000">ObservationRecursive</text>
</g>
<!-- ObservationRecursive&#45;&gt;AppModule -->
<g id="edge21" class="edge">
<title>ObservationRecursive&#45;&gt;AppModule</title>
<path fill="none" stroke="#000000" d="M3731,-122.2458C3731,-136.1772 3731,-153 3731,-153 3731,-153 3608.6773,-153 3608.6773,-153"/>
<polygon fill="#000000" stroke="#000000" points="3608.6774,-149.5001 3598.6773,-153 3608.6773,-156.5001 3608.6774,-149.5001"/>
</g>
<!-- ObservationRecursiveChart -->
<g id="node22" class="node">
<title>ObservationRecursiveChart</title>
<polygon fill="#ffffb3" stroke="#000000" points="3642.5015,-122 3471.4985,-122 3471.4985,-86 3642.5015,-86 3642.5015,-122"/>
<text text-anchor="middle" x="3557" y="-99.8" font-family="Times,serif" font-size="14.00" fill="#000000">ObservationRecursiveChart</text>
</g>
<!-- ObservationRecursiveChart&#45;&gt;AppModule -->
<g id="edge22" class="edge">
<title>ObservationRecursiveChart&#45;&gt;AppModule</title>
<path fill="none" stroke="#000000" d="M3557,-122.1061C3557,-122.1061 3557,-140.991 3557,-140.991"/>
<polygon fill="#000000" stroke="#000000" points="3553.5001,-140.9909 3557,-150.991 3560.5001,-140.991 3553.5001,-140.9909"/>
</g>
<!-- ObservationsComponent -->
<g id="node23" class="node">
<title>ObservationsComponent</title>
<polygon fill="#ffffb3" stroke="#000000" points="3453.6993,-122 3298.3007,-122 3298.3007,-86 3453.6993,-86 3453.6993,-122"/>
<text text-anchor="middle" x="3376" y="-99.8" font-family="Times,serif" font-size="14.00" fill="#000000">ObservationsComponent</text>
</g>
<!-- ObservationsComponent&#45;&gt;AppModule -->
<g id="edge23" class="edge">
<title>ObservationsComponent&#45;&gt;AppModule</title>
<path fill="none" stroke="#000000" d="M3376,-122.2458C3376,-136.1772 3376,-153 3376,-153 3376,-153 3505.02,-153 3505.02,-153"/>
<polygon fill="#000000" stroke="#000000" points="3505.0201,-156.5001 3515.02,-153 3505.02,-149.5001 3505.0201,-156.5001"/>
</g>
<!-- ObservationsDisplay -->
<g id="node24" class="node">
<title>ObservationsDisplay</title>
<polygon fill="#ffffb3" stroke="#000000" points="3280.9144,-122 3147.0856,-122 3147.0856,-86 3280.9144,-86 3280.9144,-122"/>
<text text-anchor="middle" x="3214" y="-99.8" font-family="Times,serif" font-size="14.00" fill="#000000">ObservationsDisplay</text>
</g>
<!-- ObservationsDisplay&#45;&gt;AppModule -->
<g id="edge24" class="edge">
<title>ObservationsDisplay&#45;&gt;AppModule</title>
<path fill="none" stroke="#000000" d="M3214,-122.1243C3214,-136.7832 3214,-155 3214,-155 3214,-155 3505.2844,-155 3505.2844,-155"/>
<polygon fill="#000000" stroke="#000000" points="3505.2844,-158.5001 3515.2844,-155 3505.2843,-151.5001 3505.2844,-158.5001"/>
</g>
<!-- PatientComponent -->
<g id="node25" class="node">
<title>PatientComponent</title>
<polygon fill="#ffffb3" stroke="#000000" points="3129.2162,-122 3008.7838,-122 3008.7838,-86 3129.2162,-86 3129.2162,-122"/>
<text text-anchor="middle" x="3069" y="-99.8" font-family="Times,serif" font-size="14.00" fill="#000000">PatientComponent</text>
</g>
<!-- PatientComponent&#45;&gt;AppModule -->
<g id="edge25" class="edge">
<title>PatientComponent&#45;&gt;AppModule</title>
<path fill="none" stroke="#000000" d="M3069,-122.1871C3069,-137.1824 3069,-156 3069,-156 3069,-156 3504.971,-156 3504.971,-156"/>
<polygon fill="#000000" stroke="#000000" points="3504.9711,-159.5001 3514.971,-156 3504.971,-152.5001 3504.9711,-159.5001"/>
</g>
<!-- TimelineComponent -->
<g id="node26" class="node">
<title>TimelineComponent</title>
<polygon fill="#ffffb3" stroke="#000000" points="2990.8767,-122 2859.1233,-122 2859.1233,-86 2990.8767,-86 2990.8767,-122"/>
<text text-anchor="middle" x="2925" y="-99.8" font-family="Times,serif" font-size="14.00" fill="#000000">TimelineComponent</text>
</g>
<!-- TimelineComponent&#45;&gt;AppModule -->
<g id="edge26" class="edge">
<title>TimelineComponent&#45;&gt;AppModule</title>
<path fill="none" stroke="#000000" d="M2925,-122.2819C2925,-137.9478 2925,-158 2925,-158 2925,-158 3505.0433,-158 3505.0433,-158"/>
<polygon fill="#000000" stroke="#000000" points="3505.0433,-161.5001 3515.0433,-158 3505.0432,-154.5001 3505.0433,-161.5001"/>
</g>
<!-- TimelinePopupComponent -->
<g id="node27" class="node">
<title>TimelinePopupComponent</title>
<polygon fill="#ffffb3" stroke="#000000" points="2840.6595,-122 2673.3405,-122 2673.3405,-86 2840.6595,-86 2840.6595,-122"/>
<text text-anchor="middle" x="2757" y="-99.8" font-family="Times,serif" font-size="14.00" fill="#000000">TimelinePopupComponent</text>
</g>
<!-- TimelinePopupComponent&#45;&gt;AppModule -->
<g id="edge27" class="edge">
<title>TimelinePopupComponent&#45;&gt;AppModule</title>
<path fill="none" stroke="#000000" d="M2757,-122.027C2757,-138.3976 2757,-160 2757,-160 2757,-160 3505.1149,-160 3505.1149,-160"/>
<polygon fill="#000000" stroke="#000000" points="3505.1149,-163.5001 3515.1149,-160 3505.1149,-156.5001 3505.1149,-163.5001"/>
</g>
<!-- ToolbarComponent -->
<g id="node28" class="node">
<title>ToolbarComponent</title>
<polygon fill="#ffffb3" stroke="#000000" points="2654.6513,-122 2529.3487,-122 2529.3487,-86 2654.6513,-86 2654.6513,-122"/>
<text text-anchor="middle" x="2592" y="-99.8" font-family="Times,serif" font-size="14.00" fill="#000000">ToolbarComponent</text>
</g>
<!-- ToolbarComponent&#45;&gt;AppModule -->
<g id="edge28" class="edge">
<title>ToolbarComponent&#45;&gt;AppModule</title>
<path fill="none" stroke="#000000" d="M2592,-122.0352C2592,-138.7344 2592,-161 2592,-161 2592,-161 3505.2254,-161 3505.2254,-161"/>
<polygon fill="#000000" stroke="#000000" points="3505.2255,-164.5001 3515.2254,-161 3505.2254,-157.5001 3505.2255,-164.5001"/>
</g>
<!-- TripleListComponent -->
<g id="node29" class="node">
<title>TripleListComponent</title>
<polygon fill="#ffffb3" stroke="#000000" points="2511.8202,-122 2374.1798,-122 2374.1798,-86 2511.8202,-86 2511.8202,-122"/>
<text text-anchor="middle" x="2443" y="-99.8" font-family="Times,serif" font-size="14.00" fill="#000000">TripleListComponent</text>
</g>
<!-- TripleListComponent&#45;&gt;AppModule -->
<g id="edge29" class="edge">
<title>TripleListComponent&#45;&gt;AppModule</title>
<path fill="none" stroke="#000000" d="M2443,-122.0225C2443,-139.3734 2443,-163 2443,-163 2443,-163 3505.0272,-163 3505.0272,-163"/>
<polygon fill="#000000" stroke="#000000" points="3505.0273,-166.5001 3515.0272,-163 3505.0272,-159.5001 3505.0273,-166.5001"/>
</g>
<!-- AppComponent  -->
<g id="node32" class="node">
<title>AppComponent </title>
<polygon fill="#80b1d3" stroke="#000000" points="3611.439,-252 3502.561,-252 3502.561,-216 3611.439,-216 3611.439,-252"/>
<text text-anchor="middle" x="3557" y="-229.8" font-family="Times,serif" font-size="14.00" fill="#000000">AppComponent </text>
</g>
<!-- AppModule&#45;&gt;AppComponent  -->
<g id="edge31" class="edge">
<title>AppModule&#45;&gt;AppComponent </title>
<path fill="none" stroke="#000000" stroke-dasharray="1,5" d="M3557,-187.1061C3557,-187.1061 3557,-205.991 3557,-205.991"/>
<polygon fill="#000000" stroke="#000000" points="3553.5001,-205.9909 3557,-215.991 3560.5001,-205.991 3553.5001,-205.9909"/>
</g>
<!-- FormCreatorModule -->
<g id="node31" class="node">
<title>FormCreatorModule</title>
<polygon fill="#8dd3c7" stroke="#000000" points="2349.8613,-122 2346.8613,-126 2325.8613,-126 2322.8613,-122 2218.1387,-122 2218.1387,-86 2349.8613,-86 2349.8613,-122"/>
<text text-anchor="middle" x="2284" y="-99.8" font-family="Times,serif" font-size="14.00" fill="#000000">FormCreatorModule</text>
</g>
<!-- FormCreatorModule&#45;&gt;AppModule -->
<g id="edge30" class="edge">
<title>FormCreatorModule&#45;&gt;AppModule</title>
<path fill="none" stroke="#000000" d="M2284,-122.302C2284,-140.2699 2284,-165 2284,-165 2284,-165 3505.0076,-165 3505.0076,-165"/>
<polygon fill="#000000" stroke="#000000" points="3505.0076,-168.5001 3515.0076,-165 3505.0076,-161.5001 3505.0076,-168.5001"/>
</g>
<!-- AssociationService -->
<g id="node33" class="node">
<title>AssociationService</title>
<ellipse fill="#fdb462" stroke="#000000" cx="2108" cy="-104" rx="85.6686" ry="18"/>
<text text-anchor="middle" x="2108" y="-99.8" font-family="Times,serif" font-size="14.00" fill="#000000">AssociationService</text>
</g>
<!-- AssociationService&#45;&gt;AppModule -->
<g id="edge32" class="edge">
<title>AssociationService&#45;&gt;AppModule</title>
<path fill="none" stroke="#000000" d="M2108,-122.2667C2108,-140.5552 2108,-166 2108,-166 2108,-166 3505.1969,-166 3505.1969,-166"/>
<polygon fill="#000000" stroke="#000000" points="3505.197,-169.5001 3515.1969,-166 3505.1969,-162.5001 3505.197,-169.5001"/>
</g>
<!-- CarePlanService -->
<g id="node34" class="node">
<title>CarePlanService</title>
<ellipse fill="#fdb462" stroke="#000000" cx="1929" cy="-104" rx="75.2751" ry="18"/>
<text text-anchor="middle" x="1929" y="-99.8" font-family="Times,serif" font-size="14.00" fill="#000000">CarePlanService</text>
</g>
<!-- CarePlanService&#45;&gt;AppModule -->
<g id="edge33" class="edge">
<title>CarePlanService&#45;&gt;AppModule</title>
<path fill="none" stroke="#000000" d="M1929,-122.1686C1929,-141.0898 1929,-168 1929,-168 1929,-168 3505.1211,-168 3505.1211,-168"/>
<polygon fill="#000000" stroke="#000000" points="3505.1211,-171.5001 3515.1211,-168 3505.121,-164.5001 3505.1211,-171.5001"/>
</g>
<!-- ConditionService -->
<g id="node35" class="node">
<title>ConditionService</title>
<ellipse fill="#fdb462" stroke="#000000" cx="1757" cy="-104" rx="78.7511" ry="18"/>
<text text-anchor="middle" x="1757" y="-99.8" font-family="Times,serif" font-size="14.00" fill="#000000">ConditionService</text>
</g>
<!-- ConditionService&#45;&gt;AppModule -->
<g id="edge34" class="edge">
<title>ConditionService&#45;&gt;AppModule</title>
<path fill="none" stroke="#000000" d="M1757,-122.1061C1757,-141.3391 1757,-169 1757,-169 1757,-169 3505.1558,-169 3505.1558,-169"/>
<polygon fill="#000000" stroke="#000000" points="3505.1559,-172.5001 3515.1558,-169 3505.1558,-165.5001 3505.1559,-172.5001"/>
</g>
<!-- DoctorService -->
<g id="node36" class="node">
<title>DoctorService</title>
<ellipse fill="#fdb462" stroke="#000000" cx="1594" cy="-104" rx="66.6113" ry="18"/>
<text text-anchor="middle" x="1594" y="-99.8" font-family="Times,serif" font-size="14.00" fill="#000000">DoctorService</text>
</g>
<!-- DoctorService&#45;&gt;AppModule -->
<g id="edge35" class="edge">
<title>DoctorService&#45;&gt;AppModule</title>
<path fill="none" stroke="#000000" d="M1594,-122.308C1594,-142.1455 1594,-171 1594,-171 1594,-171 3505.0918,-171 3505.0918,-171"/>
<polygon fill="#000000" stroke="#000000" points="3505.0918,-174.5001 3515.0918,-171 3505.0918,-167.5001 3505.0918,-174.5001"/>
</g>
<!-- EncounterService -->
<g id="node37" class="node">
<title>EncounterService</title>
<ellipse fill="#fdb462" stroke="#000000" cx="1430" cy="-104" rx="79.8546" ry="18"/>
<text text-anchor="middle" x="1430" y="-99.8" font-family="Times,serif" font-size="14.00" fill="#000000">EncounterService</text>
</g>
<!-- EncounterService&#45;&gt;AppModule -->
<g id="edge36" class="edge">
<title>EncounterService&#45;&gt;AppModule</title>
<path fill="none" stroke="#000000" d="M1430,-122.1289C1430,-142.5724 1430,-173 1430,-173 1430,-173 3504.9905,-173 3504.9905,-173"/>
<polygon fill="#000000" stroke="#000000" points="3504.9905,-176.5001 3514.9905,-173 3504.9905,-169.5001 3504.9905,-176.5001"/>
</g>
<!-- FhirService -->
<g id="node38" class="node">
<title>FhirService</title>
<ellipse fill="#fdb462" stroke="#000000" cx="1276" cy="-104" rx="56.1744" ry="18"/>
<text text-anchor="middle" x="1276" y="-99.8" font-family="Times,serif" font-size="14.00" fill="#000000">FhirService</text>
</g>
<!-- FhirService&#45;&gt;AppModule -->
<g id="edge37" class="edge">
<title>FhirService&#45;&gt;AppModule</title>
<path fill="none" stroke="#000000" d="M1276,-122.0267C1276,-142.7672 1276,-174 1276,-174 1276,-174 3504.9682,-174 3504.9682,-174"/>
<polygon fill="#000000" stroke="#000000" points="3504.9682,-177.5001 3514.9682,-174 3504.9681,-170.5001 3504.9682,-177.5001"/>
</g>
<!-- HistoricalTrendsService -->
<g id="node39" class="node">
<title>HistoricalTrendsService</title>
<ellipse fill="#fdb462" stroke="#000000" cx="1097" cy="-104" rx="104.7675" ry="18"/>
<text text-anchor="middle" x="1097" y="-99.8" font-family="Times,serif" font-size="14.00" fill="#000000">HistoricalTrendsService</text>
</g>
<!-- HistoricalTrendsService&#45;&gt;AppModule -->
<g id="edge38" class="edge">
<title>HistoricalTrendsService&#45;&gt;AppModule</title>
<path fill="none" stroke="#000000" d="M1097,-122.1686C1097,-143.498 1097,-176 1097,-176 1097,-176 3505.3343,-176 3505.3343,-176"/>
<polygon fill="#000000" stroke="#000000" points="3505.3343,-179.5001 3515.3343,-176 3505.3342,-172.5001 3505.3343,-179.5001"/>
</g>
<!-- MapService -->
<g id="node40" class="node">
<title>MapService</title>
<ellipse fill="#fdb462" stroke="#000000" cx="916" cy="-104" rx="57.8829" ry="18"/>
<text text-anchor="middle" x="916" y="-99.8" font-family="Times,serif" font-size="14.00" fill="#000000">MapService</text>
</g>
<!-- MapService&#45;&gt;AppModule -->
<g id="edge39" class="edge">
<title>MapService&#45;&gt;AppModule</title>
<path fill="none" stroke="#000000" d="M916,-122.2921C916,-144.2057 916,-178 916,-178 916,-178 3505.25,-178 3505.25,-178"/>
<polygon fill="#000000" stroke="#000000" points="3505.25,-181.5001 3515.25,-178 3505.2499,-174.5001 3505.25,-181.5001"/>
</g>
<!-- ObservationService -->
<g id="node41" class="node">
<title>ObservationService</title>
<ellipse fill="#fdb462" stroke="#000000" cx="753" cy="-104" rx="87.377" ry="18"/>
<text text-anchor="middle" x="753" y="-99.8" font-family="Times,serif" font-size="14.00" fill="#000000">ObservationService</text>
</g>
<!-- ObservationService&#45;&gt;AppModule -->
<g id="edge40" class="edge">
<title>ObservationService&#45;&gt;AppModule</title>
<path fill="none" stroke="#000000" d="M753,-122.1554C753,-144.3519 753,-179 753,-179 753,-179 3505.1863,-179 3505.1863,-179"/>
<polygon fill="#000000" stroke="#000000" points="3505.1863,-182.5001 3515.1863,-179 3505.1862,-175.5001 3505.1863,-182.5001"/>
</g>
<!-- PatientService -->
<g id="node42" class="node">
<title>PatientService</title>
<ellipse fill="#fdb462" stroke="#000000" cx="581" cy="-104" rx="66.6267" ry="18"/>
<text text-anchor="middle" x="581" y="-99.8" font-family="Times,serif" font-size="14.00" fill="#000000">PatientService</text>
</g>
<!-- PatientService&#45;&gt;AppModule -->
<g id="edge41" class="edge">
<title>PatientService&#45;&gt;AppModule</title>
<path fill="none" stroke="#000000" d="M581,-122.2479C581,-145.0179 581,-181 581,-181 581,-181 3505.2148,-181 3505.2148,-181"/>
<polygon fill="#000000" stroke="#000000" points="3505.2149,-184.5001 3515.2148,-181 3505.2148,-177.5001 3505.2149,-184.5001"/>
</g>
<!-- ScratchPadService -->
<g id="node43" class="node">
<title>ScratchPadService</title>
<ellipse fill="#fdb462" stroke="#000000" cx="413" cy="-104" rx="83.3616" ry="18"/>
<text text-anchor="middle" x="413" y="-99.8" font-family="Times,serif" font-size="14.00" fill="#000000">ScratchPadService</text>
</g>
<!-- ScratchPadService&#45;&gt;AppModule -->
<g id="edge42" class="edge">
<title>ScratchPadService&#45;&gt;AppModule</title>
<path fill="none" stroke="#000000" d="M413,-122.3228C413,-145.6602 413,-183 413,-183 413,-183 3505.2257,-183 3505.2257,-183"/>
<polygon fill="#000000" stroke="#000000" points="3505.2257,-186.5001 3515.2257,-183 3505.2257,-179.5001 3505.2257,-186.5001"/>
</g>
<!-- SmartService -->
<g id="node44" class="node">
<title>SmartService</title>
<ellipse fill="#fdb462" stroke="#000000" cx="249" cy="-104" rx="63.1151" ry="18"/>
<text text-anchor="middle" x="249" y="-99.8" font-family="Times,serif" font-size="14.00" fill="#000000">SmartService</text>
</g>
<!-- SmartService&#45;&gt;AppModule -->
<g id="edge43" class="edge">
<title>SmartService&#45;&gt;AppModule</title>
<path fill="none" stroke="#000000" d="M249,-122.1532C249,-145.7566 249,-184 249,-184 249,-184 3505.1747,-184 3505.1747,-184"/>
<polygon fill="#000000" stroke="#000000" points="3505.1747,-187.5001 3515.1747,-184 3505.1746,-180.5001 3505.1747,-187.5001"/>
</g>
<!-- ToolBarService -->
<g id="node45" class="node">
<title>ToolBarService</title>
<ellipse fill="#fdb462" stroke="#000000" cx="96" cy="-104" rx="72.3477" ry="18"/>
<text text-anchor="middle" x="96" y="-99.8" font-family="Times,serif" font-size="14.00" fill="#000000">ToolBarService</text>
</g>
<!-- ToolBarService&#45;&gt;AppModule -->
<g id="edge44" class="edge">
<title>ToolBarService&#45;&gt;AppModule</title>
<path fill="none" stroke="#000000" d="M96,-122.1985C96,-146.3563 96,-186 96,-186 96,-186 3505.1067,-186 3505.1067,-186"/>
<polygon fill="#000000" stroke="#000000" points="3505.1067,-189.5001 3515.1067,-186 3505.1067,-182.5001 3505.1067,-189.5001"/>
</g>
</g>
</svg>
